<svg xmlns="http://www.w3.org/2000/svg" width="1100" height="680" viewBox="0 0 1100 680"><style>.bg{fill:#fbfdff}.grid{stroke:#d8e0e8;stroke-width:1}.axis{stroke:#4a5568;stroke-width:1.5}.small{font:14px sans-serif;fill:#334155}.legend{font:15px sans-serif;fill:#1f2937}</style><rect class="bg" width="1100" height="680"/><text x="80" y="30" class="legend">Prop AMM Hard-Wall Curve</text><text x="80" y="50" class="small">X: raw sell size as % of hard-wall reserve. Fullness 100.00%. linear_weight_bps=100, base_exponent=2.</text><line class="grid" x1="80" y1="605" x2="1060" y2="605"/><text class="small" x="28" y="609">0%</text><line class="grid" x1="80" y1="465" x2="1060" y2="465"/><text class="small" x="28" y="469">25%</text><line class="grid" x1="80" y1="325" x2="1060" y2="325"/><text class="small" x="28" y="329">50%</text><line class="grid" x1="80" y1="185" x2="1060" y2="185"/><text class="small" x="28" y="189">75%</text><line class="grid" x1="80" y1="45" x2="1060" y2="45"/><text class="small" x="28" y="49">100%</text><line class="grid" x1="80" y1="45" x2="80" y2="605"/><text class="small" x="68" y="632">0%</text><line class="grid" x1="327.47474747474746" y1="45" x2="327.47474747474746" y2="605"/><text class="small" x="315.47474747474746" y="632">25%</text><line class="grid" x1="574.9494949494949" y1="45" x2="574.9494949494949" y2="605"/><text class="small" x="562.9494949494949" y="632">50%</text><line class="grid" x1="822.4242424242424" y1="45" x2="822.4242424242424" y2="605"/><text class="small" x="810.4242424242424" y="632">75%</text><line class="grid" x1="1060" y1="45" x2="1060" y2="605"/><text class="small" x="1048" y="632">99%</text><line class="axis" x1="80" y1="605" x2="1060" y2="605"/><line class="axis" x1="80" y1="45" x2="80" y2="605"/><path d="M80.00 605.00 L84.85 73.05 L89.80 73.10 L94.65 73.18 L99.60 73.29 L104.45 73.41 L109.40 73.57 L114.25 73.74 L119.20 73.95 L124.05 74.17 L129.00 74.42 L133.85 74.68 L138.80 74.98 L143.65 75.29 L148.60 75.63 L153.45 75.99 L158.40 76.38 L163.25 76.79 L168.20 77.22 L173.05 77.68 L178.00 78.16 L182.85 78.66 L187.80 79.19 L192.65 79.73 L197.60 80.31 L202.45 80.90 L207.40 81.52 L212.25 82.16 L217.20 82.83 L222.05 83.51 L227.00 84.23 L231.85 84.96 L236.80 85.73 L241.65 86.50 L246.60 87.31 L251.45 88.13 L256.40 88.99 L261.25 89.86 L266.20 90.77 L271.05 91.68 L276.00 92.64 L280.85 93.59 L285.80 94.60 L290.65 95.60 L295.60 96.65 L300.45 97.70 L305.40 98.80 L310.25 99.89 L315.20 101.04 L320.05 102.18 L325.00 103.37 L329.85 104.56 L334.80 105.79 L339.65 107.03 L344.60 108.31 L349.45 109.59 L354.40 110.93 L359.25 112.25 L364.20 113.63 L369.05 115.00 L374.00 116.43 L378.85 117.85 L383.80 119.32 L388.65 120.79 L393.60 122.31 L398.45 123.82 L403.40 125.38 L408.25 126.94 L413.20 128.56 L418.05 130.16 L423.00 131.82 L427.85 133.47 L432.80 135.18 L437.65 136.87 L442.60 138.63 L447.45 140.37 L452.40 142.17 L457.25 143.96 L462.20 145.81 L467.05 147.64 L472.00 149.54 L476.85 151.42 L481.80 153.36 L486.65 155.29 L491.60 157.28 L496.45 159.25 L501.40 161.29 L506.25 163.31 L511.20 165.39 L516.05 167.46 L521.00 169.59 L525.85 171.70 L530.80 173.88 L535.65 176.04 L540.60 178.26 L545.45 180.47 L550.40 182.74 L555.25 184.99 L560.20 187.31 L565.05 189.60 L570.00 191.97 L574.85 194.31 L579.80 196.72 L584.65 199.11 L589.60 201.57 L594.45 204.01 L599.40 206.51 L604.25 208.99 L609.20 211.55 L614.05 214.08 L619.00 216.68 L623.85 219.25 L628.80 221.90 L633.65 224.52 L638.60 227.21 L643.45 229.88 L648.40 232.62 L653.25 235.33 L658.20 238.12 L663.05 240.88 L668.00 243.72 L672.85 246.52 L677.80 249.40 L682.65 252.25 L687.60 255.18 L692.45 258.08 L697.40 261.06 L702.25 264.00 L707.20 267.02 L712.05 270.01 L717.00 273.08 L721.85 276.12 L726.80 279.24 L731.65 282.32 L736.60 285.48 L741.45 288.61 L746.40 291.82 L751.25 294.99 L756.20 298.25 L761.05 301.47 L766.00 304.78 L770.85 308.04 L775.80 311.40 L780.65 314.71 L785.60 318.11 L790.45 321.47 L795.40 324.91 L800.25 328.32 L805.20 331.81 L810.05 335.26 L815.00 338.80 L819.85 342.30 L824.80 345.89 L829.65 349.43 L834.60 353.07 L839.45 356.65 L844.40 360.34 L849.25 363.97 L854.20 367.70 L859.05 371.38 L864.00 375.16 L868.85 378.88 L873.80 382.71 L878.65 386.48 L883.60 390.35 L888.45 394.17 L893.40 398.09 L898.25 401.95 L903.20 405.92 L908.05 409.83 L913.00 413.84 L917.85 417.80 L922.80 421.86 L927.65 425.86 L932.60 429.97 L937.45 434.02 L942.40 438.17 L947.25 442.27 L952.20 446.47 L957.05 450.61 L962.00 454.86 L966.85 459.04 L971.80 463.34 L976.65 467.57 L981.60 471.92 L986.45 476.19 L991.40 480.58 L996.25 484.91 L1001.20 489.35 L1006.05 493.72 L1011.00 498.20 L1015.85 502.62 L1020.80 507.15 L1025.65 511.61 L1030.60 516.19 L1035.45 520.70 L1040.40 525.32 L1045.25 529.88 L1050.20 534.55 L1055.05 539.15 L1060.00 543.87" fill="none" stroke="#d23f31" stroke-width="3"/><path d="M80.00 605.00 L84.85 45.06 L89.80 45.11 L94.65 45.22 L99.60 45.34 L104.45 45.45 L109.40 45.62 L114.25 45.78 L119.20 46.01 L124.05 46.23 L129.00 46.51 L133.85 46.79 L138.80 47.13 L143.65 47.46 L148.60 47.80 L153.45 48.19 L158.40 48.58 L163.25 49.03 L168.20 49.48 L173.05 49.93 L178.00 50.43 L182.85 50.99 L187.80 51.55 L192.65 52.11 L197.60 52.73 L202.45 53.34 L207.40 54.02 L212.25 54.69 L217.20 55.36 L222.05 56.09 L227.00 56.87 L231.85 57.60 L236.80 58.44 L241.65 59.22 L246.60 60.12 L251.45 60.96 L256.40 61.86 L261.25 62.75 L266.20 63.70 L271.05 64.71 L276.00 65.72 L280.85 66.73 L285.80 67.74 L290.65 68.80 L295.60 69.92 L300.45 71.04 L305.40 72.16 L310.25 73.34 L315.20 74.51 L320.05 75.74 L325.00 76.98 L329.85 78.26 L334.80 79.55 L339.65 80.84 L344.60 82.18 L349.45 83.53 L354.40 84.93 L359.25 86.33 L364.20 87.78 L369.05 89.24 L374.00 90.75 L378.85 92.26 L383.80 93.78 L388.65 95.34 L393.60 96.91 L398.45 98.54 L403.40 100.16 L408.25 101.78 L413.20 103.52 L418.05 105.20 L423.00 106.94 L427.85 108.67 L432.80 110.46 L437.65 112.26 L442.60 114.10 L447.45 115.95 L452.40 117.86 L457.25 119.70 L462.20 121.66 L467.05 123.62 L472.00 125.58 L476.85 127.60 L481.80 129.62 L486.65 131.63 L491.60 133.76 L496.45 135.83 L501.40 137.96 L506.25 140.09 L511.20 142.27 L516.05 144.46 L521.00 146.70 L525.85 148.94 L530.80 151.23 L535.65 153.47 L540.60 155.82 L545.45 158.18 L550.40 160.53 L555.25 162.94 L560.20 165.34 L565.05 167.75 L570.00 170.27 L574.85 172.74 L579.80 175.26 L584.65 177.78 L589.60 180.35 L594.45 182.93 L599.40 185.56 L604.25 188.19 L609.20 190.88 L614.05 193.51 L619.00 196.26 L623.85 199.00 L628.80 201.74 L633.65 204.54 L638.60 207.34 L643.45 210.14 L648.40 213.06 L653.25 215.91 L658.20 218.82 L663.05 221.74 L668.00 224.70 L672.85 227.67 L677.80 230.70 L682.65 233.72 L687.60 236.80 L692.45 239.82 L697.40 242.96 L702.25 246.10 L707.20 249.29 L712.05 252.42 L717.00 255.62 L721.85 258.81 L726.80 262.11 L731.65 265.36 L736.60 268.72 L741.45 271.97 L746.40 275.38 L751.25 278.69 L756.20 282.16 L761.05 285.52 L766.00 288.99 L770.85 292.46 L775.80 295.99 L780.65 299.46 L785.60 303.05 L790.45 306.58 L795.40 310.22 L800.25 313.80 L805.20 317.44 L810.05 321.08 L815.00 324.83 L819.85 328.53 L824.80 332.28 L829.65 336.03 L834.60 339.84 L839.45 343.59 L844.40 347.51 L849.25 351.32 L854.20 355.24 L859.05 359.10 L864.00 363.08 L868.85 367.00 L873.80 371.03 L878.65 375.01 L883.60 379.10 L888.45 383.13 L893.40 387.22 L898.25 391.30 L903.20 395.45 L908.05 399.59 L913.00 403.79 L917.85 407.99 L922.80 412.25 L927.65 416.45 L932.60 420.76 L937.45 425.07 L942.40 429.44 L947.25 433.75 L952.20 438.18 L957.05 442.49 L962.00 446.97 L966.85 451.39 L971.80 455.93 L976.65 460.35 L981.60 464.94 L986.45 469.42 L991.40 474.07 L996.25 478.61 L1001.20 483.31 L1006.05 487.90 L1011.00 492.61 L1015.85 497.26 L1020.80 502.02 L1025.65 506.72 L1030.60 511.54 L1035.45 516.30 L1040.40 521.17 L1045.25 525.93 L1050.20 530.86 L1055.05 535.73 L1060.00 540.66" fill="none" stroke="#2b8cbe" stroke-width="2" stroke-dasharray="7 5"/><path d="M80.00 605.00 L84.85 602.26 L89.80 599.46 L94.65 596.71 L99.60 593.91 L104.45 591.17 L109.40 588.37 L114.25 585.62 L119.20 582.82 L124.05 580.08 L129.00 577.28 L133.85 574.54 L138.80 571.74 L143.65 568.99 L148.60 566.19 L153.45 563.45 L158.40 560.65 L163.25 557.90 L168.20 555.10 L173.05 552.36 L178.00 549.56 L182.85 546.82 L187.80 544.02 L192.65 541.27 L197.60 538.47 L202.45 535.73 L207.40 532.93 L212.25 530.18 L217.20 527.38 L222.05 524.64 L227.00 521.84 L231.85 519.10 L236.80 516.30 L241.65 513.55 L246.60 510.75 L251.45 508.01 L256.40 505.21 L261.25 502.46 L266.20 499.66 L271.05 496.92 L276.00 494.12 L280.85 491.38 L285.80 488.58 L290.65 485.83 L295.60 483.03 L300.45 480.29 L305.40 477.49 L310.25 474.74 L315.20 471.94 L320.05 469.20 L325.00 466.40 L329.85 463.66 L334.80 460.86 L339.65 458.11 L344.60 455.31 L349.45 452.57 L354.40 449.77 L359.25 447.02 L364.20 444.22 L369.05 441.48 L374.00 438.68 L378.85 435.94 L383.80 433.14 L388.65 430.39 L393.60 427.59 L398.45 424.85 L403.40 422.05 L408.25 419.30 L413.20 416.50 L418.05 413.76 L423.00 410.96 L427.85 408.22 L432.80 405.42 L437.65 402.67 L442.60 399.87 L447.45 397.13 L452.40 394.33 L457.25 391.58 L462.20 388.78 L467.05 386.04 L472.00 383.24 L476.85 380.50 L481.80 377.70 L486.65 374.95 L491.60 372.15 L496.45 369.41 L501.40 366.61 L506.25 363.86 L511.20 361.06 L516.05 358.32 L521.00 355.52 L525.85 352.78 L530.80 349.98 L535.65 347.23 L540.60 344.43 L545.45 341.69 L550.40 338.89 L555.25 336.14 L560.20 333.34 L565.05 330.60 L570.00 327.80 L574.85 325.06 L579.80 322.26 L584.65 319.51 L589.60 316.71 L594.45 313.97 L599.40 311.17 L604.25 308.42 L609.20 305.62 L614.05 302.88 L619.00 300.08 L623.85 297.34 L628.80 294.54 L633.65 291.79 L638.60 288.99 L643.45 286.25 L648.40 283.45 L653.25 280.70 L658.20 277.90 L663.05 275.16 L668.00 272.36 L672.85 269.62 L677.80 266.82 L682.65 264.07 L687.60 261.27 L692.45 258.53 L697.40 255.73 L702.25 252.98 L707.20 250.18 L712.05 247.44 L717.00 244.64 L721.85 241.90 L726.80 239.10 L731.65 236.35 L736.60 233.55 L741.45 230.81 L746.40 228.01 L751.25 225.26 L756.20 222.46 L761.05 219.72 L766.00 216.92 L770.85 214.18 L775.80 211.38 L780.65 208.63 L785.60 205.83 L790.45 203.09 L795.40 200.29 L800.25 197.54 L805.20 194.74 L810.05 192.00 L815.00 189.20 L819.85 186.46 L824.80 183.66 L829.65 180.91 L834.60 178.11 L839.45 175.37 L844.40 172.57 L849.25 169.82 L854.20 167.02 L859.05 164.28 L864.00 161.48 L868.85 158.74 L873.80 155.94 L878.65 153.19 L883.60 150.39 L888.45 147.65 L893.40 144.85 L898.25 142.10 L903.20 139.30 L908.05 136.56 L913.00 133.76 L917.85 131.02 L922.80 128.22 L927.65 125.47 L932.60 122.67 L937.45 119.93 L942.40 117.13 L947.25 114.38 L952.20 111.58 L957.05 108.84 L962.00 106.04 L966.85 103.30 L971.80 100.50 L976.65 97.75 L981.60 94.95 L986.45 92.21 L991.40 89.41 L996.25 86.66 L1001.20 83.86 L1006.05 81.12 L1011.00 78.32 L1015.85 75.58 L1020.80 72.78 L1025.65 70.03 L1030.60 67.23 L1035.45 64.49 L1040.40 61.69 L1045.25 58.94 L1050.20 56.14 L1055.05 53.40 L1060.00 50.60" fill="none" stroke="#8795a1" stroke-width="2"/><path d="M80.00 605.00 L84.85 602.39 L89.80 599.73 L94.65 597.13 L99.60 594.47 L104.45 591.87 L109.40 589.22 L114.25 586.62 L119.20 583.97 L124.05 581.38 L129.00 578.74 L133.85 576.15 L138.80 573.52 L143.65 570.94 L148.60 568.31 L153.45 565.75 L158.40 563.13 L163.25 560.58 L168.20 557.98 L173.05 555.43 L178.00 552.84 L182.85 550.31 L187.80 547.74 L192.65 545.22 L197.60 542.67 L202.45 540.17 L207.40 537.63 L212.25 535.15 L217.20 532.63 L222.05 530.17 L227.00 527.67 L231.85 525.23 L236.80 522.75 L241.65 520.33 L246.60 517.87 L251.45 515.48 L256.40 513.05 L261.25 510.68 L266.20 508.27 L271.05 505.93 L276.00 503.55 L280.85 501.24 L285.80 498.89 L290.65 496.60 L295.60 494.28 L300.45 492.02 L305.40 489.74 L310.25 487.51 L315.20 485.26 L320.05 483.07 L325.00 480.85 L329.85 478.69 L334.80 476.50 L339.65 474.38 L344.60 472.24 L349.45 470.15 L354.40 468.04 L359.25 466.00 L364.20 463.93 L369.05 461.92 L374.00 459.89 L378.85 457.93 L383.80 455.95 L388.65 454.02 L393.60 452.08 L398.45 450.20 L403.40 448.31 L408.25 446.48 L413.20 444.63 L418.05 442.84 L423.00 441.04 L427.85 439.30 L432.80 437.56 L437.65 435.87 L442.60 434.17 L447.45 432.53 L452.40 430.88 L457.25 429.30 L462.20 427.71 L467.05 426.17 L472.00 424.64 L476.85 423.16 L481.80 421.68 L486.65 420.26 L491.60 418.84 L496.45 417.47 L501.40 416.11 L506.25 414.81 L511.20 413.51 L516.05 412.26 L521.00 411.02 L525.85 409.84 L530.80 408.67 L535.65 407.55 L540.60 406.44 L545.45 405.38 L550.40 404.34 L555.25 403.35 L560.20 402.38 L565.05 401.46 L570.00 400.55 L574.85 399.70 L579.80 398.86 L584.65 398.08 L589.60 397.32 L594.45 396.60 L599.40 395.91 L604.25 395.28 L609.20 394.66 L614.05 394.10 L619.00 393.56 L623.85 393.07 L628.80 392.61 L633.65 392.20 L638.60 391.81 L643.45 391.48 L648.40 391.18 L653.25 390.92 L658.20 390.71 L663.05 390.53 L668.00 390.40 L672.85 390.31 L677.80 390.25 L682.65 390.25 L687.60 390.28 L692.45 390.36 L697.40 390.48 L702.25 390.65 L707.20 390.86 L712.05 391.11 L717.00 391.41 L721.85 391.75 L726.80 392.15 L731.65 392.58 L736.60 393.06 L741.45 393.59 L746.40 394.17 L751.25 394.78 L756.20 395.46 L761.05 396.17 L766.00 396.95 L770.85 397.75 L775.80 398.63 L780.65 399.53 L785.60 400.50 L790.45 401.51 L795.40 402.58 L800.25 403.69 L805.20 404.86 L810.05 406.07 L815.00 407.35 L819.85 408.66 L824.80 410.04 L829.65 411.46 L834.60 412.95 L839.45 414.47 L844.40 416.07 L849.25 417.70 L854.20 419.41 L859.05 421.14 L864.00 422.97 L868.85 424.81 L873.80 426.75 L878.65 428.70 L883.60 430.75 L888.45 432.82 L893.40 434.98 L898.25 437.16 L903.20 439.45 L908.05 441.74 L913.00 444.14 L917.85 446.55 L922.80 449.07 L927.65 451.60 L932.60 454.25 L937.45 456.90 L942.40 459.66 L947.25 462.43 L952.20 465.32 L957.05 468.21 L962.00 471.22 L966.85 474.24 L971.80 477.38 L976.65 480.52 L981.60 483.79 L986.45 487.05 L991.40 490.45 L996.25 493.84 L1001.20 497.37 L1006.05 500.89 L1011.00 504.56 L1015.85 508.21 L1020.80 512.00 L1025.65 515.79 L1030.60 519.72 L1035.45 523.63 L1040.40 527.70 L1045.25 531.75 L1050.20 535.95 L1055.05 540.14 L1060.00 544.48" fill="none" stroke="#2ca25f" stroke-width="2"/><text class="small" x="420" y="666">raw sell size / hard-wall reserve</text><text class="small" transform="translate(18 430) rotate(-90)">effective payout % / output scale</text><rect x="690" y="58" width="362" height="114" rx="10" fill="#ffffff" stroke="#d8e0e8"/><line x1="708" y1="86" x2="743" y2="86" stroke="#d23f31" stroke-width="3"/><text class="legend" x="753" y="91">effective payout %</text><line x1="708" y1="108" x2="743" y2="108" stroke="#2b8cbe" stroke-width="2" stroke-dasharray="7 5"/><text class="legend" x="753" y="113">dampened / fee-adjusted raw</text><line x1="708" y1="130" x2="743" y2="130" stroke="#8795a1" stroke-width="2"/><text class="legend" x="753" y="135">raw output</text><line x1="708" y1="152" x2="743" y2="152" stroke="#2ca25f" stroke-width="2"/><text class="legend" x="753" y="157">actual payout</text></svg>