<svg xmlns="http://www.w3.org/2000/svg" width="1100" height="680" viewBox="0 0 1100 680"><style>.bg{fill:#fbfdff}.grid{stroke:#d8e0e8;stroke-width:1}.axis{stroke:#4a5568;stroke-width:1.5}.small{font:14px sans-serif;fill:#334155}.legend{font:15px sans-serif;fill:#1f2937}</style><rect class="bg" width="1100" height="680"/><text x="80" y="30" class="legend">Prop AMM Hard-Wall Curve</text><text x="80" y="50" class="small">X: raw sell size as % of hard-wall reserve. Fullness 100.00%. linear_weight_bps=100, base_exponent=5.</text><line class="grid" x1="80" y1="605" x2="1060" y2="605"/><text class="small" x="28" y="609">0%</text><line class="grid" x1="80" y1="465" x2="1060" y2="465"/><text class="small" x="28" y="469">25%</text><line class="grid" x1="80" y1="325" x2="1060" y2="325"/><text class="small" x="28" y="329">50%</text><line class="grid" x1="80" y1="185" x2="1060" y2="185"/><text class="small" x="28" y="189">75%</text><line class="grid" x1="80" y1="45" x2="1060" y2="45"/><text class="small" x="28" y="49">100%</text><line class="grid" x1="80" y1="45" x2="80" y2="605"/><text class="small" x="68" y="632">0%</text><line class="grid" x1="327.47474747474746" y1="45" x2="327.47474747474746" y2="605"/><text class="small" x="315.47474747474746" y="632">25%</text><line class="grid" x1="574.9494949494949" y1="45" x2="574.9494949494949" y2="605"/><text class="small" x="562.9494949494949" y="632">50%</text><line class="grid" x1="822.4242424242424" y1="45" x2="822.4242424242424" y2="605"/><text class="small" x="810.4242424242424" y="632">75%</text><line class="grid" x1="1060" y1="45" x2="1060" y2="605"/><text class="small" x="1048" y="632">99%</text><line class="axis" x1="80" y1="605" x2="1060" y2="605"/><line class="axis" x1="80" y1="45" x2="80" y2="605"/><path d="M80.00 605.00 L84.85 73.03 L89.80 73.05 L94.65 73.08 L99.60 73.10 L104.45 73.13 L109.40 73.15 L114.25 73.18 L119.20 73.20 L124.05 73.23 L129.00 73.25 L133.85 73.28 L138.80 73.30 L143.65 73.33 L148.60 73.35 L153.45 73.38 L158.40 73.40 L163.25 73.43 L168.20 73.45 L173.05 73.48 L178.00 73.50 L182.85 73.53 L187.80 73.56 L192.65 73.58 L197.60 73.61 L202.45 73.64 L207.40 73.66 L212.25 73.69 L217.20 73.72 L222.05 73.75 L227.00 73.78 L231.85 73.81 L236.80 73.84 L241.65 73.87 L246.60 73.91 L251.45 73.94 L256.40 73.97 L261.25 74.01 L266.20 74.05 L271.05 74.08 L276.00 74.12 L280.85 74.17 L285.80 74.21 L290.65 74.25 L295.60 74.30 L300.45 74.35 L305.40 74.40 L310.25 74.45 L315.20 74.51 L320.05 74.57 L325.00 74.63 L329.85 74.69 L334.80 74.76 L339.65 74.83 L344.60 74.91 L349.45 74.98 L354.40 75.07 L359.25 75.15 L364.20 75.25 L369.05 75.34 L374.00 75.44 L378.85 75.55 L383.80 75.66 L388.65 75.78 L393.60 75.90 L398.45 76.03 L403.40 76.17 L408.25 76.31 L413.20 76.46 L418.05 76.62 L423.00 76.79 L427.85 76.96 L432.80 77.14 L437.65 77.34 L442.60 77.54 L447.45 77.75 L452.40 77.97 L457.25 78.20 L462.20 78.45 L467.05 78.70 L472.00 78.97 L476.85 79.25 L481.80 79.54 L486.65 79.84 L491.60 80.17 L496.45 80.50 L501.40 80.85 L506.25 81.21 L511.20 81.59 L516.05 81.99 L521.00 82.40 L525.85 82.83 L530.80 83.28 L535.65 83.75 L540.60 84.24 L545.45 84.74 L550.40 85.28 L555.25 85.82 L560.20 86.40 L565.05 86.99 L570.00 87.61 L574.85 88.25 L579.80 88.92 L584.65 89.61 L589.60 90.34 L594.45 91.08 L599.40 91.86 L604.25 92.66 L609.20 93.50 L614.05 94.35 L619.00 95.26 L623.85 96.18 L628.80 97.15 L633.65 98.13 L638.60 99.17 L643.45 100.23 L648.40 101.34 L653.25 102.47 L658.20 103.66 L663.05 104.87 L668.00 106.14 L672.85 107.43 L677.80 108.79 L682.65 110.16 L687.60 111.61 L692.45 113.07 L697.40 114.62 L702.25 116.17 L707.20 117.82 L712.05 119.48 L717.00 121.22 L721.85 122.98 L726.80 124.84 L731.65 126.71 L736.60 128.68 L741.45 130.66 L746.40 132.75 L751.25 134.86 L756.20 137.07 L761.05 139.30 L766.00 141.64 L770.85 144.00 L775.80 146.48 L780.65 148.97 L785.60 151.59 L790.45 154.23 L795.40 157.00 L800.25 159.78 L805.20 162.70 L810.05 165.64 L815.00 168.72 L819.85 171.82 L824.80 175.07 L829.65 178.34 L834.60 181.76 L839.45 185.20 L844.40 188.80 L849.25 192.42 L854.20 196.21 L859.05 200.02 L864.00 204.00 L868.85 208.00 L873.80 212.19 L878.65 216.39 L883.60 220.79 L888.45 225.20 L893.40 229.81 L898.25 234.45 L903.20 239.29 L908.05 244.14 L913.00 249.22 L917.85 254.31 L922.80 259.62 L927.65 264.95 L932.60 270.52 L937.45 276.10 L942.40 281.93 L947.25 287.77 L952.20 293.87 L957.05 299.98 L962.00 306.35 L966.85 312.74 L971.80 319.40 L976.65 326.08 L981.60 333.04 L986.45 340.01 L991.40 347.28 L996.25 354.55 L1001.20 362.14 L1006.05 369.73 L1011.00 377.64 L1015.85 385.56 L1020.80 393.81 L1025.65 402.07 L1030.60 410.67 L1035.45 419.27 L1040.40 428.23 L1045.25 437.19 L1050.20 446.52 L1055.05 455.85 L1060.00 465.57" fill="none" stroke="#d23f31" stroke-width="3"/><path d="M80.00 605.00 L84.85 45.06 L89.80 45.06 L94.65 45.11 L99.60 45.11 L104.45 45.17 L109.40 45.17 L114.25 45.22 L119.20 45.22 L124.05 45.28 L129.00 45.28 L133.85 45.34 L138.80 45.34 L143.65 45.39 L148.60 45.39 L153.45 45.45 L158.40 45.45 L163.25 45.50 L168.20 45.50 L173.05 45.50 L178.00 45.56 L182.85 45.56 L187.80 45.62 L192.65 45.62 L197.60 45.67 L202.45 45.67 L207.40 45.73 L212.25 45.78 L217.20 45.78 L222.05 45.84 L227.00 45.84 L231.85 45.90 L236.80 45.90 L241.65 45.95 L246.60 46.01 L251.45 46.01 L256.40 46.06 L261.25 46.06 L266.20 46.12 L271.05 46.18 L276.00 46.23 L280.85 46.23 L285.80 46.29 L290.65 46.34 L295.60 46.40 L300.45 46.46 L305.40 46.51 L310.25 46.57 L315.20 46.62 L320.05 46.68 L325.00 46.74 L329.85 46.79 L334.80 46.90 L339.65 46.96 L344.60 47.02 L349.45 47.13 L354.40 47.18 L359.25 47.30 L364.20 47.41 L369.05 47.52 L374.00 47.58 L378.85 47.69 L383.80 47.86 L388.65 47.97 L393.60 48.08 L398.45 48.19 L403.40 48.36 L408.25 48.53 L413.20 48.70 L418.05 48.86 L423.00 49.03 L427.85 49.20 L432.80 49.37 L437.65 49.59 L442.60 49.82 L447.45 50.04 L452.40 50.26 L457.25 50.49 L462.20 50.77 L467.05 51.05 L472.00 51.33 L476.85 51.61 L481.80 51.89 L486.65 52.22 L491.60 52.56 L496.45 52.90 L501.40 53.29 L506.25 53.68 L511.20 54.07 L516.05 54.46 L521.00 54.91 L525.85 55.36 L530.80 55.86 L535.65 56.37 L540.60 56.87 L545.45 57.38 L550.40 57.94 L555.25 58.55 L560.20 59.11 L565.05 59.73 L570.00 60.40 L574.85 61.07 L579.80 61.80 L584.65 62.53 L589.60 63.26 L594.45 64.04 L599.40 64.88 L604.25 65.72 L609.20 66.62 L614.05 67.51 L619.00 68.46 L623.85 69.42 L628.80 70.42 L633.65 71.49 L638.60 72.55 L643.45 73.67 L648.40 74.85 L653.25 76.02 L658.20 77.31 L663.05 78.54 L668.00 79.89 L672.85 81.29 L677.80 82.69 L682.65 84.14 L687.60 85.66 L692.45 87.22 L697.40 88.85 L702.25 90.47 L707.20 92.21 L712.05 93.94 L717.00 95.79 L721.85 97.64 L726.80 99.60 L731.65 101.56 L736.60 103.63 L741.45 105.70 L746.40 107.94 L751.25 110.13 L756.20 112.48 L761.05 114.83 L766.00 117.30 L770.85 119.76 L775.80 122.39 L780.65 125.02 L785.60 127.77 L790.45 130.51 L795.40 133.42 L800.25 136.39 L805.20 139.47 L810.05 142.55 L815.00 145.80 L819.85 149.05 L824.80 152.46 L829.65 155.94 L834.60 159.52 L839.45 163.10 L844.40 166.91 L849.25 170.72 L854.20 174.70 L859.05 178.73 L864.00 182.93 L868.85 187.13 L873.80 191.55 L878.65 195.98 L883.60 200.57 L888.45 205.22 L893.40 210.09 L898.25 214.96 L903.20 220.06 L908.05 225.15 L913.00 230.53 L917.85 235.90 L922.80 241.45 L927.65 247.10 L932.60 252.93 L937.45 258.81 L942.40 264.97 L947.25 271.13 L952.20 277.51 L957.05 283.95 L962.00 290.67 L966.85 297.39 L971.80 304.39 L976.65 311.45 L981.60 318.73 L986.45 326.06 L991.40 333.74 L996.25 341.41 L1001.20 349.36 L1006.05 357.37 L1011.00 365.71 L1015.85 374.06 L1020.80 382.74 L1025.65 391.42 L1030.60 400.49 L1035.45 409.50 L1040.40 418.97 L1045.25 428.38 L1050.20 438.23 L1055.05 448.03 L1060.00 458.28" fill="none" stroke="#2b8cbe" stroke-width="2" stroke-dasharray="7 5"/><path d="M80.00 605.00 L84.85 602.26 L89.80 599.46 L94.65 596.71 L99.60 593.91 L104.45 591.17 L109.40 588.37 L114.25 585.62 L119.20 582.82 L124.05 580.08 L129.00 577.28 L133.85 574.54 L138.80 571.74 L143.65 568.99 L148.60 566.19 L153.45 563.45 L158.40 560.65 L163.25 557.90 L168.20 555.10 L173.05 552.36 L178.00 549.56 L182.85 546.82 L187.80 544.02 L192.65 541.27 L197.60 538.47 L202.45 535.73 L207.40 532.93 L212.25 530.18 L217.20 527.38 L222.05 524.64 L227.00 521.84 L231.85 519.10 L236.80 516.30 L241.65 513.55 L246.60 510.75 L251.45 508.01 L256.40 505.21 L261.25 502.46 L266.20 499.66 L271.05 496.92 L276.00 494.12 L280.85 491.38 L285.80 488.58 L290.65 485.83 L295.60 483.03 L300.45 480.29 L305.40 477.49 L310.25 474.74 L315.20 471.94 L320.05 469.20 L325.00 466.40 L329.85 463.66 L334.80 460.86 L339.65 458.11 L344.60 455.31 L349.45 452.57 L354.40 449.77 L359.25 447.02 L364.20 444.22 L369.05 441.48 L374.00 438.68 L378.85 435.94 L383.80 433.14 L388.65 430.39 L393.60 427.59 L398.45 424.85 L403.40 422.05 L408.25 419.30 L413.20 416.50 L418.05 413.76 L423.00 410.96 L427.85 408.22 L432.80 405.42 L437.65 402.67 L442.60 399.87 L447.45 397.13 L452.40 394.33 L457.25 391.58 L462.20 388.78 L467.05 386.04 L472.00 383.24 L476.85 380.50 L481.80 377.70 L486.65 374.95 L491.60 372.15 L496.45 369.41 L501.40 366.61 L506.25 363.86 L511.20 361.06 L516.05 358.32 L521.00 355.52 L525.85 352.78 L530.80 349.98 L535.65 347.23 L540.60 344.43 L545.45 341.69 L550.40 338.89 L555.25 336.14 L560.20 333.34 L565.05 330.60 L570.00 327.80 L574.85 325.06 L579.80 322.26 L584.65 319.51 L589.60 316.71 L594.45 313.97 L599.40 311.17 L604.25 308.42 L609.20 305.62 L614.05 302.88 L619.00 300.08 L623.85 297.34 L628.80 294.54 L633.65 291.79 L638.60 288.99 L643.45 286.25 L648.40 283.45 L653.25 280.70 L658.20 277.90 L663.05 275.16 L668.00 272.36 L672.85 269.62 L677.80 266.82 L682.65 264.07 L687.60 261.27 L692.45 258.53 L697.40 255.73 L702.25 252.98 L707.20 250.18 L712.05 247.44 L717.00 244.64 L721.85 241.90 L726.80 239.10 L731.65 236.35 L736.60 233.55 L741.45 230.81 L746.40 228.01 L751.25 225.26 L756.20 222.46 L761.05 219.72 L766.00 216.92 L770.85 214.18 L775.80 211.38 L780.65 208.63 L785.60 205.83 L790.45 203.09 L795.40 200.29 L800.25 197.54 L805.20 194.74 L810.05 192.00 L815.00 189.20 L819.85 186.46 L824.80 183.66 L829.65 180.91 L834.60 178.11 L839.45 175.37 L844.40 172.57 L849.25 169.82 L854.20 167.02 L859.05 164.28 L864.00 161.48 L868.85 158.74 L873.80 155.94 L878.65 153.19 L883.60 150.39 L888.45 147.65 L893.40 144.85 L898.25 142.10 L903.20 139.30 L908.05 136.56 L913.00 133.76 L917.85 131.02 L922.80 128.22 L927.65 125.47 L932.60 122.67 L937.45 119.93 L942.40 117.13 L947.25 114.38 L952.20 111.58 L957.05 108.84 L962.00 106.04 L966.85 103.30 L971.80 100.50 L976.65 97.75 L981.60 94.95 L986.45 92.21 L991.40 89.41 L996.25 86.66 L1001.20 83.86 L1006.05 81.12 L1011.00 78.32 L1015.85 75.58 L1020.80 72.78 L1025.65 70.03 L1030.60 67.23 L1035.45 64.49 L1040.40 61.69 L1045.25 58.94 L1050.20 56.14 L1055.05 53.40 L1060.00 50.60" fill="none" stroke="#8795a1" stroke-width="2"/><path d="M80.00 605.00 L84.85 602.39 L89.80 599.73 L94.65 597.13 L99.60 594.47 L104.45 591.86 L109.40 589.20 L114.25 586.60 L119.20 583.94 L124.05 581.34 L129.00 578.68 L133.85 576.07 L138.80 573.42 L143.65 570.81 L148.60 568.16 L153.45 565.55 L158.40 562.90 L163.25 560.29 L168.20 557.64 L173.05 555.04 L178.00 552.38 L182.85 549.78 L187.80 547.13 L192.65 544.52 L197.60 541.87 L202.45 539.27 L207.40 536.62 L212.25 534.02 L217.20 531.36 L222.05 528.77 L227.00 526.11 L231.85 523.52 L236.80 520.86 L241.65 518.27 L246.60 515.62 L251.45 513.02 L256.40 510.37 L261.25 507.78 L266.20 505.13 L271.05 502.53 L276.00 499.89 L280.85 497.29 L285.80 494.65 L290.65 492.06 L295.60 489.41 L300.45 486.82 L305.40 484.18 L310.25 481.59 L315.20 478.96 L320.05 476.37 L325.00 473.73 L329.85 471.15 L334.80 468.52 L339.65 465.94 L344.60 463.31 L349.45 460.73 L354.40 458.10 L359.25 455.53 L364.20 452.91 L369.05 450.34 L374.00 447.72 L378.85 445.16 L383.80 442.55 L388.65 439.99 L393.60 437.38 L398.45 434.83 L403.40 432.23 L408.25 429.69 L413.20 427.09 L418.05 424.56 L423.00 421.97 L427.85 419.45 L432.80 416.87 L437.65 414.35 L442.60 411.79 L447.45 409.28 L452.40 406.73 L457.25 404.24 L462.20 401.70 L467.05 399.22 L472.00 396.69 L476.85 394.23 L481.80 391.72 L486.65 389.27 L491.60 386.77 L496.45 384.34 L501.40 381.87 L506.25 379.46 L511.20 377.00 L516.05 374.61 L521.00 372.18 L525.85 369.81 L530.80 367.41 L535.65 365.07 L540.60 362.69 L545.45 360.38 L550.40 358.03 L555.25 355.74 L560.20 353.43 L565.05 351.17 L570.00 348.89 L574.85 346.68 L579.80 344.43 L584.65 342.25 L589.60 340.05 L594.45 337.91 L599.40 335.76 L604.25 333.66 L609.20 331.55 L614.05 329.51 L619.00 327.45 L623.85 325.45 L628.80 323.45 L633.65 321.51 L638.60 319.56 L643.45 317.68 L648.40 315.80 L653.25 313.98 L658.20 312.17 L663.05 310.42 L668.00 308.68 L672.85 307.00 L677.80 305.34 L682.65 303.74 L687.60 302.16 L692.45 300.64 L697.40 299.15 L702.25 297.72 L707.20 296.32 L712.05 294.99 L717.00 293.69 L721.85 292.46 L726.80 291.26 L731.65 290.14 L736.60 289.06 L741.45 288.05 L746.40 287.08 L751.25 286.20 L756.20 285.36 L761.05 284.60 L766.00 283.89 L770.85 283.27 L775.80 282.70 L780.65 282.22 L785.60 281.81 L790.45 281.48 L795.40 281.23 L800.25 281.06 L805.20 280.97 L810.05 280.97 L815.00 281.06 L819.85 281.24 L824.80 281.52 L829.65 281.89 L834.60 282.36 L839.45 282.93 L844.40 283.61 L849.25 284.38 L854.20 285.28 L859.05 286.28 L864.00 287.41 L868.85 288.63 L873.80 290.00 L878.65 291.47 L883.60 293.10 L888.45 294.82 L893.40 296.71 L898.25 298.70 L903.20 300.87 L908.05 303.14 L913.00 305.61 L917.85 308.17 L922.80 310.95 L927.65 313.82 L932.60 316.91 L937.45 320.11 L942.40 323.54 L947.25 327.08 L952.20 330.86 L957.05 334.75 L962.00 338.91 L966.85 343.17 L971.80 347.71 L976.65 352.35 L981.60 357.30 L986.45 362.35 L991.40 367.71 L996.25 373.18 L1001.20 378.99 L1006.05 384.90 L1011.00 391.17 L1015.85 397.54 L1020.80 404.29 L1025.65 411.14 L1030.60 418.38 L1035.45 425.73 L1040.40 433.50 L1045.25 441.37 L1050.20 449.67 L1055.05 458.09 L1060.00 466.96" fill="none" stroke="#2ca25f" stroke-width="2"/><text class="small" x="420" y="666">raw sell size / hard-wall reserve</text><text class="small" transform="translate(18 430) rotate(-90)">effective payout % / output scale</text><rect x="690" y="58" width="362" height="114" rx="10" fill="#ffffff" stroke="#d8e0e8"/><line x1="708" y1="86" x2="743" y2="86" stroke="#d23f31" stroke-width="3"/><text class="legend" x="753" y="91">effective payout %</text><line x1="708" y1="108" x2="743" y2="108" stroke="#2b8cbe" stroke-width="2" stroke-dasharray="7 5"/><text class="legend" x="753" y="113">dampened / fee-adjusted raw</text><line x1="708" y1="130" x2="743" y2="130" stroke="#8795a1" stroke-width="2"/><text class="legend" x="753" y="135">raw output</text><line x1="708" y1="152" x2="743" y2="152" stroke="#2ca25f" stroke-width="2"/><text class="legend" x="753" y="157">actual payout</text></svg>