<svg xmlns="http://www.w3.org/2000/svg" width="1100" height="680" viewBox="0 0 1100 680"><style>.bg{fill:#fbfdff}.grid{stroke:#d8e0e8;stroke-width:1}.axis{stroke:#4a5568;stroke-width:1.5}.small{font:14px sans-serif;fill:#334155}.legend{font:15px sans-serif;fill:#1f2937}</style><rect class="bg" width="1100" height="680"/><text x="80" y="30" class="legend">Prop AMM Hard-Wall Curve</text><text x="80" y="50" class="small">X: raw sell size as % of hard-wall reserve. Fullness 100.00%. linear_weight_bps=100, base_exponent=3.</text><line class="grid" x1="80" y1="605" x2="1060" y2="605"/><text class="small" x="28" y="609">0%</text><line class="grid" x1="80" y1="465" x2="1060" y2="465"/><text class="small" x="28" y="469">25%</text><line class="grid" x1="80" y1="325" x2="1060" y2="325"/><text class="small" x="28" y="329">50%</text><line class="grid" x1="80" y1="185" x2="1060" y2="185"/><text class="small" x="28" y="189">75%</text><line class="grid" x1="80" y1="45" x2="1060" y2="45"/><text class="small" x="28" y="49">100%</text><line class="grid" x1="80" y1="45" x2="80" y2="605"/><text class="small" x="68" y="632">0%</text><line class="grid" x1="327.47474747474746" y1="45" x2="327.47474747474746" y2="605"/><text class="small" x="315.47474747474746" y="632">25%</text><line class="grid" x1="574.9494949494949" y1="45" x2="574.9494949494949" y2="605"/><text class="small" x="562.9494949494949" y="632">50%</text><line class="grid" x1="822.4242424242424" y1="45" x2="822.4242424242424" y2="605"/><text class="small" x="810.4242424242424" y="632">75%</text><line class="grid" x1="1060" y1="45" x2="1060" y2="605"/><text class="small" x="1048" y="632">99%</text><line class="axis" x1="80" y1="605" x2="1060" y2="605"/><line class="axis" x1="80" y1="45" x2="80" y2="605"/><path d="M80.00 605.00 L84.85 73.03 L89.80 73.05 L94.65 73.08 L99.60 73.10 L104.45 73.13 L109.40 73.16 L114.25 73.19 L119.20 73.23 L124.05 73.27 L129.00 73.31 L133.85 73.35 L138.80 73.40 L143.65 73.45 L148.60 73.50 L153.45 73.56 L158.40 73.63 L163.25 73.69 L168.20 73.77 L173.05 73.85 L178.00 73.94 L182.85 74.03 L187.80 74.13 L192.65 74.24 L197.60 74.36 L202.45 74.48 L207.40 74.61 L212.25 74.75 L217.20 74.90 L222.05 75.06 L227.00 75.23 L231.85 75.41 L236.80 75.60 L241.65 75.79 L246.60 76.00 L251.45 76.22 L256.40 76.46 L261.25 76.70 L266.20 76.96 L271.05 77.22 L276.00 77.51 L280.85 77.80 L285.80 78.11 L290.65 78.43 L295.60 78.77 L300.45 79.11 L305.40 79.48 L310.25 79.86 L315.20 80.26 L320.05 80.67 L325.00 81.10 L329.85 81.54 L334.80 82.00 L339.65 82.47 L344.60 82.98 L349.45 83.48 L354.40 84.02 L359.25 84.56 L364.20 85.14 L369.05 85.72 L374.00 86.33 L378.85 86.95 L383.80 87.60 L388.65 88.26 L393.60 88.96 L398.45 89.66 L403.40 90.40 L408.25 91.14 L413.20 91.92 L418.05 92.71 L423.00 93.54 L427.85 94.37 L432.80 95.24 L437.65 96.12 L442.60 97.04 L447.45 97.97 L452.40 98.94 L457.25 99.92 L462.20 100.94 L467.05 101.97 L472.00 103.04 L476.85 104.12 L481.80 105.25 L486.65 106.38 L491.60 107.56 L496.45 108.75 L501.40 109.99 L506.25 111.23 L511.20 112.52 L516.05 113.82 L521.00 115.18 L525.85 116.53 L530.80 117.95 L535.65 119.37 L540.60 120.84 L545.45 122.32 L550.40 123.86 L555.25 125.40 L560.20 127.00 L565.05 128.60 L570.00 130.27 L574.85 131.94 L579.80 133.67 L584.65 135.41 L589.60 137.21 L594.45 139.01 L599.40 140.88 L604.25 142.75 L609.20 144.69 L614.05 146.63 L619.00 148.65 L623.85 150.66 L628.80 152.75 L633.65 154.83 L638.60 156.99 L643.45 159.15 L648.40 161.39 L653.25 163.62 L658.20 165.94 L663.05 168.25 L668.00 170.64 L672.85 173.03 L677.80 175.50 L682.65 177.97 L687.60 180.53 L692.45 183.07 L697.40 185.71 L702.25 188.34 L707.20 191.06 L712.05 193.77 L717.00 196.58 L721.85 199.37 L726.80 202.27 L731.65 205.15 L736.60 208.13 L741.45 211.10 L746.40 214.17 L751.25 217.23 L756.20 220.39 L761.05 223.53 L766.00 226.79 L770.85 230.02 L775.80 233.37 L780.65 236.70 L785.60 240.14 L790.45 243.56 L795.40 247.10 L800.25 250.62 L805.20 254.25 L810.05 257.86 L815.00 261.60 L819.85 265.31 L824.80 269.14 L829.65 272.95 L834.60 276.88 L839.45 280.79 L844.40 284.83 L849.25 288.84 L854.20 292.98 L859.05 297.09 L864.00 301.34 L868.85 305.55 L873.80 309.90 L878.65 314.22 L883.60 318.68 L888.45 323.11 L893.40 327.68 L898.25 332.22 L903.20 336.90 L908.05 341.54 L913.00 346.33 L917.85 351.08 L922.80 355.99 L927.65 360.86 L932.60 365.88 L937.45 370.85 L942.40 375.99 L947.25 381.08 L952.20 386.34 L957.05 391.54 L962.00 396.91 L966.85 402.24 L971.80 407.73 L976.65 413.17 L981.60 418.79 L986.45 424.35 L991.40 430.08 L996.25 435.76 L1001.20 441.62 L1006.05 447.43 L1011.00 453.41 L1015.85 459.34 L1020.80 465.45 L1025.65 471.50 L1030.60 477.74 L1035.45 483.92 L1040.40 490.29 L1045.25 496.59 L1050.20 503.09 L1055.05 509.52 L1060.00 516.15" fill="none" stroke="#d23f31" stroke-width="3"/><path d="M80.00 605.00 L84.85 45.06 L89.80 45.06 L94.65 45.11 L99.60 45.11 L104.45 45.17 L109.40 45.22 L114.25 45.22 L119.20 45.28 L124.05 45.28 L129.00 45.34 L133.85 45.39 L138.80 45.45 L143.65 45.50 L148.60 45.56 L153.45 45.62 L158.40 45.67 L163.25 45.78 L168.20 45.84 L173.05 45.90 L178.00 46.01 L182.85 46.12 L187.80 46.23 L192.65 46.34 L197.60 46.46 L202.45 46.57 L207.40 46.74 L212.25 46.85 L217.20 47.02 L222.05 47.18 L227.00 47.35 L231.85 47.58 L236.80 47.74 L241.65 47.97 L246.60 48.19 L251.45 48.42 L256.40 48.64 L261.25 48.92 L266.20 49.20 L271.05 49.48 L276.00 49.76 L280.85 50.10 L285.80 50.43 L290.65 50.77 L295.60 51.10 L300.45 51.44 L305.40 51.83 L310.25 52.22 L315.20 52.67 L320.05 53.12 L325.00 53.57 L329.85 54.02 L334.80 54.52 L339.65 55.02 L344.60 55.53 L349.45 56.09 L354.40 56.65 L359.25 57.21 L364.20 57.82 L369.05 58.44 L374.00 59.06 L378.85 59.73 L383.80 60.40 L388.65 61.07 L393.60 61.80 L398.45 62.58 L403.40 63.37 L408.25 64.10 L413.20 64.94 L418.05 65.78 L423.00 66.67 L427.85 67.51 L432.80 68.46 L437.65 69.36 L442.60 70.31 L447.45 71.32 L452.40 72.33 L457.25 73.39 L462.20 74.46 L467.05 75.52 L472.00 76.64 L476.85 77.76 L481.80 78.99 L486.65 80.17 L491.60 81.40 L496.45 82.63 L501.40 83.98 L506.25 85.26 L511.20 86.61 L516.05 88.01 L521.00 89.41 L525.85 90.86 L530.80 92.32 L535.65 93.83 L540.60 95.40 L545.45 96.97 L550.40 98.54 L555.25 100.16 L560.20 101.90 L565.05 103.58 L570.00 105.31 L574.85 107.05 L579.80 108.90 L584.65 110.74 L589.60 112.59 L594.45 114.50 L599.40 116.46 L604.25 118.47 L609.20 120.49 L614.05 122.56 L619.00 124.63 L623.85 126.76 L628.80 129.00 L633.65 131.18 L638.60 133.42 L643.45 135.72 L648.40 138.07 L653.25 140.42 L658.20 142.83 L663.05 145.30 L668.00 147.82 L672.85 150.34 L677.80 152.91 L682.65 155.54 L687.60 158.23 L692.45 160.92 L697.40 163.66 L702.25 166.46 L707.20 169.32 L712.05 172.18 L717.00 175.09 L721.85 178.06 L726.80 181.08 L731.65 184.16 L736.60 187.30 L741.45 190.38 L746.40 193.62 L751.25 196.87 L756.20 200.18 L761.05 203.48 L766.00 206.90 L770.85 210.31 L775.80 213.84 L780.65 217.37 L785.60 220.95 L790.45 224.59 L795.40 228.29 L800.25 231.98 L805.20 235.79 L810.05 239.60 L815.00 243.58 L819.85 247.44 L824.80 251.47 L829.65 255.50 L834.60 259.65 L839.45 263.74 L844.40 267.99 L849.25 272.25 L854.20 276.56 L859.05 280.93 L864.00 285.41 L868.85 289.83 L873.80 294.42 L878.65 298.96 L883.60 303.66 L888.45 308.31 L893.40 313.13 L898.25 317.89 L903.20 322.82 L908.05 327.69 L913.00 332.73 L917.85 337.77 L922.80 342.92 L927.65 348.02 L932.60 353.34 L937.45 358.54 L942.40 363.98 L947.25 369.35 L952.20 374.84 L957.05 380.33 L962.00 385.98 L966.85 391.58 L971.80 397.35 L976.65 403.12 L981.60 409.00 L986.45 414.88 L991.40 420.93 L996.25 426.86 L1001.20 433.08 L1006.05 439.18 L1011.00 445.46 L1015.85 451.73 L1020.80 458.11 L1025.65 464.50 L1030.60 471.05 L1035.45 477.60 L1040.40 484.26 L1045.25 490.93 L1050.20 497.76 L1055.05 504.54 L1060.00 511.48" fill="none" stroke="#2b8cbe" stroke-width="2" stroke-dasharray="7 5"/><path d="M80.00 605.00 L84.85 602.26 L89.80 599.46 L94.65 596.71 L99.60 593.91 L104.45 591.17 L109.40 588.37 L114.25 585.62 L119.20 582.82 L124.05 580.08 L129.00 577.28 L133.85 574.54 L138.80 571.74 L143.65 568.99 L148.60 566.19 L153.45 563.45 L158.40 560.65 L163.25 557.90 L168.20 555.10 L173.05 552.36 L178.00 549.56 L182.85 546.82 L187.80 544.02 L192.65 541.27 L197.60 538.47 L202.45 535.73 L207.40 532.93 L212.25 530.18 L217.20 527.38 L222.05 524.64 L227.00 521.84 L231.85 519.10 L236.80 516.30 L241.65 513.55 L246.60 510.75 L251.45 508.01 L256.40 505.21 L261.25 502.46 L266.20 499.66 L271.05 496.92 L276.00 494.12 L280.85 491.38 L285.80 488.58 L290.65 485.83 L295.60 483.03 L300.45 480.29 L305.40 477.49 L310.25 474.74 L315.20 471.94 L320.05 469.20 L325.00 466.40 L329.85 463.66 L334.80 460.86 L339.65 458.11 L344.60 455.31 L349.45 452.57 L354.40 449.77 L359.25 447.02 L364.20 444.22 L369.05 441.48 L374.00 438.68 L378.85 435.94 L383.80 433.14 L388.65 430.39 L393.60 427.59 L398.45 424.85 L403.40 422.05 L408.25 419.30 L413.20 416.50 L418.05 413.76 L423.00 410.96 L427.85 408.22 L432.80 405.42 L437.65 402.67 L442.60 399.87 L447.45 397.13 L452.40 394.33 L457.25 391.58 L462.20 388.78 L467.05 386.04 L472.00 383.24 L476.85 380.50 L481.80 377.70 L486.65 374.95 L491.60 372.15 L496.45 369.41 L501.40 366.61 L506.25 363.86 L511.20 361.06 L516.05 358.32 L521.00 355.52 L525.85 352.78 L530.80 349.98 L535.65 347.23 L540.60 344.43 L545.45 341.69 L550.40 338.89 L555.25 336.14 L560.20 333.34 L565.05 330.60 L570.00 327.80 L574.85 325.06 L579.80 322.26 L584.65 319.51 L589.60 316.71 L594.45 313.97 L599.40 311.17 L604.25 308.42 L609.20 305.62 L614.05 302.88 L619.00 300.08 L623.85 297.34 L628.80 294.54 L633.65 291.79 L638.60 288.99 L643.45 286.25 L648.40 283.45 L653.25 280.70 L658.20 277.90 L663.05 275.16 L668.00 272.36 L672.85 269.62 L677.80 266.82 L682.65 264.07 L687.60 261.27 L692.45 258.53 L697.40 255.73 L702.25 252.98 L707.20 250.18 L712.05 247.44 L717.00 244.64 L721.85 241.90 L726.80 239.10 L731.65 236.35 L736.60 233.55 L741.45 230.81 L746.40 228.01 L751.25 225.26 L756.20 222.46 L761.05 219.72 L766.00 216.92 L770.85 214.18 L775.80 211.38 L780.65 208.63 L785.60 205.83 L790.45 203.09 L795.40 200.29 L800.25 197.54 L805.20 194.74 L810.05 192.00 L815.00 189.20 L819.85 186.46 L824.80 183.66 L829.65 180.91 L834.60 178.11 L839.45 175.37 L844.40 172.57 L849.25 169.82 L854.20 167.02 L859.05 164.28 L864.00 161.48 L868.85 158.74 L873.80 155.94 L878.65 153.19 L883.60 150.39 L888.45 147.65 L893.40 144.85 L898.25 142.10 L903.20 139.30 L908.05 136.56 L913.00 133.76 L917.85 131.02 L922.80 128.22 L927.65 125.47 L932.60 122.67 L937.45 119.93 L942.40 117.13 L947.25 114.38 L952.20 111.58 L957.05 108.84 L962.00 106.04 L966.85 103.30 L971.80 100.50 L976.65 97.75 L981.60 94.95 L986.45 92.21 L991.40 89.41 L996.25 86.66 L1001.20 83.86 L1006.05 81.12 L1011.00 78.32 L1015.85 75.58 L1020.80 72.78 L1025.65 70.03 L1030.60 67.23 L1035.45 64.49 L1040.40 61.69 L1045.25 58.94 L1050.20 56.14 L1055.05 53.40 L1060.00 50.60" fill="none" stroke="#8795a1" stroke-width="2"/><path d="M80.00 605.00 L84.85 602.39 L89.80 599.73 L94.65 597.13 L99.60 594.47 L104.45 591.86 L109.40 589.20 L114.25 586.60 L119.20 583.94 L124.05 581.34 L129.00 578.68 L133.85 576.08 L138.80 573.42 L143.65 570.82 L148.60 568.17 L153.45 565.57 L158.40 562.92 L163.25 560.32 L168.20 557.67 L173.05 555.07 L178.00 552.42 L182.85 549.83 L187.80 547.19 L192.65 544.60 L197.60 541.96 L202.45 539.37 L207.40 536.74 L212.25 534.16 L217.20 531.53 L222.05 528.95 L227.00 526.33 L231.85 523.76 L236.80 521.14 L241.65 518.58 L246.60 515.97 L251.45 513.42 L256.40 510.81 L261.25 508.27 L266.20 505.67 L271.05 503.14 L276.00 500.56 L280.85 498.03 L285.80 495.46 L290.65 492.95 L295.60 490.39 L300.45 487.88 L305.40 485.34 L310.25 482.85 L315.20 480.32 L320.05 477.85 L325.00 475.33 L329.85 472.88 L334.80 470.38 L339.65 467.94 L344.60 465.46 L349.45 463.04 L354.40 460.58 L359.25 458.18 L364.20 455.75 L369.05 453.37 L374.00 450.96 L378.85 448.60 L383.80 446.21 L388.65 443.88 L393.60 441.52 L398.45 439.22 L403.40 436.88 L408.25 434.60 L413.20 432.30 L418.05 430.05 L423.00 427.78 L427.85 425.56 L432.80 423.32 L437.65 421.14 L442.60 418.94 L447.45 416.79 L452.40 414.62 L457.25 412.51 L462.20 410.38 L467.05 408.31 L472.00 406.23 L476.85 404.20 L481.80 402.15 L486.65 400.17 L491.60 398.17 L496.45 396.23 L501.40 394.27 L506.25 392.38 L511.20 390.48 L516.05 388.64 L521.00 386.78 L525.85 385.00 L530.80 383.20 L535.65 381.46 L540.60 379.72 L545.45 378.04 L550.40 376.36 L555.25 374.74 L560.20 373.12 L565.05 371.57 L570.00 370.01 L574.85 368.52 L579.80 367.03 L584.65 365.60 L589.60 364.18 L594.45 362.83 L599.40 361.48 L604.25 360.19 L609.20 358.92 L614.05 357.71 L619.00 356.52 L623.85 355.39 L628.80 354.27 L633.65 353.22 L638.60 352.19 L643.45 351.22 L648.40 350.28 L653.25 349.40 L658.20 348.54 L663.05 347.75 L668.00 346.99 L672.85 346.29 L677.80 345.63 L682.65 345.02 L687.60 344.46 L692.45 343.95 L697.40 343.49 L702.25 343.09 L707.20 342.73 L712.05 342.43 L717.00 342.18 L721.85 341.99 L726.80 341.86 L731.65 341.78 L736.60 341.76 L741.45 341.80 L746.40 341.89 L751.25 342.05 L756.20 342.27 L761.05 342.55 L766.00 342.90 L770.85 343.30 L775.80 343.78 L780.65 344.32 L785.60 344.93 L790.45 345.60 L795.40 346.35 L800.25 347.15 L805.20 348.04 L810.05 348.99 L815.00 350.02 L819.85 351.11 L824.80 352.30 L829.65 353.54 L834.60 354.88 L839.45 356.27 L844.40 357.76 L849.25 359.31 L854.20 360.97 L859.05 362.67 L864.00 364.50 L868.85 366.37 L873.80 368.36 L878.65 370.40 L883.60 372.57 L888.45 374.78 L893.40 377.13 L898.25 379.52 L903.20 382.05 L908.05 384.61 L913.00 387.33 L917.85 390.09 L922.80 392.99 L927.65 395.94 L932.60 399.04 L937.45 402.18 L942.40 405.49 L947.25 408.83 L952.20 412.33 L957.05 415.88 L962.00 419.60 L966.85 423.35 L971.80 427.28 L976.65 431.24 L981.60 435.40 L986.45 439.58 L991.40 443.95 L996.25 448.36 L1001.20 452.96 L1006.05 457.59 L1011.00 462.43 L1015.85 467.29 L1020.80 472.37 L1025.65 477.47 L1030.60 482.79 L1035.45 488.13 L1040.40 493.71 L1045.25 499.29 L1050.20 505.12 L1055.05 510.96 L1060.00 517.04" fill="none" stroke="#2ca25f" stroke-width="2"/><text class="small" x="420" y="666">raw sell size / hard-wall reserve</text><text class="small" transform="translate(18 430) rotate(-90)">effective payout % / output scale</text><rect x="690" y="58" width="362" height="114" rx="10" fill="#ffffff" stroke="#d8e0e8"/><line x1="708" y1="86" x2="743" y2="86" stroke="#d23f31" stroke-width="3"/><text class="legend" x="753" y="91">effective payout %</text><line x1="708" y1="108" x2="743" y2="108" stroke="#2b8cbe" stroke-width="2" stroke-dasharray="7 5"/><text class="legend" x="753" y="113">dampened / fee-adjusted raw</text><line x1="708" y1="130" x2="743" y2="130" stroke="#8795a1" stroke-width="2"/><text class="legend" x="753" y="135">raw output</text><line x1="708" y1="152" x2="743" y2="152" stroke="#2ca25f" stroke-width="2"/><text class="legend" x="753" y="157">actual payout</text></svg>