<svg xmlns="http://www.w3.org/2000/svg" width="1100" height="680" viewBox="0 0 1100 680"><style>.bg{fill:#fbfdff}.grid{stroke:#d8e0e8;stroke-width:1}.axis{stroke:#4a5568;stroke-width:1.5}.small{font:14px sans-serif;fill:#334155}.legend{font:15px sans-serif;fill:#1f2937}</style><rect class="bg" width="1100" height="680"/><text x="80" y="30" class="legend">Prop AMM Hard-Wall Curve</text><text x="80" y="50" class="small">X: raw sell size as % of hard-wall reserve. Fullness 100.00%. linear_weight_bps=500, base_exponent=3.</text><line class="grid" x1="80" y1="605" x2="1060" y2="605"/><text class="small" x="28" y="609">0%</text><line class="grid" x1="80" y1="465" x2="1060" y2="465"/><text class="small" x="28" y="469">25%</text><line class="grid" x1="80" y1="325" x2="1060" y2="325"/><text class="small" x="28" y="329">50%</text><line class="grid" x1="80" y1="185" x2="1060" y2="185"/><text class="small" x="28" y="189">75%</text><line class="grid" x1="80" y1="45" x2="1060" y2="45"/><text class="small" x="28" y="49">100%</text><line class="grid" x1="80" y1="45" x2="80" y2="605"/><text class="small" x="68" y="632">0%</text><line class="grid" x1="327.47474747474746" y1="45" x2="327.47474747474746" y2="605"/><text class="small" x="315.47474747474746" y="632">25%</text><line class="grid" x1="574.9494949494949" y1="45" x2="574.9494949494949" y2="605"/><text class="small" x="562.9494949494949" y="632">50%</text><line class="grid" x1="822.4242424242424" y1="45" x2="822.4242424242424" y2="605"/><text class="small" x="810.4242424242424" y="632">75%</text><line class="grid" x1="1060" y1="45" x2="1060" y2="605"/><text class="small" x="1048" y="632">99%</text><line class="axis" x1="80" y1="605" x2="1060" y2="605"/><line class="axis" x1="80" y1="45" x2="80" y2="605"/><path d="M80.00 605.00 L84.85 73.13 L89.80 73.25 L94.65 73.38 L99.60 73.51 L104.45 73.63 L109.40 73.76 L114.25 73.89 L119.20 74.03 L124.05 74.16 L129.00 74.30 L133.85 74.45 L138.80 74.59 L143.65 74.74 L148.60 74.90 L153.45 75.05 L158.40 75.22 L163.25 75.38 L168.20 75.56 L173.05 75.74 L178.00 75.92 L182.85 76.11 L187.80 76.31 L192.65 76.51 L197.60 76.73 L202.45 76.95 L207.40 77.18 L212.25 77.41 L217.20 77.66 L222.05 77.91 L227.00 78.17 L231.85 78.44 L236.80 78.73 L241.65 79.01 L246.60 79.32 L251.45 79.63 L256.40 79.96 L261.25 80.29 L266.20 80.64 L271.05 80.99 L276.00 81.37 L280.85 81.75 L285.80 82.15 L290.65 82.55 L295.60 82.98 L300.45 83.41 L305.40 83.87 L310.25 84.33 L315.20 84.82 L320.05 85.31 L325.00 85.82 L329.85 86.35 L334.80 86.89 L339.65 87.45 L344.60 88.03 L349.45 88.62 L354.40 89.23 L359.25 89.86 L364.20 90.51 L369.05 91.17 L374.00 91.86 L378.85 92.55 L383.80 93.28 L388.65 94.01 L393.60 94.78 L398.45 95.56 L403.40 96.37 L408.25 97.18 L413.20 98.03 L418.05 98.89 L423.00 99.78 L427.85 100.68 L432.80 101.62 L437.65 102.57 L442.60 103.55 L447.45 104.54 L452.40 105.58 L457.25 106.61 L462.20 107.70 L467.05 108.78 L472.00 109.92 L476.85 111.05 L481.80 112.23 L486.65 113.42 L491.60 114.66 L496.45 115.90 L501.40 117.19 L506.25 118.48 L511.20 119.82 L516.05 121.17 L521.00 122.57 L525.85 123.97 L530.80 125.43 L535.65 126.89 L540.60 128.41 L545.45 129.93 L550.40 131.51 L555.25 133.08 L560.20 134.72 L565.05 136.36 L570.00 138.06 L574.85 139.76 L579.80 141.53 L584.65 143.30 L589.60 145.13 L594.45 146.96 L599.40 148.85 L604.25 150.75 L609.20 152.71 L614.05 154.68 L619.00 156.71 L623.85 158.74 L628.80 160.85 L633.65 162.95 L638.60 165.12 L643.45 167.29 L648.40 169.54 L653.25 171.79 L658.20 174.11 L663.05 176.43 L668.00 178.83 L672.85 181.22 L677.80 183.69 L682.65 186.16 L687.60 188.72 L692.45 191.26 L697.40 193.89 L702.25 196.51 L707.20 199.23 L712.05 201.93 L717.00 204.73 L721.85 207.51 L726.80 210.39 L731.65 213.25 L736.60 216.22 L741.45 219.16 L746.40 222.21 L751.25 225.25 L756.20 228.38 L761.05 231.50 L766.00 234.73 L770.85 237.93 L775.80 241.25 L780.65 244.54 L785.60 247.94 L790.45 251.33 L795.40 254.82 L800.25 258.30 L805.20 261.89 L810.05 265.45 L815.00 269.14 L819.85 272.80 L824.80 276.58 L829.65 280.33 L834.60 284.21 L839.45 288.06 L844.40 292.04 L849.25 295.98 L854.20 300.06 L859.05 304.11 L864.00 308.28 L868.85 312.43 L873.80 316.71 L878.65 320.95 L883.60 325.34 L888.45 329.68 L893.40 334.17 L898.25 338.62 L903.20 343.22 L908.05 347.77 L913.00 352.47 L917.85 357.13 L922.80 361.94 L927.65 366.71 L932.60 371.63 L937.45 376.51 L942.40 381.54 L947.25 386.52 L952.20 391.67 L957.05 396.76 L962.00 402.02 L966.85 407.23 L971.80 412.60 L976.65 417.92 L981.60 423.41 L986.45 428.85 L991.40 434.46 L996.25 440.01 L1001.20 445.73 L1006.05 451.40 L1011.00 457.25 L1015.85 463.04 L1020.80 469.00 L1025.65 474.91 L1030.60 481.00 L1035.45 487.03 L1040.40 493.24 L1045.25 499.39 L1050.20 505.73 L1055.05 512.00 L1060.00 518.46" fill="none" stroke="#d23f31" stroke-width="3"/><path d="M80.00 605.00 L84.85 45.17 L89.80 45.28 L94.65 45.45 L99.60 45.56 L104.45 45.67 L109.40 45.84 L114.25 45.95 L119.20 46.12 L124.05 46.23 L129.00 46.40 L133.85 46.57 L138.80 46.68 L143.65 46.85 L148.60 47.02 L153.45 47.18 L158.40 47.35 L163.25 47.52 L168.20 47.74 L173.05 47.91 L178.00 48.08 L182.85 48.30 L187.80 48.53 L192.65 48.75 L197.60 48.98 L202.45 49.20 L207.40 49.42 L212.25 49.65 L217.20 49.93 L222.05 50.21 L227.00 50.49 L231.85 50.77 L236.80 51.05 L241.65 51.38 L246.60 51.66 L251.45 52.00 L256.40 52.34 L261.25 52.67 L266.20 53.06 L271.05 53.46 L276.00 53.85 L280.85 54.24 L285.80 54.63 L290.65 55.08 L295.60 55.53 L300.45 55.98 L305.40 56.48 L310.25 56.93 L315.20 57.49 L320.05 57.99 L325.00 58.55 L329.85 59.06 L334.80 59.67 L339.65 60.23 L344.60 60.85 L349.45 61.46 L354.40 62.14 L359.25 62.75 L364.20 63.48 L369.05 64.15 L374.00 64.88 L378.85 65.61 L383.80 66.39 L388.65 67.18 L393.60 67.96 L398.45 68.74 L403.40 69.64 L408.25 70.48 L413.20 71.38 L418.05 72.27 L423.00 73.22 L427.85 74.18 L432.80 75.18 L437.65 76.14 L442.60 77.20 L447.45 78.21 L452.40 79.33 L457.25 80.39 L462.20 81.57 L467.05 82.69 L472.00 83.86 L476.85 85.10 L481.80 86.33 L486.65 87.56 L491.60 88.90 L496.45 90.19 L501.40 91.54 L506.25 92.88 L511.20 94.34 L516.05 95.74 L521.00 97.19 L525.85 98.70 L530.80 100.22 L535.65 101.78 L540.60 103.35 L545.45 104.98 L550.40 106.60 L555.25 108.28 L560.20 110.02 L565.05 111.75 L570.00 113.54 L574.85 115.28 L579.80 117.18 L584.65 119.03 L589.60 120.94 L594.45 122.90 L599.40 124.86 L604.25 126.87 L609.20 128.94 L614.05 131.02 L619.00 133.14 L623.85 135.27 L628.80 137.51 L633.65 139.70 L638.60 141.99 L643.45 144.29 L648.40 146.64 L653.25 148.99 L658.20 151.46 L663.05 153.92 L668.00 156.44 L672.85 158.96 L677.80 161.54 L682.65 164.17 L687.60 166.86 L692.45 169.49 L697.40 172.29 L702.25 175.03 L707.20 177.89 L712.05 180.74 L717.00 183.71 L721.85 186.62 L726.80 189.65 L731.65 192.67 L736.60 195.81 L741.45 198.89 L746.40 202.08 L751.25 205.27 L756.20 208.58 L761.05 211.88 L766.00 215.24 L770.85 218.66 L775.80 222.13 L780.65 225.60 L785.60 229.18 L790.45 232.71 L795.40 236.41 L800.25 240.10 L805.20 243.86 L810.05 247.61 L815.00 251.47 L819.85 255.34 L824.80 259.31 L829.65 263.29 L834.60 267.38 L839.45 271.41 L844.40 275.61 L849.25 279.75 L854.20 284.06 L859.05 288.32 L864.00 292.69 L868.85 297.06 L873.80 301.54 L878.65 306.02 L883.60 310.66 L888.45 315.20 L893.40 319.96 L898.25 324.61 L903.20 329.48 L908.05 334.24 L913.00 339.22 L917.85 344.10 L922.80 349.19 L927.65 354.18 L932.60 359.38 L937.45 364.54 L942.40 369.80 L947.25 375.06 L952.20 380.44 L957.05 385.82 L962.00 391.36 L966.85 396.85 L971.80 402.50 L976.65 408.10 L981.60 413.87 L986.45 419.58 L991.40 425.52 L996.25 431.34 L1001.20 437.39 L1006.05 443.33 L1011.00 449.49 L1015.85 455.59 L1020.80 461.86 L1025.65 468.08 L1030.60 474.52 L1035.45 480.85 L1040.40 487.40 L1045.25 493.84 L1050.20 500.50 L1055.05 507.11 L1060.00 513.94" fill="none" stroke="#2b8cbe" stroke-width="2" stroke-dasharray="7 5"/><path d="M80.00 605.00 L84.85 602.26 L89.80 599.46 L94.65 596.71 L99.60 593.91 L104.45 591.17 L109.40 588.37 L114.25 585.62 L119.20 582.82 L124.05 580.08 L129.00 577.28 L133.85 574.54 L138.80 571.74 L143.65 568.99 L148.60 566.19 L153.45 563.45 L158.40 560.65 L163.25 557.90 L168.20 555.10 L173.05 552.36 L178.00 549.56 L182.85 546.82 L187.80 544.02 L192.65 541.27 L197.60 538.47 L202.45 535.73 L207.40 532.93 L212.25 530.18 L217.20 527.38 L222.05 524.64 L227.00 521.84 L231.85 519.10 L236.80 516.30 L241.65 513.55 L246.60 510.75 L251.45 508.01 L256.40 505.21 L261.25 502.46 L266.20 499.66 L271.05 496.92 L276.00 494.12 L280.85 491.38 L285.80 488.58 L290.65 485.83 L295.60 483.03 L300.45 480.29 L305.40 477.49 L310.25 474.74 L315.20 471.94 L320.05 469.20 L325.00 466.40 L329.85 463.66 L334.80 460.86 L339.65 458.11 L344.60 455.31 L349.45 452.57 L354.40 449.77 L359.25 447.02 L364.20 444.22 L369.05 441.48 L374.00 438.68 L378.85 435.94 L383.80 433.14 L388.65 430.39 L393.60 427.59 L398.45 424.85 L403.40 422.05 L408.25 419.30 L413.20 416.50 L418.05 413.76 L423.00 410.96 L427.85 408.22 L432.80 405.42 L437.65 402.67 L442.60 399.87 L447.45 397.13 L452.40 394.33 L457.25 391.58 L462.20 388.78 L467.05 386.04 L472.00 383.24 L476.85 380.50 L481.80 377.70 L486.65 374.95 L491.60 372.15 L496.45 369.41 L501.40 366.61 L506.25 363.86 L511.20 361.06 L516.05 358.32 L521.00 355.52 L525.85 352.78 L530.80 349.98 L535.65 347.23 L540.60 344.43 L545.45 341.69 L550.40 338.89 L555.25 336.14 L560.20 333.34 L565.05 330.60 L570.00 327.80 L574.85 325.06 L579.80 322.26 L584.65 319.51 L589.60 316.71 L594.45 313.97 L599.40 311.17 L604.25 308.42 L609.20 305.62 L614.05 302.88 L619.00 300.08 L623.85 297.34 L628.80 294.54 L633.65 291.79 L638.60 288.99 L643.45 286.25 L648.40 283.45 L653.25 280.70 L658.20 277.90 L663.05 275.16 L668.00 272.36 L672.85 269.62 L677.80 266.82 L682.65 264.07 L687.60 261.27 L692.45 258.53 L697.40 255.73 L702.25 252.98 L707.20 250.18 L712.05 247.44 L717.00 244.64 L721.85 241.90 L726.80 239.10 L731.65 236.35 L736.60 233.55 L741.45 230.81 L746.40 228.01 L751.25 225.26 L756.20 222.46 L761.05 219.72 L766.00 216.92 L770.85 214.18 L775.80 211.38 L780.65 208.63 L785.60 205.83 L790.45 203.09 L795.40 200.29 L800.25 197.54 L805.20 194.74 L810.05 192.00 L815.00 189.20 L819.85 186.46 L824.80 183.66 L829.65 180.91 L834.60 178.11 L839.45 175.37 L844.40 172.57 L849.25 169.82 L854.20 167.02 L859.05 164.28 L864.00 161.48 L868.85 158.74 L873.80 155.94 L878.65 153.19 L883.60 150.39 L888.45 147.65 L893.40 144.85 L898.25 142.10 L903.20 139.30 L908.05 136.56 L913.00 133.76 L917.85 131.02 L922.80 128.22 L927.65 125.47 L932.60 122.67 L937.45 119.93 L942.40 117.13 L947.25 114.38 L952.20 111.58 L957.05 108.84 L962.00 106.04 L966.85 103.30 L971.80 100.50 L976.65 97.75 L981.60 94.95 L986.45 92.21 L991.40 89.41 L996.25 86.66 L1001.20 83.86 L1006.05 81.12 L1011.00 78.32 L1015.85 75.58 L1020.80 72.78 L1025.65 70.03 L1030.60 67.23 L1035.45 64.49 L1040.40 61.69 L1045.25 58.94 L1050.20 56.14 L1055.05 53.40 L1060.00 50.60" fill="none" stroke="#8795a1" stroke-width="2"/><path d="M80.00 605.00 L84.85 602.39 L89.80 599.74 L94.65 597.13 L99.60 594.48 L104.45 591.88 L109.40 589.22 L114.25 586.62 L119.20 583.97 L124.05 581.38 L129.00 578.73 L133.85 576.14 L138.80 573.49 L143.65 570.90 L148.60 568.26 L153.45 565.68 L158.40 563.04 L163.25 560.46 L168.20 557.83 L173.05 555.25 L178.00 552.62 L182.85 550.05 L187.80 547.43 L192.65 544.86 L197.60 542.24 L202.45 539.68 L207.40 537.07 L212.25 534.51 L217.20 531.91 L222.05 529.36 L227.00 526.77 L231.85 524.23 L236.80 521.64 L241.65 519.11 L246.60 516.53 L251.45 514.01 L256.40 511.44 L261.25 508.93 L266.20 506.37 L271.05 503.87 L276.00 501.32 L280.85 498.83 L285.80 496.30 L290.65 493.82 L295.60 491.30 L300.45 488.84 L305.40 486.34 L310.25 483.89 L315.20 481.40 L320.05 478.97 L325.00 476.50 L329.85 474.09 L334.80 471.64 L339.65 469.25 L344.60 466.81 L349.45 464.44 L354.40 462.03 L359.25 459.68 L364.20 457.29 L369.05 454.96 L374.00 452.60 L378.85 450.29 L383.80 447.95 L388.65 445.67 L393.60 443.36 L398.45 441.11 L403.40 438.83 L408.25 436.61 L413.20 434.35 L418.05 432.16 L423.00 429.94 L427.85 427.78 L432.80 425.60 L437.65 423.47 L442.60 421.32 L447.45 419.23 L452.40 417.12 L457.25 415.07 L462.20 412.99 L467.05 410.98 L472.00 408.95 L476.85 406.98 L481.80 404.99 L486.65 403.06 L491.60 401.12 L496.45 399.23 L501.40 397.34 L506.25 395.50 L511.20 393.66 L516.05 391.87 L521.00 390.08 L525.85 388.35 L530.80 386.61 L535.65 384.93 L540.60 383.24 L545.45 381.62 L550.40 380.00 L555.25 378.43 L560.20 376.87 L565.05 375.37 L570.00 373.87 L574.85 372.43 L579.80 370.99 L584.65 369.62 L589.60 368.26 L594.45 366.95 L599.40 365.66 L604.25 364.43 L609.20 363.21 L614.05 362.05 L619.00 360.91 L623.85 359.83 L628.80 358.76 L633.65 357.76 L638.60 356.78 L643.45 355.86 L648.40 354.96 L653.25 354.13 L658.20 353.32 L663.05 352.57 L668.00 351.85 L672.85 351.20 L677.80 350.57 L682.65 350.01 L687.60 349.48 L692.45 349.02 L697.40 348.59 L702.25 348.23 L707.20 347.90 L712.05 347.64 L717.00 347.42 L721.85 347.27 L726.80 347.16 L731.65 347.11 L736.60 347.12 L741.45 347.18 L746.40 347.31 L751.25 347.49 L756.20 347.73 L761.05 348.03 L766.00 348.40 L770.85 348.82 L775.80 349.32 L780.65 349.86 L785.60 350.49 L790.45 351.17 L795.40 351.93 L800.25 352.74 L805.20 353.64 L810.05 354.58 L815.00 355.62 L819.85 356.71 L824.80 357.90 L829.65 359.13 L834.60 360.46 L839.45 361.84 L844.40 363.33 L849.25 364.86 L854.20 366.51 L859.05 368.20 L864.00 370.00 L868.85 371.85 L873.80 373.82 L878.65 375.83 L883.60 377.97 L888.45 380.15 L893.40 382.46 L898.25 384.81 L903.20 387.30 L908.05 389.83 L913.00 392.50 L917.85 395.21 L922.80 398.06 L927.65 400.95 L932.60 404.00 L937.45 407.08 L942.40 410.32 L947.25 413.59 L952.20 417.03 L957.05 420.50 L962.00 424.15 L966.85 427.82 L971.80 431.67 L976.65 435.55 L981.60 439.61 L986.45 443.70 L991.40 447.98 L996.25 452.28 L1001.20 456.79 L1006.05 461.31 L1011.00 466.04 L1015.85 470.79 L1020.80 475.75 L1025.65 480.72 L1030.60 485.92 L1035.45 491.13 L1040.40 496.57 L1045.25 502.02 L1050.20 507.70 L1055.05 513.40 L1060.00 519.33" fill="none" stroke="#2ca25f" stroke-width="2"/><text class="small" x="420" y="666">raw sell size / hard-wall reserve</text><text class="small" transform="translate(18 430) rotate(-90)">effective payout % / output scale</text><rect x="690" y="58" width="362" height="114" rx="10" fill="#ffffff" stroke="#d8e0e8"/><line x1="708" y1="86" x2="743" y2="86" stroke="#d23f31" stroke-width="3"/><text class="legend" x="753" y="91">effective payout %</text><line x1="708" y1="108" x2="743" y2="108" stroke="#2b8cbe" stroke-width="2" stroke-dasharray="7 5"/><text class="legend" x="753" y="113">dampened / fee-adjusted raw</text><line x1="708" y1="130" x2="743" y2="130" stroke="#8795a1" stroke-width="2"/><text class="legend" x="753" y="135">raw output</text><line x1="708" y1="152" x2="743" y2="152" stroke="#2ca25f" stroke-width="2"/><text class="legend" x="753" y="157">actual payout</text></svg>