<svg xmlns="http://www.w3.org/2000/svg" width="1100" height="680" viewBox="0 0 1100 680"><style>.bg{fill:#fbfdff}.grid{stroke:#d8e0e8;stroke-width:1}.axis{stroke:#4a5568;stroke-width:1.5}.small{font:14px sans-serif;fill:#334155}.legend{font:15px sans-serif;fill:#1f2937}</style><rect class="bg" width="1100" height="680"/><text x="80" y="30" class="legend">Prop AMM Hard-Wall Curve</text><text x="80" y="50" class="small">X: raw sell size as % of hard-wall reserve. Fullness 100.00%. linear_weight_bps=500, base_exponent=5.</text><line class="grid" x1="80" y1="605" x2="1060" y2="605"/><text class="small" x="28" y="609">0%</text><line class="grid" x1="80" y1="465" x2="1060" y2="465"/><text class="small" x="28" y="469">25%</text><line class="grid" x1="80" y1="325" x2="1060" y2="325"/><text class="small" x="28" y="329">50%</text><line class="grid" x1="80" y1="185" x2="1060" y2="185"/><text class="small" x="28" y="189">75%</text><line class="grid" x1="80" y1="45" x2="1060" y2="45"/><text class="small" x="28" y="49">100%</text><line class="grid" x1="80" y1="45" x2="80" y2="605"/><text class="small" x="68" y="632">0%</text><line class="grid" x1="327.47474747474746" y1="45" x2="327.47474747474746" y2="605"/><text class="small" x="315.47474747474746" y="632">25%</text><line class="grid" x1="574.9494949494949" y1="45" x2="574.9494949494949" y2="605"/><text class="small" x="562.9494949494949" y="632">50%</text><line class="grid" x1="822.4242424242424" y1="45" x2="822.4242424242424" y2="605"/><text class="small" x="810.4242424242424" y="632">75%</text><line class="grid" x1="1060" y1="45" x2="1060" y2="605"/><text class="small" x="1048" y="632">99%</text><line class="axis" x1="80" y1="605" x2="1060" y2="605"/><line class="axis" x1="80" y1="45" x2="80" y2="605"/><path d="M80.00 605.00 L84.85 73.13 L89.80 73.25 L94.65 73.37 L99.60 73.50 L104.45 73.63 L109.40 73.75 L114.25 73.88 L119.20 74.00 L124.05 74.13 L129.00 74.25 L133.85 74.38 L138.80 74.50 L143.65 74.63 L148.60 74.75 L153.45 74.88 L158.40 75.00 L163.25 75.13 L168.20 75.25 L173.05 75.38 L178.00 75.51 L182.85 75.63 L187.80 75.76 L192.65 75.88 L197.60 76.01 L202.45 76.14 L207.40 76.27 L212.25 76.39 L217.20 76.52 L222.05 76.65 L227.00 76.78 L231.85 76.91 L236.80 77.04 L241.65 77.17 L246.60 77.31 L251.45 77.44 L256.40 77.57 L261.25 77.71 L266.20 77.85 L271.05 77.98 L276.00 78.12 L280.85 78.26 L285.80 78.41 L290.65 78.55 L295.60 78.70 L300.45 78.84 L305.40 78.99 L310.25 79.14 L315.20 79.30 L320.05 79.46 L325.00 79.62 L329.85 79.78 L334.80 79.95 L339.65 80.11 L344.60 80.29 L349.45 80.46 L354.40 80.65 L359.25 80.83 L364.20 81.02 L369.05 81.21 L374.00 81.41 L378.85 81.61 L383.80 81.82 L388.65 82.03 L393.60 82.25 L398.45 82.48 L403.40 82.71 L408.25 82.95 L413.20 83.20 L418.05 83.45 L423.00 83.71 L427.85 83.98 L432.80 84.25 L437.65 84.54 L442.60 84.84 L447.45 85.14 L452.40 85.45 L457.25 85.77 L462.20 86.11 L467.05 86.45 L472.00 86.82 L476.85 87.18 L481.80 87.57 L486.65 87.96 L491.60 88.37 L496.45 88.78 L501.40 89.22 L506.25 89.67 L511.20 90.14 L516.05 90.62 L521.00 91.12 L525.85 91.63 L530.80 92.17 L535.65 92.71 L540.60 93.29 L545.45 93.87 L550.40 94.48 L555.25 95.11 L560.20 95.76 L565.05 96.43 L570.00 97.13 L574.85 97.84 L579.80 98.59 L584.65 99.35 L589.60 100.15 L594.45 100.96 L599.40 101.81 L604.25 102.68 L609.20 103.59 L614.05 104.51 L619.00 105.48 L623.85 106.46 L628.80 107.49 L633.65 108.54 L638.60 109.64 L643.45 110.75 L648.40 111.92 L653.25 113.10 L658.20 114.35 L663.05 115.61 L668.00 116.93 L672.85 118.27 L677.80 119.67 L682.65 121.09 L687.60 122.58 L692.45 124.09 L697.40 125.67 L702.25 127.27 L707.20 128.94 L712.05 130.64 L717.00 132.41 L721.85 134.20 L726.80 136.09 L731.65 137.98 L736.60 139.97 L741.45 141.98 L746.40 144.08 L751.25 146.20 L756.20 148.43 L761.05 150.67 L766.00 153.02 L770.85 155.38 L775.80 157.86 L780.65 160.36 L785.60 162.97 L790.45 165.60 L795.40 168.36 L800.25 171.13 L805.20 174.04 L810.05 176.96 L815.00 180.02 L819.85 183.09 L824.80 186.31 L829.65 189.54 L834.60 192.93 L839.45 196.33 L844.40 199.89 L849.25 203.46 L854.20 207.20 L859.05 210.95 L864.00 214.88 L868.85 218.82 L873.80 222.94 L878.65 227.07 L883.60 231.39 L888.45 235.73 L893.40 240.26 L898.25 244.80 L903.20 249.55 L908.05 254.31 L913.00 259.28 L917.85 264.26 L922.80 269.47 L927.65 274.68 L932.60 280.13 L937.45 285.59 L942.40 291.28 L947.25 296.99 L952.20 302.94 L957.05 308.90 L962.00 315.12 L966.85 321.35 L971.80 327.84 L976.65 334.35 L981.60 341.13 L986.45 347.92 L991.40 354.99 L996.25 362.08 L1001.20 369.46 L1006.05 376.84 L1011.00 384.54 L1015.85 392.24 L1020.80 400.26 L1025.65 408.28 L1030.60 416.63 L1035.45 424.99 L1040.40 433.69 L1045.25 442.39 L1050.20 451.44 L1055.05 460.50 L1060.00 469.92" fill="none" stroke="#d23f31" stroke-width="3"/><path d="M80.00 605.00 L84.85 45.17 L89.80 45.28 L94.65 45.45 L99.60 45.56 L104.45 45.67 L109.40 45.84 L114.25 45.95 L119.20 46.06 L124.05 46.23 L129.00 46.34 L133.85 46.46 L138.80 46.62 L143.65 46.74 L148.60 46.85 L153.45 47.02 L158.40 47.13 L163.25 47.24 L168.20 47.41 L173.05 47.52 L178.00 47.69 L182.85 47.80 L187.80 47.91 L192.65 48.08 L197.60 48.19 L202.45 48.30 L207.40 48.47 L212.25 48.58 L217.20 48.75 L222.05 48.86 L227.00 49.03 L231.85 49.14 L236.80 49.26 L241.65 49.42 L246.60 49.54 L251.45 49.70 L256.40 49.82 L261.25 49.98 L266.20 50.15 L271.05 50.26 L276.00 50.43 L280.85 50.54 L285.80 50.71 L290.65 50.88 L295.60 51.05 L300.45 51.16 L305.40 51.33 L310.25 51.50 L315.20 51.66 L320.05 51.83 L325.00 52.00 L329.85 52.17 L334.80 52.34 L339.65 52.50 L344.60 52.67 L349.45 52.90 L354.40 53.06 L359.25 53.29 L364.20 53.46 L369.05 53.68 L374.00 53.90 L378.85 54.07 L383.80 54.30 L388.65 54.52 L393.60 54.74 L398.45 55.02 L403.40 55.25 L408.25 55.47 L413.20 55.75 L418.05 56.03 L423.00 56.31 L427.85 56.59 L432.80 56.87 L437.65 57.15 L442.60 57.49 L447.45 57.82 L452.40 58.16 L457.25 58.50 L462.20 58.83 L467.05 59.17 L472.00 59.56 L476.85 59.95 L481.80 60.34 L486.65 60.79 L491.60 61.18 L496.45 61.63 L501.40 62.08 L506.25 62.58 L511.20 63.09 L516.05 63.59 L521.00 64.10 L525.85 64.66 L530.80 65.22 L535.65 65.78 L540.60 66.39 L545.45 67.01 L550.40 67.62 L555.25 68.30 L560.20 68.97 L565.05 69.70 L570.00 70.42 L574.85 71.15 L579.80 71.99 L584.65 72.78 L589.60 73.62 L594.45 74.46 L599.40 75.35 L604.25 76.25 L609.20 77.20 L614.05 78.21 L619.00 79.22 L623.85 80.22 L628.80 81.34 L633.65 82.41 L638.60 83.58 L643.45 84.76 L648.40 85.99 L653.25 87.22 L658.20 88.57 L663.05 89.86 L668.00 91.26 L672.85 92.66 L677.80 94.17 L682.65 95.62 L687.60 97.19 L692.45 98.82 L697.40 100.50 L702.25 102.18 L707.20 103.91 L712.05 105.70 L717.00 107.55 L721.85 109.46 L726.80 111.42 L731.65 113.43 L736.60 115.50 L741.45 117.63 L746.40 119.87 L751.25 122.11 L756.20 124.41 L761.05 126.76 L766.00 129.28 L770.85 131.74 L775.80 134.38 L780.65 137.01 L785.60 139.75 L790.45 142.50 L795.40 145.41 L800.25 148.32 L805.20 151.40 L810.05 154.48 L815.00 157.67 L819.85 160.92 L824.80 164.28 L829.65 167.70 L834.60 171.28 L839.45 174.86 L844.40 178.62 L849.25 182.37 L854.20 186.29 L859.05 190.26 L864.00 194.35 L868.85 198.50 L873.80 202.86 L878.65 207.23 L883.60 211.77 L888.45 216.30 L893.40 221.06 L898.25 225.88 L903.20 230.86 L908.05 235.90 L913.00 241.11 L917.85 246.38 L922.80 251.86 L927.65 257.35 L932.60 263.06 L937.45 268.78 L942.40 274.82 L947.25 280.82 L952.20 287.09 L957.05 293.36 L962.00 299.91 L966.85 306.46 L971.80 313.30 L976.65 320.13 L981.60 327.30 L986.45 334.41 L991.40 341.86 L996.25 349.30 L1001.20 357.09 L1006.05 364.87 L1011.00 372.94 L1015.85 381.06 L1020.80 389.51 L1025.65 397.97 L1030.60 406.76 L1035.45 415.55 L1040.40 424.68 L1045.25 433.86 L1050.20 443.38 L1055.05 452.90 L1060.00 462.82" fill="none" stroke="#2b8cbe" stroke-width="2" stroke-dasharray="7 5"/><path d="M80.00 605.00 L84.85 602.26 L89.80 599.46 L94.65 596.71 L99.60 593.91 L104.45 591.17 L109.40 588.37 L114.25 585.62 L119.20 582.82 L124.05 580.08 L129.00 577.28 L133.85 574.54 L138.80 571.74 L143.65 568.99 L148.60 566.19 L153.45 563.45 L158.40 560.65 L163.25 557.90 L168.20 555.10 L173.05 552.36 L178.00 549.56 L182.85 546.82 L187.80 544.02 L192.65 541.27 L197.60 538.47 L202.45 535.73 L207.40 532.93 L212.25 530.18 L217.20 527.38 L222.05 524.64 L227.00 521.84 L231.85 519.10 L236.80 516.30 L241.65 513.55 L246.60 510.75 L251.45 508.01 L256.40 505.21 L261.25 502.46 L266.20 499.66 L271.05 496.92 L276.00 494.12 L280.85 491.38 L285.80 488.58 L290.65 485.83 L295.60 483.03 L300.45 480.29 L305.40 477.49 L310.25 474.74 L315.20 471.94 L320.05 469.20 L325.00 466.40 L329.85 463.66 L334.80 460.86 L339.65 458.11 L344.60 455.31 L349.45 452.57 L354.40 449.77 L359.25 447.02 L364.20 444.22 L369.05 441.48 L374.00 438.68 L378.85 435.94 L383.80 433.14 L388.65 430.39 L393.60 427.59 L398.45 424.85 L403.40 422.05 L408.25 419.30 L413.20 416.50 L418.05 413.76 L423.00 410.96 L427.85 408.22 L432.80 405.42 L437.65 402.67 L442.60 399.87 L447.45 397.13 L452.40 394.33 L457.25 391.58 L462.20 388.78 L467.05 386.04 L472.00 383.24 L476.85 380.50 L481.80 377.70 L486.65 374.95 L491.60 372.15 L496.45 369.41 L501.40 366.61 L506.25 363.86 L511.20 361.06 L516.05 358.32 L521.00 355.52 L525.85 352.78 L530.80 349.98 L535.65 347.23 L540.60 344.43 L545.45 341.69 L550.40 338.89 L555.25 336.14 L560.20 333.34 L565.05 330.60 L570.00 327.80 L574.85 325.06 L579.80 322.26 L584.65 319.51 L589.60 316.71 L594.45 313.97 L599.40 311.17 L604.25 308.42 L609.20 305.62 L614.05 302.88 L619.00 300.08 L623.85 297.34 L628.80 294.54 L633.65 291.79 L638.60 288.99 L643.45 286.25 L648.40 283.45 L653.25 280.70 L658.20 277.90 L663.05 275.16 L668.00 272.36 L672.85 269.62 L677.80 266.82 L682.65 264.07 L687.60 261.27 L692.45 258.53 L697.40 255.73 L702.25 252.98 L707.20 250.18 L712.05 247.44 L717.00 244.64 L721.85 241.90 L726.80 239.10 L731.65 236.35 L736.60 233.55 L741.45 230.81 L746.40 228.01 L751.25 225.26 L756.20 222.46 L761.05 219.72 L766.00 216.92 L770.85 214.18 L775.80 211.38 L780.65 208.63 L785.60 205.83 L790.45 203.09 L795.40 200.29 L800.25 197.54 L805.20 194.74 L810.05 192.00 L815.00 189.20 L819.85 186.46 L824.80 183.66 L829.65 180.91 L834.60 178.11 L839.45 175.37 L844.40 172.57 L849.25 169.82 L854.20 167.02 L859.05 164.28 L864.00 161.48 L868.85 158.74 L873.80 155.94 L878.65 153.19 L883.60 150.39 L888.45 147.65 L893.40 144.85 L898.25 142.10 L903.20 139.30 L908.05 136.56 L913.00 133.76 L917.85 131.02 L922.80 128.22 L927.65 125.47 L932.60 122.67 L937.45 119.93 L942.40 117.13 L947.25 114.38 L952.20 111.58 L957.05 108.84 L962.00 106.04 L966.85 103.30 L971.80 100.50 L976.65 97.75 L981.60 94.95 L986.45 92.21 L991.40 89.41 L996.25 86.66 L1001.20 83.86 L1006.05 81.12 L1011.00 78.32 L1015.85 75.58 L1020.80 72.78 L1025.65 70.03 L1030.60 67.23 L1035.45 64.49 L1040.40 61.69 L1045.25 58.94 L1050.20 56.14 L1055.05 53.40 L1060.00 50.60" fill="none" stroke="#8795a1" stroke-width="2"/><path d="M80.00 605.00 L84.85 602.39 L89.80 599.74 L94.65 597.13 L99.60 594.48 L104.45 591.88 L109.40 589.22 L114.25 586.62 L119.20 583.97 L124.05 581.38 L129.00 578.73 L133.85 576.13 L138.80 573.49 L143.65 570.90 L148.60 568.25 L153.45 565.66 L158.40 563.02 L163.25 560.44 L168.20 557.80 L173.05 555.22 L178.00 552.58 L182.85 550.00 L187.80 547.37 L192.65 544.79 L197.60 542.16 L202.45 539.58 L207.40 536.95 L212.25 534.38 L217.20 531.75 L222.05 529.18 L227.00 526.56 L231.85 523.99 L236.80 521.37 L241.65 518.81 L246.60 516.19 L251.45 513.63 L256.40 511.01 L261.25 508.45 L266.20 505.84 L271.05 503.29 L276.00 500.68 L280.85 498.12 L285.80 495.52 L290.65 492.97 L295.60 490.37 L300.45 487.82 L305.40 485.23 L310.25 482.69 L315.20 480.09 L320.05 477.56 L325.00 474.97 L329.85 472.43 L334.80 469.85 L339.65 467.32 L344.60 464.74 L349.45 462.22 L354.40 459.65 L359.25 457.13 L364.20 454.56 L369.05 452.05 L374.00 449.49 L378.85 446.99 L383.80 444.44 L388.65 441.94 L393.60 439.39 L398.45 436.90 L403.40 434.37 L408.25 431.89 L413.20 429.36 L418.05 426.89 L423.00 424.37 L427.85 421.91 L432.80 419.41 L437.65 416.96 L442.60 414.46 L447.45 412.03 L452.40 409.55 L457.25 407.12 L462.20 404.66 L467.05 402.25 L472.00 399.80 L476.85 397.41 L481.80 394.97 L486.65 392.60 L491.60 390.18 L496.45 387.83 L501.40 385.43 L506.25 383.10 L511.20 380.73 L516.05 378.41 L521.00 376.07 L525.85 373.78 L530.80 371.46 L535.65 369.19 L540.60 366.90 L545.45 364.67 L550.40 362.40 L555.25 360.20 L560.20 357.97 L565.05 355.80 L570.00 353.60 L574.85 351.47 L579.80 349.31 L584.65 347.22 L589.60 345.10 L594.45 343.05 L599.40 340.98 L604.25 338.97 L609.20 336.94 L614.05 334.98 L619.00 333.01 L623.85 331.10 L628.80 329.18 L633.65 327.33 L638.60 325.47 L643.45 323.67 L648.40 321.87 L653.25 320.14 L658.20 318.41 L663.05 316.75 L668.00 315.09 L672.85 313.50 L677.80 311.91 L682.65 310.40 L687.60 308.89 L692.45 307.46 L697.40 306.04 L702.25 304.70 L707.20 303.37 L712.05 302.12 L717.00 300.89 L721.85 299.74 L726.80 298.61 L731.65 297.56 L736.60 296.55 L741.45 295.61 L746.40 294.71 L751.25 293.89 L756.20 293.12 L761.05 292.42 L766.00 291.78 L770.85 291.21 L775.80 290.71 L780.65 290.28 L785.60 289.92 L790.45 289.65 L795.40 289.44 L800.25 289.32 L805.20 289.28 L810.05 289.32 L815.00 289.45 L819.85 289.67 L824.80 289.98 L829.65 290.38 L834.60 290.88 L839.45 291.47 L844.40 292.17 L849.25 292.97 L854.20 293.88 L859.05 294.89 L864.00 296.02 L868.85 297.25 L873.80 298.62 L878.65 300.09 L883.60 301.71 L888.45 303.42 L893.40 305.29 L898.25 307.26 L903.20 309.41 L908.05 311.65 L913.00 314.08 L917.85 316.60 L922.80 319.33 L927.65 322.15 L932.60 325.19 L937.45 328.32 L942.40 331.69 L947.25 335.15 L952.20 338.85 L957.05 342.66 L962.00 346.72 L966.85 350.88 L971.80 355.31 L976.65 359.84 L981.60 364.67 L986.45 369.59 L991.40 374.82 L996.25 380.15 L1001.20 385.80 L1006.05 391.56 L1011.00 397.66 L1015.85 403.85 L1020.80 410.41 L1025.65 417.07 L1030.60 424.11 L1035.45 431.25 L1040.40 438.79 L1045.25 446.44 L1050.20 454.50 L1055.05 462.66 L1060.00 471.27" fill="none" stroke="#2ca25f" stroke-width="2"/><text class="small" x="420" y="666">raw sell size / hard-wall reserve</text><text class="small" transform="translate(18 430) rotate(-90)">effective payout % / output scale</text><rect x="690" y="58" width="362" height="114" rx="10" fill="#ffffff" stroke="#d8e0e8"/><line x1="708" y1="86" x2="743" y2="86" stroke="#d23f31" stroke-width="3"/><text class="legend" x="753" y="91">effective payout %</text><line x1="708" y1="108" x2="743" y2="108" stroke="#2b8cbe" stroke-width="2" stroke-dasharray="7 5"/><text class="legend" x="753" y="113">dampened / fee-adjusted raw</text><line x1="708" y1="130" x2="743" y2="130" stroke="#8795a1" stroke-width="2"/><text class="legend" x="753" y="135">raw output</text><line x1="708" y1="152" x2="743" y2="152" stroke="#2ca25f" stroke-width="2"/><text class="legend" x="753" y="157">actual payout</text></svg>