<svg xmlns="http://www.w3.org/2000/svg" width="1100" height="680" viewBox="0 0 1100 680"><style>.bg{fill:#fbfdff}.grid{stroke:#d8e0e8;stroke-width:1}.axis{stroke:#4a5568;stroke-width:1.5}.small{font:14px sans-serif;fill:#334155}.legend{font:15px sans-serif;fill:#1f2937}</style><rect class="bg" width="1100" height="680"/><text x="80" y="30" class="legend">Prop AMM Hard-Wall Curve</text><text x="80" y="50" class="small">X: raw sell size as % of hard-wall reserve. Fullness 100.00%. linear_weight_bps=500, base_exponent=2.</text><line class="grid" x1="80" y1="605" x2="1060" y2="605"/><text class="small" x="28" y="609">0%</text><line class="grid" x1="80" y1="465" x2="1060" y2="465"/><text class="small" x="28" y="469">25%</text><line class="grid" x1="80" y1="325" x2="1060" y2="325"/><text class="small" x="28" y="329">50%</text><line class="grid" x1="80" y1="185" x2="1060" y2="185"/><text class="small" x="28" y="189">75%</text><line class="grid" x1="80" y1="45" x2="1060" y2="45"/><text class="small" x="28" y="49">100%</text><line class="grid" x1="80" y1="45" x2="80" y2="605"/><text class="small" x="68" y="632">0%</text><line class="grid" x1="327.47474747474746" y1="45" x2="327.47474747474746" y2="605"/><text class="small" x="315.47474747474746" y="632">25%</text><line class="grid" x1="574.9494949494949" y1="45" x2="574.9494949494949" y2="605"/><text class="small" x="562.9494949494949" y="632">50%</text><line class="grid" x1="822.4242424242424" y1="45" x2="822.4242424242424" y2="605"/><text class="small" x="810.4242424242424" y="632">75%</text><line class="grid" x1="1060" y1="45" x2="1060" y2="605"/><text class="small" x="1048" y="632">99%</text><line class="axis" x1="80" y1="605" x2="1060" y2="605"/><line class="axis" x1="80" y1="45" x2="80" y2="605"/><path d="M80.00 605.00 L84.85 73.14 L89.80 73.30 L94.65 73.48 L99.60 73.68 L104.45 73.90 L109.40 74.15 L114.25 74.42 L119.20 74.72 L124.05 75.03 L129.00 75.37 L133.85 75.72 L138.80 76.11 L143.65 76.51 L148.60 76.94 L153.45 77.39 L158.40 77.86 L163.25 78.35 L168.20 78.87 L173.05 79.41 L178.00 79.97 L182.85 80.55 L187.80 81.16 L192.65 81.78 L197.60 82.44 L202.45 83.11 L207.40 83.81 L212.25 84.52 L217.20 85.26 L222.05 86.02 L227.00 86.81 L231.85 87.61 L236.80 88.45 L241.65 89.29 L246.60 90.17 L251.45 91.06 L256.40 91.99 L261.25 92.92 L266.20 93.89 L271.05 94.87 L276.00 95.89 L280.85 96.91 L285.80 97.97 L290.65 99.03 L295.60 100.14 L300.45 101.25 L305.40 102.40 L310.25 103.56 L315.20 104.75 L320.05 105.95 L325.00 107.19 L329.85 108.44 L334.80 109.73 L339.65 111.01 L344.60 112.34 L349.45 113.67 L354.40 115.05 L359.25 116.43 L364.20 117.85 L369.05 119.27 L374.00 120.74 L378.85 122.20 L383.80 123.72 L388.65 125.22 L393.60 126.78 L398.45 128.33 L403.40 129.94 L408.25 131.53 L413.20 133.18 L418.05 134.82 L423.00 136.52 L427.85 138.20 L432.80 139.94 L437.65 141.67 L442.60 143.46 L447.45 145.23 L452.40 147.06 L457.25 148.88 L462.20 150.75 L467.05 152.61 L472.00 154.53 L476.85 156.44 L481.80 158.41 L486.65 160.35 L491.60 162.37 L496.45 164.36 L501.40 166.42 L506.25 168.45 L511.20 170.56 L516.05 172.64 L521.00 174.78 L525.85 176.91 L530.80 179.10 L535.65 181.27 L540.60 183.51 L545.45 185.73 L550.40 188.01 L555.25 190.27 L560.20 192.59 L565.05 194.90 L570.00 197.27 L574.85 199.62 L579.80 202.04 L584.65 204.43 L589.60 206.89 L594.45 209.33 L599.40 211.83 L604.25 214.31 L609.20 216.87 L614.05 219.39 L619.00 221.99 L623.85 224.56 L628.80 227.20 L633.65 229.82 L638.60 232.51 L643.45 235.16 L648.40 237.90 L653.25 240.60 L658.20 243.38 L663.05 246.12 L668.00 248.95 L672.85 251.74 L677.80 254.61 L682.65 257.44 L687.60 260.36 L692.45 263.23 L697.40 266.19 L702.25 269.12 L707.20 272.12 L712.05 275.09 L717.00 278.14 L721.85 281.15 L726.80 284.24 L731.65 287.30 L736.60 290.44 L741.45 293.54 L746.40 296.73 L751.25 299.87 L756.20 303.10 L761.05 306.29 L766.00 309.57 L770.85 312.80 L775.80 316.12 L780.65 319.40 L785.60 322.76 L790.45 326.08 L795.40 329.49 L800.25 332.86 L805.20 336.32 L810.05 339.73 L815.00 343.23 L819.85 346.68 L824.80 350.23 L829.65 353.73 L834.60 357.32 L839.45 360.86 L844.40 364.50 L849.25 368.08 L854.20 371.77 L859.05 375.40 L864.00 379.12 L868.85 382.80 L873.80 386.57 L878.65 390.29 L883.60 394.11 L888.45 397.87 L893.40 401.73 L898.25 405.54 L903.20 409.45 L908.05 413.30 L913.00 417.26 L917.85 421.15 L922.80 425.15 L927.65 429.09 L932.60 433.13 L937.45 437.12 L942.40 441.21 L947.25 445.24 L952.20 449.37 L957.05 453.44 L962.00 457.62 L966.85 461.74 L971.80 465.97 L976.65 470.13 L981.60 474.40 L986.45 478.60 L991.40 482.92 L996.25 487.17 L1001.20 491.53 L1006.05 495.82 L1011.00 500.23 L1015.85 504.56 L1020.80 509.01 L1025.65 513.40 L1030.60 517.89 L1035.45 522.32 L1040.40 526.86 L1045.25 531.33 L1050.20 535.92 L1055.05 540.43 L1060.00 545.06" fill="none" stroke="#d23f31" stroke-width="3"/><path d="M80.00 605.00 L84.85 45.17 L89.80 45.34 L94.65 45.50 L99.60 45.73 L104.45 46.01 L109.40 46.23 L114.25 46.51 L119.20 46.85 L124.05 47.18 L129.00 47.52 L133.85 47.91 L138.80 48.30 L143.65 48.75 L148.60 49.20 L153.45 49.65 L158.40 50.15 L163.25 50.66 L168.20 51.22 L173.05 51.78 L178.00 52.39 L182.85 52.95 L187.80 53.62 L192.65 54.30 L197.60 54.97 L202.45 55.64 L207.40 56.42 L212.25 57.15 L217.20 57.94 L222.05 58.72 L227.00 59.56 L231.85 60.40 L236.80 61.30 L241.65 62.19 L246.60 63.09 L251.45 64.04 L256.40 64.99 L261.25 66.00 L266.20 67.01 L271.05 68.07 L276.00 69.14 L280.85 70.20 L285.80 71.32 L290.65 72.44 L295.60 73.62 L300.45 74.79 L305.40 75.97 L310.25 77.20 L315.20 78.43 L320.05 79.72 L325.00 81.01 L329.85 82.35 L334.80 83.70 L339.65 85.04 L344.60 86.44 L349.45 87.84 L354.40 89.30 L359.25 90.75 L364.20 92.26 L369.05 93.72 L374.00 95.29 L378.85 96.80 L383.80 98.42 L388.65 99.99 L393.60 101.62 L398.45 103.30 L403.40 104.98 L408.25 106.66 L413.20 108.39 L418.05 110.13 L423.00 111.86 L427.85 113.66 L432.80 115.50 L437.65 117.30 L442.60 119.20 L447.45 121.05 L452.40 123.01 L457.25 124.91 L462.20 126.87 L467.05 128.83 L472.00 130.85 L476.85 132.86 L481.80 134.94 L486.65 137.01 L491.60 139.08 L496.45 141.21 L501.40 143.34 L506.25 145.52 L511.20 147.70 L516.05 149.89 L521.00 152.18 L525.85 154.42 L530.80 156.72 L535.65 159.02 L540.60 161.37 L545.45 163.66 L550.40 166.07 L555.25 168.48 L560.20 170.94 L565.05 173.35 L570.00 175.82 L574.85 178.34 L579.80 180.86 L584.65 183.38 L589.60 185.95 L594.45 188.53 L599.40 191.16 L604.25 193.79 L609.20 196.48 L614.05 199.11 L619.00 201.86 L623.85 204.54 L628.80 207.34 L633.65 210.09 L638.60 212.94 L643.45 215.74 L648.40 218.60 L653.25 221.46 L658.20 224.37 L663.05 227.28 L668.00 230.25 L672.85 233.16 L677.80 236.18 L682.65 239.15 L687.60 242.23 L692.45 245.26 L697.40 248.39 L702.25 251.47 L707.20 254.61 L712.05 257.74 L717.00 260.94 L721.85 264.13 L726.80 267.38 L731.65 270.62 L736.60 273.93 L741.45 277.18 L746.40 280.54 L751.25 283.84 L756.20 287.26 L761.05 290.62 L766.00 294.03 L770.85 297.45 L775.80 300.92 L780.65 304.39 L785.60 307.92 L790.45 311.45 L795.40 315.03 L800.25 318.56 L805.20 322.20 L810.05 325.78 L815.00 329.48 L819.85 333.12 L824.80 336.87 L829.65 340.51 L834.60 344.32 L839.45 348.02 L844.40 351.88 L849.25 355.63 L854.20 359.50 L859.05 363.36 L864.00 367.28 L868.85 371.14 L873.80 375.12 L878.65 379.04 L883.60 383.02 L888.45 386.99 L893.40 391.08 L898.25 395.06 L903.20 399.20 L908.05 403.23 L913.00 407.38 L917.85 411.52 L922.80 415.72 L927.65 419.86 L932.60 424.12 L937.45 428.32 L942.40 432.63 L947.25 436.83 L952.20 441.20 L957.05 445.51 L962.00 449.88 L966.85 454.25 L971.80 458.67 L976.65 463.04 L981.60 467.58 L986.45 472.00 L991.40 476.54 L996.25 481.02 L1001.20 485.61 L1006.05 490.09 L1011.00 494.74 L1015.85 499.33 L1020.80 503.98 L1025.65 508.62 L1030.60 513.33 L1035.45 517.98 L1040.40 522.79 L1045.25 527.50 L1050.20 532.31 L1055.05 537.07 L1060.00 541.94" fill="none" stroke="#2b8cbe" stroke-width="2" stroke-dasharray="7 5"/><path d="M80.00 605.00 L84.85 602.26 L89.80 599.46 L94.65 596.71 L99.60 593.91 L104.45 591.17 L109.40 588.37 L114.25 585.62 L119.20 582.82 L124.05 580.08 L129.00 577.28 L133.85 574.54 L138.80 571.74 L143.65 568.99 L148.60 566.19 L153.45 563.45 L158.40 560.65 L163.25 557.90 L168.20 555.10 L173.05 552.36 L178.00 549.56 L182.85 546.82 L187.80 544.02 L192.65 541.27 L197.60 538.47 L202.45 535.73 L207.40 532.93 L212.25 530.18 L217.20 527.38 L222.05 524.64 L227.00 521.84 L231.85 519.10 L236.80 516.30 L241.65 513.55 L246.60 510.75 L251.45 508.01 L256.40 505.21 L261.25 502.46 L266.20 499.66 L271.05 496.92 L276.00 494.12 L280.85 491.38 L285.80 488.58 L290.65 485.83 L295.60 483.03 L300.45 480.29 L305.40 477.49 L310.25 474.74 L315.20 471.94 L320.05 469.20 L325.00 466.40 L329.85 463.66 L334.80 460.86 L339.65 458.11 L344.60 455.31 L349.45 452.57 L354.40 449.77 L359.25 447.02 L364.20 444.22 L369.05 441.48 L374.00 438.68 L378.85 435.94 L383.80 433.14 L388.65 430.39 L393.60 427.59 L398.45 424.85 L403.40 422.05 L408.25 419.30 L413.20 416.50 L418.05 413.76 L423.00 410.96 L427.85 408.22 L432.80 405.42 L437.65 402.67 L442.60 399.87 L447.45 397.13 L452.40 394.33 L457.25 391.58 L462.20 388.78 L467.05 386.04 L472.00 383.24 L476.85 380.50 L481.80 377.70 L486.65 374.95 L491.60 372.15 L496.45 369.41 L501.40 366.61 L506.25 363.86 L511.20 361.06 L516.05 358.32 L521.00 355.52 L525.85 352.78 L530.80 349.98 L535.65 347.23 L540.60 344.43 L545.45 341.69 L550.40 338.89 L555.25 336.14 L560.20 333.34 L565.05 330.60 L570.00 327.80 L574.85 325.06 L579.80 322.26 L584.65 319.51 L589.60 316.71 L594.45 313.97 L599.40 311.17 L604.25 308.42 L609.20 305.62 L614.05 302.88 L619.00 300.08 L623.85 297.34 L628.80 294.54 L633.65 291.79 L638.60 288.99 L643.45 286.25 L648.40 283.45 L653.25 280.70 L658.20 277.90 L663.05 275.16 L668.00 272.36 L672.85 269.62 L677.80 266.82 L682.65 264.07 L687.60 261.27 L692.45 258.53 L697.40 255.73 L702.25 252.98 L707.20 250.18 L712.05 247.44 L717.00 244.64 L721.85 241.90 L726.80 239.10 L731.65 236.35 L736.60 233.55 L741.45 230.81 L746.40 228.01 L751.25 225.26 L756.20 222.46 L761.05 219.72 L766.00 216.92 L770.85 214.18 L775.80 211.38 L780.65 208.63 L785.60 205.83 L790.45 203.09 L795.40 200.29 L800.25 197.54 L805.20 194.74 L810.05 192.00 L815.00 189.20 L819.85 186.46 L824.80 183.66 L829.65 180.91 L834.60 178.11 L839.45 175.37 L844.40 172.57 L849.25 169.82 L854.20 167.02 L859.05 164.28 L864.00 161.48 L868.85 158.74 L873.80 155.94 L878.65 153.19 L883.60 150.39 L888.45 147.65 L893.40 144.85 L898.25 142.10 L903.20 139.30 L908.05 136.56 L913.00 133.76 L917.85 131.02 L922.80 128.22 L927.65 125.47 L932.60 122.67 L937.45 119.93 L942.40 117.13 L947.25 114.38 L952.20 111.58 L957.05 108.84 L962.00 106.04 L966.85 103.30 L971.80 100.50 L976.65 97.75 L981.60 94.95 L986.45 92.21 L991.40 89.41 L996.25 86.66 L1001.20 83.86 L1006.05 81.12 L1011.00 78.32 L1015.85 75.58 L1020.80 72.78 L1025.65 70.03 L1030.60 67.23 L1035.45 64.49 L1040.40 61.69 L1045.25 58.94 L1050.20 56.14 L1055.05 53.40 L1060.00 50.60" fill="none" stroke="#8795a1" stroke-width="2"/><path d="M80.00 605.00 L84.85 602.39 L89.80 599.74 L94.65 597.13 L99.60 594.48 L104.45 591.88 L109.40 589.23 L114.25 586.64 L119.20 584.00 L124.05 581.42 L129.00 578.78 L133.85 576.21 L138.80 573.58 L143.65 571.02 L148.60 568.41 L153.45 565.85 L158.40 563.25 L163.25 560.71 L168.20 558.12 L173.05 555.59 L178.00 553.02 L182.85 550.51 L187.80 547.95 L192.65 545.46 L197.60 542.92 L202.45 540.44 L207.40 537.92 L212.25 535.46 L217.20 532.96 L222.05 530.53 L227.00 528.05 L231.85 525.63 L236.80 523.18 L241.65 520.78 L246.60 518.35 L251.45 515.99 L256.40 513.58 L261.25 511.24 L266.20 508.86 L271.05 506.54 L276.00 504.20 L280.85 501.91 L285.80 499.59 L290.65 497.33 L295.60 495.04 L300.45 492.81 L305.40 490.56 L310.25 488.36 L315.20 486.14 L320.05 483.98 L325.00 481.79 L329.85 479.67 L334.80 477.52 L339.65 475.43 L344.60 473.31 L349.45 471.26 L354.40 469.19 L359.25 467.17 L364.20 465.14 L369.05 463.17 L374.00 461.17 L378.85 459.24 L383.80 457.29 L388.65 455.41 L393.60 453.50 L398.45 451.66 L403.40 449.80 L408.25 448.00 L413.20 446.19 L418.05 444.43 L423.00 442.67 L427.85 440.97 L432.80 439.25 L437.65 437.60 L442.60 435.94 L447.45 434.33 L452.40 432.72 L457.25 431.17 L462.20 429.62 L467.05 428.12 L472.00 426.62 L476.85 425.17 L481.80 423.73 L486.65 422.34 L491.60 420.95 L496.45 419.62 L501.40 418.29 L506.25 417.02 L511.20 415.76 L516.05 414.54 L521.00 413.34 L525.85 412.19 L530.80 411.05 L535.65 409.96 L540.60 408.88 L545.45 407.86 L550.40 406.85 L555.25 405.89 L560.20 404.94 L565.05 404.05 L570.00 403.17 L574.85 402.35 L579.80 401.54 L584.65 400.79 L589.60 400.05 L594.45 399.37 L599.40 398.71 L604.25 398.09 L609.20 397.50 L614.05 396.96 L619.00 396.45 L623.85 395.99 L628.80 395.55 L633.65 395.16 L638.60 394.80 L643.45 394.49 L648.40 394.21 L653.25 393.97 L658.20 393.78 L663.05 393.62 L668.00 393.50 L672.85 393.43 L677.80 393.40 L682.65 393.41 L687.60 393.46 L692.45 393.55 L697.40 393.69 L702.25 393.86 L707.20 394.09 L712.05 394.35 L717.00 394.66 L721.85 395.02 L726.80 395.42 L731.65 395.86 L736.60 396.35 L741.45 396.88 L746.40 397.47 L751.25 398.09 L756.20 398.77 L761.05 399.49 L766.00 400.26 L770.85 401.07 L775.80 401.95 L780.65 402.85 L785.60 403.82 L790.45 404.82 L795.40 405.89 L800.25 406.99 L805.20 408.16 L810.05 409.36 L815.00 410.63 L819.85 411.93 L824.80 413.31 L829.65 414.71 L834.60 416.19 L839.45 417.70 L844.40 419.28 L849.25 420.89 L854.20 422.59 L859.05 424.30 L864.00 426.11 L868.85 427.93 L873.80 429.84 L878.65 431.77 L883.60 433.80 L888.45 435.84 L893.40 437.98 L898.25 440.13 L903.20 442.38 L908.05 444.65 L913.00 447.01 L917.85 449.39 L922.80 451.88 L927.65 454.37 L932.60 456.97 L937.45 459.58 L942.40 462.30 L947.25 465.03 L952.20 467.88 L957.05 470.72 L962.00 473.69 L966.85 476.65 L971.80 479.74 L976.65 482.83 L981.60 486.05 L986.45 489.26 L991.40 492.60 L996.25 495.93 L1001.20 499.40 L1006.05 502.86 L1011.00 506.46 L1015.85 510.05 L1020.80 513.78 L1025.65 517.49 L1030.60 521.35 L1035.45 525.20 L1040.40 529.19 L1045.25 533.17 L1050.20 537.29 L1055.05 541.40 L1060.00 545.66" fill="none" stroke="#2ca25f" stroke-width="2"/><text class="small" x="420" y="666">raw sell size / hard-wall reserve</text><text class="small" transform="translate(18 430) rotate(-90)">effective payout % / output scale</text><rect x="690" y="58" width="362" height="114" rx="10" fill="#ffffff" stroke="#d8e0e8"/><line x1="708" y1="86" x2="743" y2="86" stroke="#d23f31" stroke-width="3"/><text class="legend" x="753" y="91">effective payout %</text><line x1="708" y1="108" x2="743" y2="108" stroke="#2b8cbe" stroke-width="2" stroke-dasharray="7 5"/><text class="legend" x="753" y="113">dampened / fee-adjusted raw</text><line x1="708" y1="130" x2="743" y2="130" stroke="#8795a1" stroke-width="2"/><text class="legend" x="753" y="135">raw output</text><line x1="708" y1="152" x2="743" y2="152" stroke="#2ca25f" stroke-width="2"/><text class="legend" x="753" y="157">actual payout</text></svg>