<svg xmlns="http://www.w3.org/2000/svg" width="1100" height="680" viewBox="0 0 1100 680"><style>.bg{fill:#fbfdff}.grid{stroke:#d8e0e8;stroke-width:1}.axis{stroke:#4a5568;stroke-width:1.5}.small{font:14px sans-serif;fill:#334155}.legend{font:15px sans-serif;fill:#1f2937}</style><rect class="bg" width="1100" height="680"/><text x="80" y="30" class="legend">Prop AMM Hard-Wall Curve</text><text x="80" y="50" class="small">X: raw sell size as % of hard-wall reserve. Fullness 100.00%. linear_weight_bps=2000, base_exponent=2.</text><line class="grid" x1="80" y1="605" x2="1060" y2="605"/><text class="small" x="28" y="609">0%</text><line class="grid" x1="80" y1="465" x2="1060" y2="465"/><text class="small" x="28" y="469">25%</text><line class="grid" x1="80" y1="325" x2="1060" y2="325"/><text class="small" x="28" y="329">50%</text><line class="grid" x1="80" y1="185" x2="1060" y2="185"/><text class="small" x="28" y="189">75%</text><line class="grid" x1="80" y1="45" x2="1060" y2="45"/><text class="small" x="28" y="49">100%</text><line class="grid" x1="80" y1="45" x2="80" y2="605"/><text class="small" x="68" y="632">0%</text><line class="grid" x1="327.47474747474746" y1="45" x2="327.47474747474746" y2="605"/><text class="small" x="315.47474747474746" y="632">25%</text><line class="grid" x1="574.9494949494949" y1="45" x2="574.9494949494949" y2="605"/><text class="small" x="562.9494949494949" y="632">50%</text><line class="grid" x1="822.4242424242424" y1="45" x2="822.4242424242424" y2="605"/><text class="small" x="810.4242424242424" y="632">75%</text><line class="grid" x1="1060" y1="45" x2="1060" y2="605"/><text class="small" x="1048" y="632">99%</text><line class="axis" x1="80" y1="605" x2="1060" y2="605"/><line class="axis" x1="80" y1="45" x2="80" y2="605"/><path d="M80.00 605.00 L84.85 73.51 L89.80 74.04 L94.65 74.58 L99.60 75.15 L104.45 75.73 L109.40 76.34 L114.25 76.96 L119.20 77.61 L124.05 78.26 L129.00 78.95 L133.85 79.64 L138.80 80.36 L143.65 81.09 L148.60 81.85 L153.45 82.62 L158.40 83.42 L163.25 84.22 L168.20 85.06 L173.05 85.90 L178.00 86.77 L182.85 87.65 L187.80 88.56 L192.65 89.48 L197.60 90.43 L202.45 91.38 L207.40 92.37 L212.25 93.36 L217.20 94.39 L222.05 95.41 L227.00 96.48 L231.85 97.54 L236.80 98.65 L241.65 99.75 L246.60 100.89 L251.45 102.03 L256.40 103.21 L261.25 104.39 L266.20 105.60 L271.05 106.82 L276.00 108.07 L280.85 109.32 L285.80 110.62 L290.65 111.90 L295.60 113.24 L300.45 114.56 L305.40 115.93 L310.25 117.29 L315.20 118.70 L320.05 120.10 L325.00 121.55 L329.85 122.98 L334.80 124.47 L339.65 125.94 L344.60 127.46 L349.45 128.97 L354.40 130.53 L359.25 132.08 L364.20 133.68 L369.05 135.27 L374.00 136.90 L378.85 138.52 L383.80 140.20 L388.65 141.86 L393.60 143.57 L398.45 145.27 L403.40 147.02 L408.25 148.75 L413.20 150.54 L418.05 152.31 L423.00 154.14 L427.85 155.95 L432.80 157.81 L437.65 159.66 L442.60 161.56 L447.45 163.45 L452.40 165.39 L457.25 167.31 L462.20 169.29 L467.05 171.24 L472.00 173.26 L476.85 175.26 L481.80 177.31 L486.65 179.34 L491.60 181.44 L496.45 183.51 L501.40 185.64 L506.25 187.74 L511.20 189.91 L516.05 192.06 L521.00 194.26 L525.85 196.45 L530.80 198.69 L535.65 200.91 L540.60 203.19 L545.45 205.45 L550.40 207.77 L555.25 210.06 L560.20 212.42 L565.05 214.75 L570.00 217.15 L574.85 219.52 L579.80 221.95 L584.65 224.36 L589.60 226.83 L594.45 229.27 L599.40 231.78 L604.25 234.26 L609.20 236.81 L614.05 239.33 L619.00 241.92 L623.85 244.47 L628.80 247.10 L633.65 249.69 L638.60 252.35 L643.45 254.98 L648.40 257.68 L653.25 260.35 L658.20 263.09 L663.05 265.79 L668.00 268.57 L672.85 271.31 L677.80 274.12 L682.65 276.90 L687.60 279.75 L692.45 282.57 L697.40 285.46 L702.25 288.31 L707.20 291.24 L712.05 294.13 L717.00 297.10 L721.85 300.03 L726.80 303.03 L731.65 306.00 L736.60 309.04 L741.45 312.04 L746.40 315.12 L751.25 318.16 L756.20 321.28 L761.05 324.36 L766.00 327.51 L770.85 330.63 L775.80 333.82 L780.65 336.97 L785.60 340.21 L790.45 343.39 L795.40 346.67 L800.25 349.89 L805.20 353.20 L810.05 356.46 L815.00 359.81 L819.85 363.11 L824.80 366.50 L829.65 369.83 L834.60 373.26 L839.45 376.63 L844.40 380.09 L849.25 383.50 L854.20 387.00 L859.05 390.45 L864.00 393.99 L868.85 397.48 L873.80 401.05 L878.65 404.57 L883.60 408.19 L888.45 411.75 L893.40 415.40 L898.25 419.00 L903.20 422.69 L908.05 426.32 L913.00 430.05 L917.85 433.72 L922.80 437.49 L927.65 441.20 L932.60 445.00 L937.45 448.75 L942.40 452.59 L947.25 456.38 L952.20 460.26 L957.05 464.08 L962.00 468.00 L966.85 471.85 L971.80 475.81 L976.65 479.71 L981.60 483.70 L986.45 487.63 L991.40 491.66 L996.25 495.64 L1001.20 499.71 L1006.05 503.71 L1011.00 507.82 L1015.85 511.87 L1020.80 516.01 L1025.65 520.09 L1030.60 524.28 L1035.45 528.40 L1040.40 532.62 L1045.25 536.78 L1050.20 541.04 L1055.05 545.23 L1060.00 549.53" fill="none" stroke="#d23f31" stroke-width="3"/><path d="M80.00 605.00 L84.85 45.56 L89.80 46.12 L94.65 46.68 L99.60 47.30 L104.45 47.91 L109.40 48.53 L114.25 49.20 L119.20 49.87 L124.05 50.54 L129.00 51.27 L133.85 52.00 L138.80 52.78 L143.65 53.57 L148.60 54.35 L153.45 55.14 L158.40 55.98 L163.25 56.82 L168.20 57.71 L173.05 58.61 L178.00 59.50 L182.85 60.46 L187.80 61.41 L192.65 62.36 L197.60 63.37 L202.45 64.38 L207.40 65.44 L212.25 66.45 L217.20 67.57 L222.05 68.63 L227.00 69.75 L231.85 70.87 L236.80 72.05 L241.65 73.17 L246.60 74.40 L251.45 75.58 L256.40 76.81 L261.25 78.04 L266.20 79.33 L271.05 80.62 L276.00 81.96 L280.85 83.25 L285.80 84.65 L290.65 85.99 L295.60 87.39 L300.45 88.79 L305.40 90.19 L310.25 91.65 L315.20 93.16 L320.05 94.62 L325.00 96.13 L329.85 97.64 L334.80 99.21 L339.65 100.78 L344.60 102.34 L349.45 103.97 L354.40 105.59 L359.25 107.22 L364.20 108.90 L369.05 110.58 L374.00 112.31 L378.85 113.99 L383.80 115.78 L388.65 117.52 L393.60 119.31 L398.45 121.10 L403.40 122.95 L408.25 124.74 L413.20 126.65 L418.05 128.50 L423.00 130.46 L427.85 132.36 L432.80 134.32 L437.65 136.22 L442.60 138.24 L447.45 140.26 L452.40 142.27 L457.25 144.29 L462.20 146.36 L467.05 148.43 L472.00 150.56 L476.85 152.69 L481.80 154.82 L486.65 156.94 L491.60 159.18 L496.45 161.37 L501.40 163.61 L506.25 165.79 L511.20 168.09 L516.05 170.33 L521.00 172.68 L525.85 174.98 L530.80 177.33 L535.65 179.68 L540.60 182.09 L545.45 184.44 L550.40 186.90 L555.25 189.31 L560.20 191.78 L565.05 194.24 L570.00 196.76 L574.85 199.28 L579.80 201.80 L584.65 204.38 L589.60 206.95 L594.45 209.53 L599.40 212.16 L604.25 214.79 L609.20 217.48 L614.05 220.11 L619.00 222.86 L623.85 225.54 L628.80 228.29 L633.65 231.03 L638.60 233.83 L643.45 236.58 L648.40 239.43 L653.25 242.23 L658.20 245.14 L663.05 247.94 L668.00 250.91 L672.85 253.77 L677.80 256.74 L682.65 259.65 L687.60 262.67 L692.45 265.64 L697.40 268.66 L702.25 271.69 L707.20 274.77 L712.05 277.79 L717.00 280.93 L721.85 284.01 L726.80 287.14 L731.65 290.28 L736.60 293.47 L741.45 296.66 L746.40 299.91 L751.25 303.10 L756.20 306.35 L761.05 309.60 L766.00 312.96 L770.85 316.21 L775.80 319.57 L780.65 322.87 L785.60 326.29 L790.45 329.65 L795.40 333.12 L800.25 336.48 L805.20 339.95 L810.05 343.42 L815.00 346.95 L819.85 350.42 L824.80 353.95 L829.65 357.48 L834.60 361.06 L839.45 364.65 L844.40 368.29 L849.25 371.87 L854.20 375.57 L859.05 379.21 L864.00 382.90 L868.85 386.60 L873.80 390.35 L878.65 394.05 L883.60 397.86 L888.45 401.61 L893.40 405.47 L898.25 409.22 L903.20 413.14 L908.05 416.95 L913.00 420.87 L917.85 424.74 L922.80 428.71 L927.65 432.63 L932.60 436.61 L937.45 440.53 L942.40 444.62 L947.25 448.59 L952.20 452.68 L957.05 456.71 L962.00 460.80 L966.85 464.89 L971.80 469.03 L976.65 473.12 L981.60 477.32 L986.45 481.46 L991.40 485.72 L996.25 489.92 L1001.20 494.18 L1006.05 498.43 L1011.00 502.74 L1015.85 507.00 L1020.80 511.37 L1025.65 515.68 L1030.60 520.05 L1035.45 524.42 L1040.40 528.84 L1045.25 533.21 L1050.20 537.69 L1055.05 542.11 L1060.00 546.65" fill="none" stroke="#2b8cbe" stroke-width="2" stroke-dasharray="7 5"/><path d="M80.00 605.00 L84.85 602.26 L89.80 599.46 L94.65 596.71 L99.60 593.91 L104.45 591.17 L109.40 588.37 L114.25 585.62 L119.20 582.82 L124.05 580.08 L129.00 577.28 L133.85 574.54 L138.80 571.74 L143.65 568.99 L148.60 566.19 L153.45 563.45 L158.40 560.65 L163.25 557.90 L168.20 555.10 L173.05 552.36 L178.00 549.56 L182.85 546.82 L187.80 544.02 L192.65 541.27 L197.60 538.47 L202.45 535.73 L207.40 532.93 L212.25 530.18 L217.20 527.38 L222.05 524.64 L227.00 521.84 L231.85 519.10 L236.80 516.30 L241.65 513.55 L246.60 510.75 L251.45 508.01 L256.40 505.21 L261.25 502.46 L266.20 499.66 L271.05 496.92 L276.00 494.12 L280.85 491.38 L285.80 488.58 L290.65 485.83 L295.60 483.03 L300.45 480.29 L305.40 477.49 L310.25 474.74 L315.20 471.94 L320.05 469.20 L325.00 466.40 L329.85 463.66 L334.80 460.86 L339.65 458.11 L344.60 455.31 L349.45 452.57 L354.40 449.77 L359.25 447.02 L364.20 444.22 L369.05 441.48 L374.00 438.68 L378.85 435.94 L383.80 433.14 L388.65 430.39 L393.60 427.59 L398.45 424.85 L403.40 422.05 L408.25 419.30 L413.20 416.50 L418.05 413.76 L423.00 410.96 L427.85 408.22 L432.80 405.42 L437.65 402.67 L442.60 399.87 L447.45 397.13 L452.40 394.33 L457.25 391.58 L462.20 388.78 L467.05 386.04 L472.00 383.24 L476.85 380.50 L481.80 377.70 L486.65 374.95 L491.60 372.15 L496.45 369.41 L501.40 366.61 L506.25 363.86 L511.20 361.06 L516.05 358.32 L521.00 355.52 L525.85 352.78 L530.80 349.98 L535.65 347.23 L540.60 344.43 L545.45 341.69 L550.40 338.89 L555.25 336.14 L560.20 333.34 L565.05 330.60 L570.00 327.80 L574.85 325.06 L579.80 322.26 L584.65 319.51 L589.60 316.71 L594.45 313.97 L599.40 311.17 L604.25 308.42 L609.20 305.62 L614.05 302.88 L619.00 300.08 L623.85 297.34 L628.80 294.54 L633.65 291.79 L638.60 288.99 L643.45 286.25 L648.40 283.45 L653.25 280.70 L658.20 277.90 L663.05 275.16 L668.00 272.36 L672.85 269.62 L677.80 266.82 L682.65 264.07 L687.60 261.27 L692.45 258.53 L697.40 255.73 L702.25 252.98 L707.20 250.18 L712.05 247.44 L717.00 244.64 L721.85 241.90 L726.80 239.10 L731.65 236.35 L736.60 233.55 L741.45 230.81 L746.40 228.01 L751.25 225.26 L756.20 222.46 L761.05 219.72 L766.00 216.92 L770.85 214.18 L775.80 211.38 L780.65 208.63 L785.60 205.83 L790.45 203.09 L795.40 200.29 L800.25 197.54 L805.20 194.74 L810.05 192.00 L815.00 189.20 L819.85 186.46 L824.80 183.66 L829.65 180.91 L834.60 178.11 L839.45 175.37 L844.40 172.57 L849.25 169.82 L854.20 167.02 L859.05 164.28 L864.00 161.48 L868.85 158.74 L873.80 155.94 L878.65 153.19 L883.60 150.39 L888.45 147.65 L893.40 144.85 L898.25 142.10 L903.20 139.30 L908.05 136.56 L913.00 133.76 L917.85 131.02 L922.80 128.22 L927.65 125.47 L932.60 122.67 L937.45 119.93 L942.40 117.13 L947.25 114.38 L952.20 111.58 L957.05 108.84 L962.00 106.04 L966.85 103.30 L971.80 100.50 L976.65 97.75 L981.60 94.95 L986.45 92.21 L991.40 89.41 L996.25 86.66 L1001.20 83.86 L1006.05 81.12 L1011.00 78.32 L1015.85 75.58 L1020.80 72.78 L1025.65 70.03 L1030.60 67.23 L1035.45 64.49 L1040.40 61.69 L1045.25 58.94 L1050.20 56.14 L1055.05 53.40 L1060.00 50.60" fill="none" stroke="#8795a1" stroke-width="2"/><path d="M80.00 605.00 L84.85 602.40 L89.80 599.74 L94.65 597.15 L99.60 594.51 L104.45 591.93 L109.40 589.30 L114.25 586.73 L119.20 584.12 L124.05 581.56 L129.00 578.96 L133.85 576.42 L138.80 573.84 L143.65 571.31 L148.60 568.75 L153.45 566.24 L158.40 563.69 L163.25 561.20 L168.20 558.67 L173.05 556.20 L178.00 553.70 L182.85 551.25 L187.80 548.76 L192.65 546.33 L197.60 543.87 L202.45 541.47 L207.40 539.02 L212.25 536.64 L217.20 534.23 L222.05 531.87 L227.00 529.48 L231.85 527.16 L236.80 524.79 L241.65 522.49 L246.60 520.16 L251.45 517.89 L256.40 515.58 L261.25 513.34 L266.20 511.06 L271.05 508.85 L276.00 506.61 L280.85 504.43 L285.80 502.22 L290.65 500.07 L295.60 497.89 L300.45 495.78 L305.40 493.64 L310.25 491.56 L315.20 489.46 L320.05 487.41 L325.00 485.35 L329.85 483.34 L334.80 481.31 L339.65 479.34 L344.60 477.35 L349.45 475.43 L354.40 473.48 L359.25 471.59 L364.20 469.68 L369.05 467.84 L374.00 465.97 L378.85 464.17 L383.80 462.35 L388.65 460.59 L393.60 458.82 L398.45 457.10 L403.40 455.38 L408.25 453.71 L413.20 452.03 L418.05 450.41 L423.00 448.78 L427.85 447.20 L432.80 445.62 L437.65 444.10 L442.60 442.57 L447.45 441.10 L452.40 439.62 L457.25 438.20 L462.20 436.77 L467.05 435.40 L472.00 434.03 L476.85 432.72 L481.80 431.40 L486.65 430.14 L491.60 428.88 L496.45 427.68 L501.40 426.48 L506.25 425.33 L511.20 424.19 L516.05 423.10 L521.00 422.02 L525.85 420.99 L530.80 419.97 L535.65 419.00 L540.60 418.04 L545.45 417.13 L550.40 416.24 L555.25 415.39 L560.20 414.56 L565.05 413.78 L570.00 413.01 L574.85 412.30 L579.80 411.60 L584.65 410.95 L589.60 410.32 L594.45 409.73 L599.40 409.17 L604.25 408.66 L609.20 408.17 L614.05 407.72 L619.00 407.30 L623.85 406.93 L628.80 406.58 L633.65 406.27 L638.60 406.00 L643.45 405.77 L648.40 405.57 L653.25 405.41 L658.20 405.29 L663.05 405.21 L668.00 405.16 L672.85 405.15 L677.80 405.18 L682.65 405.25 L687.60 405.36 L692.45 405.51 L697.40 405.70 L702.25 405.93 L707.20 406.20 L712.05 406.51 L717.00 406.87 L721.85 407.26 L726.80 407.69 L731.65 408.17 L736.60 408.69 L741.45 409.24 L746.40 409.85 L751.25 410.49 L756.20 411.19 L761.05 411.92 L766.00 412.70 L770.85 413.52 L775.80 414.39 L780.65 415.29 L785.60 416.26 L790.45 417.25 L795.40 418.30 L800.25 419.38 L805.20 420.53 L810.05 421.70 L815.00 422.95 L819.85 424.21 L824.80 425.55 L829.65 426.91 L834.60 428.34 L839.45 429.80 L844.40 431.33 L849.25 432.88 L854.20 434.51 L859.05 436.15 L864.00 437.88 L868.85 439.62 L873.80 441.45 L878.65 443.30 L883.60 445.23 L888.45 447.17 L893.40 449.21 L898.25 451.25 L903.20 453.39 L908.05 455.54 L913.00 457.78 L917.85 460.03 L922.80 462.38 L927.65 464.74 L932.60 467.19 L937.45 469.66 L942.40 472.22 L947.25 474.79 L952.20 477.47 L957.05 480.14 L962.00 482.93 L966.85 485.71 L971.80 488.61 L976.65 491.51 L981.60 494.52 L986.45 497.53 L991.40 500.65 L996.25 503.77 L1001.20 507.01 L1006.05 510.25 L1011.00 513.60 L1015.85 516.95 L1020.80 520.43 L1025.65 523.89 L1030.60 527.48 L1035.45 531.06 L1040.40 534.78 L1045.25 538.48 L1050.20 542.31 L1055.05 546.13 L1060.00 550.08" fill="none" stroke="#2ca25f" stroke-width="2"/><text class="small" x="420" y="666">raw sell size / hard-wall reserve</text><text class="small" transform="translate(18 430) rotate(-90)">effective payout % / output scale</text><rect x="690" y="58" width="362" height="114" rx="10" fill="#ffffff" stroke="#d8e0e8"/><line x1="708" y1="86" x2="743" y2="86" stroke="#d23f31" stroke-width="3"/><text class="legend" x="753" y="91">effective payout %</text><line x1="708" y1="108" x2="743" y2="108" stroke="#2b8cbe" stroke-width="2" stroke-dasharray="7 5"/><text class="legend" x="753" y="113">dampened / fee-adjusted raw</text><line x1="708" y1="130" x2="743" y2="130" stroke="#8795a1" stroke-width="2"/><text class="legend" x="753" y="135">raw output</text><line x1="708" y1="152" x2="743" y2="152" stroke="#2ca25f" stroke-width="2"/><text class="legend" x="753" y="157">actual payout</text></svg>