<svg xmlns="http://www.w3.org/2000/svg" width="1100" height="680" viewBox="0 0 1100 680"><style>.bg{fill:#fbfdff}.grid{stroke:#d8e0e8;stroke-width:1}.axis{stroke:#4a5568;stroke-width:1.5}.small{font:14px sans-serif;fill:#334155}.legend{font:15px sans-serif;fill:#1f2937}</style><rect class="bg" width="1100" height="680"/><text x="80" y="30" class="legend">Prop AMM Hard-Wall Curve</text><text x="80" y="50" class="small">X: raw sell size as % of hard-wall reserve. Fullness 100.00%. linear_weight_bps=2000, base_exponent=5.</text><line class="grid" x1="80" y1="605" x2="1060" y2="605"/><text class="small" x="28" y="609">0%</text><line class="grid" x1="80" y1="465" x2="1060" y2="465"/><text class="small" x="28" y="469">25%</text><line class="grid" x1="80" y1="325" x2="1060" y2="325"/><text class="small" x="28" y="329">50%</text><line class="grid" x1="80" y1="185" x2="1060" y2="185"/><text class="small" x="28" y="189">75%</text><line class="grid" x1="80" y1="45" x2="1060" y2="45"/><text class="small" x="28" y="49">100%</text><line class="grid" x1="80" y1="45" x2="80" y2="605"/><text class="small" x="68" y="632">0%</text><line class="grid" x1="327.47474747474746" y1="45" x2="327.47474747474746" y2="605"/><text class="small" x="315.47474747474746" y="632">25%</text><line class="grid" x1="574.9494949494949" y1="45" x2="574.9494949494949" y2="605"/><text class="small" x="562.9494949494949" y="632">50%</text><line class="grid" x1="822.4242424242424" y1="45" x2="822.4242424242424" y2="605"/><text class="small" x="810.4242424242424" y="632">75%</text><line class="grid" x1="1060" y1="45" x2="1060" y2="605"/><text class="small" x="1048" y="632">99%</text><line class="axis" x1="80" y1="605" x2="1060" y2="605"/><line class="axis" x1="80" y1="45" x2="80" y2="605"/><path d="M80.00 605.00 L84.85 73.50 L89.80 74.00 L94.65 74.50 L99.60 75.00 L104.45 75.50 L109.40 76.00 L114.25 76.50 L119.20 77.00 L124.05 77.50 L129.00 78.00 L133.85 78.50 L138.80 79.00 L143.65 79.50 L148.60 80.01 L153.45 80.50 L158.40 81.01 L163.25 81.50 L168.20 82.01 L173.05 82.50 L178.00 83.01 L182.85 83.51 L187.80 84.01 L192.65 84.51 L197.60 85.02 L202.45 85.51 L207.40 86.02 L212.25 86.52 L217.20 87.03 L222.05 87.53 L227.00 88.03 L231.85 88.53 L236.80 89.04 L241.65 89.54 L246.60 90.06 L251.45 90.56 L256.40 91.07 L261.25 91.58 L266.20 92.09 L271.05 92.60 L276.00 93.11 L280.85 93.62 L285.80 94.14 L290.65 94.65 L295.60 95.18 L300.45 95.69 L305.40 96.22 L310.25 96.74 L315.20 97.27 L320.05 97.79 L325.00 98.32 L329.85 98.85 L334.80 99.39 L339.65 99.92 L344.60 100.47 L349.45 101.01 L354.40 101.56 L359.25 102.10 L364.20 102.66 L369.05 103.21 L374.00 103.78 L378.85 104.34 L383.80 104.92 L388.65 105.49 L393.60 106.07 L398.45 106.65 L403.40 107.25 L408.25 107.84 L413.20 108.45 L418.05 109.05 L423.00 109.67 L427.85 110.28 L432.80 110.92 L437.65 111.55 L442.60 112.20 L447.45 112.84 L452.40 113.51 L457.25 114.17 L462.20 114.85 L467.05 115.53 L472.00 116.23 L476.85 116.93 L481.80 117.66 L486.65 118.38 L491.60 119.12 L496.45 119.86 L501.40 120.63 L506.25 121.40 L511.20 122.20 L516.05 122.99 L521.00 123.81 L525.85 124.63 L530.80 125.48 L535.65 126.33 L540.60 127.22 L545.45 128.10 L550.40 129.01 L555.25 129.93 L560.20 130.88 L565.05 131.83 L570.00 132.82 L574.85 133.81 L579.80 134.84 L584.65 135.87 L589.60 136.94 L594.45 138.02 L599.40 139.13 L604.25 140.25 L609.20 141.42 L614.05 142.58 L619.00 143.80 L623.85 145.02 L628.80 146.29 L633.65 147.56 L638.60 148.88 L643.45 150.21 L648.40 151.60 L653.25 152.98 L658.20 154.43 L663.05 155.88 L668.00 157.39 L672.85 158.91 L677.80 160.49 L682.65 162.08 L687.60 163.73 L692.45 165.39 L697.40 167.12 L702.25 168.86 L707.20 170.67 L712.05 172.49 L717.00 174.38 L721.85 176.28 L726.80 178.27 L731.65 180.25 L736.60 182.33 L741.45 184.41 L746.40 186.58 L751.25 188.76 L756.20 191.03 L761.05 193.31 L766.00 195.68 L770.85 198.07 L775.80 200.55 L780.65 203.05 L785.60 205.65 L790.45 208.25 L795.40 210.98 L800.25 213.70 L805.20 216.55 L810.05 219.40 L815.00 222.37 L819.85 225.35 L824.80 228.46 L829.65 231.58 L834.60 234.82 L839.45 238.08 L844.40 241.47 L849.25 244.88 L854.20 248.42 L859.05 251.97 L864.00 255.68 L868.85 259.39 L873.80 263.26 L878.65 267.13 L883.60 271.17 L888.45 275.21 L893.40 279.42 L898.25 283.64 L903.20 288.03 L908.05 292.43 L913.00 297.02 L917.85 301.61 L922.80 306.39 L927.65 311.17 L932.60 316.16 L937.45 321.14 L942.40 326.34 L947.25 331.53 L952.20 336.94 L957.05 342.36 L962.00 347.99 L966.85 353.63 L971.80 359.50 L976.65 365.37 L981.60 371.48 L986.45 377.58 L991.40 383.94 L996.25 390.30 L1001.20 396.91 L1006.05 403.52 L1011.00 410.40 L1015.85 417.27 L1020.80 424.43 L1025.65 431.57 L1030.60 439.01 L1035.45 446.43 L1040.40 454.16 L1045.25 461.88 L1050.20 469.90 L1055.05 477.92 L1060.00 486.25" fill="none" stroke="#d23f31" stroke-width="3"/><path d="M80.00 605.00 L84.85 45.56 L89.80 46.06 L94.65 46.62 L99.60 47.13 L104.45 47.63 L109.40 48.19 L114.25 48.70 L119.20 49.26 L124.05 49.76 L129.00 50.32 L133.85 50.82 L138.80 51.33 L143.65 51.89 L148.60 52.39 L153.45 52.90 L158.40 53.46 L163.25 53.96 L168.20 54.52 L173.05 55.02 L178.00 55.58 L182.85 56.09 L187.80 56.65 L192.65 57.15 L197.60 57.66 L202.45 58.22 L207.40 58.72 L212.25 59.28 L217.20 59.78 L222.05 60.34 L227.00 60.85 L231.85 61.35 L236.80 61.91 L241.65 62.42 L246.60 62.98 L251.45 63.54 L256.40 64.04 L261.25 64.60 L266.20 65.10 L271.05 65.66 L276.00 66.22 L280.85 66.73 L285.80 67.29 L290.65 67.85 L295.60 68.35 L300.45 68.91 L305.40 69.47 L310.25 70.03 L315.20 70.59 L320.05 71.10 L325.00 71.71 L329.85 72.22 L334.80 72.83 L339.65 73.39 L344.60 73.95 L349.45 74.51 L354.40 75.07 L359.25 75.69 L364.20 76.25 L369.05 76.81 L374.00 77.42 L378.85 78.04 L383.80 78.60 L388.65 79.22 L393.60 79.83 L398.45 80.45 L403.40 81.06 L408.25 81.68 L413.20 82.35 L418.05 82.97 L423.00 83.64 L427.85 84.26 L432.80 84.93 L437.65 85.60 L442.60 86.27 L447.45 86.94 L452.40 87.67 L457.25 88.34 L462.20 89.07 L467.05 89.80 L472.00 90.53 L476.85 91.26 L481.80 92.04 L486.65 92.77 L491.60 93.55 L496.45 94.34 L501.40 95.18 L506.25 95.96 L511.20 96.80 L516.05 97.64 L521.00 98.54 L525.85 99.38 L530.80 100.27 L535.65 101.17 L540.60 102.12 L545.45 103.02 L550.40 103.97 L555.25 104.98 L560.20 105.93 L565.05 106.94 L570.00 108.00 L574.85 109.06 L579.80 110.13 L584.65 111.19 L589.60 112.31 L594.45 113.49 L599.40 114.66 L604.25 115.84 L609.20 117.07 L614.05 118.25 L619.00 119.54 L623.85 120.82 L628.80 122.17 L633.65 123.51 L638.60 124.91 L643.45 126.31 L648.40 127.77 L653.25 129.22 L658.20 130.74 L663.05 132.25 L668.00 133.87 L672.85 135.44 L677.80 137.12 L682.65 138.80 L687.60 140.54 L692.45 142.27 L697.40 144.12 L702.25 145.91 L707.20 147.82 L712.05 149.78 L717.00 151.74 L721.85 153.75 L726.80 155.82 L731.65 157.95 L736.60 160.14 L741.45 162.32 L746.40 164.56 L751.25 166.86 L756.20 169.26 L761.05 171.67 L766.00 174.19 L770.85 176.66 L775.80 179.29 L780.65 181.92 L785.60 184.66 L790.45 187.41 L795.40 190.26 L800.25 193.12 L805.20 196.14 L810.05 199.11 L815.00 202.25 L819.85 205.38 L824.80 208.69 L829.65 211.94 L834.60 215.35 L839.45 218.82 L844.40 222.35 L849.25 225.94 L854.20 229.69 L859.05 233.44 L864.00 237.30 L868.85 241.22 L873.80 245.31 L878.65 249.40 L883.60 253.60 L888.45 257.86 L893.40 262.34 L898.25 266.76 L903.20 271.35 L908.05 276.00 L913.00 280.82 L917.85 285.69 L922.80 290.73 L927.65 295.71 L932.60 300.98 L937.45 306.24 L942.40 311.67 L947.25 317.16 L952.20 322.87 L957.05 328.58 L962.00 334.52 L966.85 340.40 L971.80 346.62 L976.65 352.78 L981.60 359.22 L986.45 365.66 L991.40 372.32 L996.25 379.04 L1001.20 385.98 L1006.05 392.93 L1011.00 400.21 L1015.85 407.43 L1020.80 414.94 L1025.65 422.50 L1030.60 430.28 L1035.45 438.12 L1040.40 446.24 L1045.25 454.36 L1050.20 462.82 L1055.05 471.27 L1060.00 480.01" fill="none" stroke="#2b8cbe" stroke-width="2" stroke-dasharray="7 5"/><path d="M80.00 605.00 L84.85 602.26 L89.80 599.46 L94.65 596.71 L99.60 593.91 L104.45 591.17 L109.40 588.37 L114.25 585.62 L119.20 582.82 L124.05 580.08 L129.00 577.28 L133.85 574.54 L138.80 571.74 L143.65 568.99 L148.60 566.19 L153.45 563.45 L158.40 560.65 L163.25 557.90 L168.20 555.10 L173.05 552.36 L178.00 549.56 L182.85 546.82 L187.80 544.02 L192.65 541.27 L197.60 538.47 L202.45 535.73 L207.40 532.93 L212.25 530.18 L217.20 527.38 L222.05 524.64 L227.00 521.84 L231.85 519.10 L236.80 516.30 L241.65 513.55 L246.60 510.75 L251.45 508.01 L256.40 505.21 L261.25 502.46 L266.20 499.66 L271.05 496.92 L276.00 494.12 L280.85 491.38 L285.80 488.58 L290.65 485.83 L295.60 483.03 L300.45 480.29 L305.40 477.49 L310.25 474.74 L315.20 471.94 L320.05 469.20 L325.00 466.40 L329.85 463.66 L334.80 460.86 L339.65 458.11 L344.60 455.31 L349.45 452.57 L354.40 449.77 L359.25 447.02 L364.20 444.22 L369.05 441.48 L374.00 438.68 L378.85 435.94 L383.80 433.14 L388.65 430.39 L393.60 427.59 L398.45 424.85 L403.40 422.05 L408.25 419.30 L413.20 416.50 L418.05 413.76 L423.00 410.96 L427.85 408.22 L432.80 405.42 L437.65 402.67 L442.60 399.87 L447.45 397.13 L452.40 394.33 L457.25 391.58 L462.20 388.78 L467.05 386.04 L472.00 383.24 L476.85 380.50 L481.80 377.70 L486.65 374.95 L491.60 372.15 L496.45 369.41 L501.40 366.61 L506.25 363.86 L511.20 361.06 L516.05 358.32 L521.00 355.52 L525.85 352.78 L530.80 349.98 L535.65 347.23 L540.60 344.43 L545.45 341.69 L550.40 338.89 L555.25 336.14 L560.20 333.34 L565.05 330.60 L570.00 327.80 L574.85 325.06 L579.80 322.26 L584.65 319.51 L589.60 316.71 L594.45 313.97 L599.40 311.17 L604.25 308.42 L609.20 305.62 L614.05 302.88 L619.00 300.08 L623.85 297.34 L628.80 294.54 L633.65 291.79 L638.60 288.99 L643.45 286.25 L648.40 283.45 L653.25 280.70 L658.20 277.90 L663.05 275.16 L668.00 272.36 L672.85 269.62 L677.80 266.82 L682.65 264.07 L687.60 261.27 L692.45 258.53 L697.40 255.73 L702.25 252.98 L707.20 250.18 L712.05 247.44 L717.00 244.64 L721.85 241.90 L726.80 239.10 L731.65 236.35 L736.60 233.55 L741.45 230.81 L746.40 228.01 L751.25 225.26 L756.20 222.46 L761.05 219.72 L766.00 216.92 L770.85 214.18 L775.80 211.38 L780.65 208.63 L785.60 205.83 L790.45 203.09 L795.40 200.29 L800.25 197.54 L805.20 194.74 L810.05 192.00 L815.00 189.20 L819.85 186.46 L824.80 183.66 L829.65 180.91 L834.60 178.11 L839.45 175.37 L844.40 172.57 L849.25 169.82 L854.20 167.02 L859.05 164.28 L864.00 161.48 L868.85 158.74 L873.80 155.94 L878.65 153.19 L883.60 150.39 L888.45 147.65 L893.40 144.85 L898.25 142.10 L903.20 139.30 L908.05 136.56 L913.00 133.76 L917.85 131.02 L922.80 128.22 L927.65 125.47 L932.60 122.67 L937.45 119.93 L942.40 117.13 L947.25 114.38 L952.20 111.58 L957.05 108.84 L962.00 106.04 L966.85 103.30 L971.80 100.50 L976.65 97.75 L981.60 94.95 L986.45 92.21 L991.40 89.41 L996.25 86.66 L1001.20 83.86 L1006.05 81.12 L1011.00 78.32 L1015.85 75.58 L1020.80 72.78 L1025.65 70.03 L1030.60 67.23 L1035.45 64.49 L1040.40 61.69 L1045.25 58.94 L1050.20 56.14 L1055.05 53.40 L1060.00 50.60" fill="none" stroke="#8795a1" stroke-width="2"/><path d="M80.00 605.00 L84.85 602.40 L89.80 599.74 L94.65 597.15 L99.60 594.51 L104.45 591.92 L109.40 589.29 L114.25 586.71 L119.20 584.09 L124.05 581.53 L129.00 578.91 L133.85 576.36 L138.80 573.76 L143.65 571.21 L148.60 568.62 L153.45 566.08 L158.40 563.50 L163.25 560.97 L168.20 558.40 L173.05 555.89 L178.00 553.32 L182.85 550.82 L187.80 548.26 L192.65 545.77 L197.60 543.23 L202.45 540.74 L207.40 538.21 L212.25 535.73 L217.20 533.21 L222.05 530.74 L227.00 528.23 L231.85 525.77 L236.80 523.27 L241.65 520.83 L246.60 518.34 L251.45 515.90 L256.40 513.42 L261.25 510.99 L266.20 508.52 L271.05 506.11 L276.00 503.65 L280.85 501.24 L285.80 498.79 L290.65 496.40 L295.60 493.96 L300.45 491.58 L305.40 489.15 L310.25 486.78 L315.20 484.36 L320.05 482.00 L325.00 479.60 L329.85 477.25 L334.80 474.86 L339.65 472.52 L344.60 470.14 L349.45 467.81 L354.40 465.45 L359.25 463.13 L364.20 460.78 L369.05 458.48 L374.00 456.14 L378.85 453.85 L383.80 451.52 L388.65 449.25 L393.60 446.94 L398.45 444.68 L403.40 442.38 L408.25 440.14 L413.20 437.86 L418.05 435.63 L423.00 433.37 L427.85 431.16 L432.80 428.91 L437.65 426.72 L442.60 424.49 L447.45 422.31 L452.40 420.10 L457.25 417.94 L462.20 415.75 L467.05 413.62 L472.00 411.45 L476.85 409.33 L481.80 407.19 L486.65 405.10 L491.60 402.97 L496.45 400.90 L501.40 398.81 L506.25 396.76 L511.20 394.69 L516.05 392.67 L521.00 390.63 L525.85 388.64 L530.80 386.63 L535.65 384.67 L540.60 382.69 L545.45 380.76 L550.40 378.81 L555.25 376.92 L560.20 375.00 L565.05 373.15 L570.00 371.27 L574.85 369.45 L579.80 367.62 L584.65 365.84 L589.60 364.04 L594.45 362.31 L599.40 360.56 L604.25 358.87 L609.20 357.17 L614.05 355.53 L619.00 353.88 L623.85 352.29 L628.80 350.69 L633.65 349.15 L638.60 347.61 L643.45 346.13 L648.40 344.66 L653.25 343.24 L658.20 341.82 L663.05 340.47 L668.00 339.12 L672.85 337.84 L677.80 336.56 L682.65 335.35 L687.60 334.15 L692.45 333.02 L697.40 331.90 L702.25 330.84 L707.20 329.81 L712.05 328.84 L717.00 327.90 L721.85 327.02 L726.80 326.17 L731.65 325.39 L736.60 324.64 L741.45 323.96 L746.40 323.32 L751.25 322.75 L756.20 322.22 L761.05 321.76 L766.00 321.34 L770.85 321.00 L775.80 320.72 L780.65 320.50 L785.60 320.34 L790.45 320.26 L795.40 320.24 L800.25 320.29 L805.20 320.42 L810.05 320.62 L815.00 320.90 L819.85 321.25 L824.80 321.69 L829.65 322.21 L834.60 322.82 L839.45 323.50 L844.40 324.29 L849.25 325.15 L854.20 326.12 L859.05 327.17 L864.00 328.34 L868.85 329.58 L873.80 330.96 L878.65 332.41 L883.60 333.99 L888.45 335.66 L893.40 337.47 L898.25 339.36 L903.20 341.41 L908.05 343.54 L913.00 345.83 L917.85 348.21 L922.80 350.76 L927.65 353.40 L932.60 356.22 L937.45 359.12 L942.40 362.23 L947.25 365.42 L952.20 368.82 L957.05 372.30 L962.00 376.01 L966.85 379.80 L971.80 383.83 L976.65 387.94 L981.60 392.31 L986.45 396.75 L991.40 401.47 L996.25 406.27 L1001.20 411.35 L1006.05 416.52 L1011.00 421.98 L1015.85 427.52 L1020.80 433.38 L1025.65 439.32 L1030.60 445.60 L1035.45 451.95 L1040.40 458.65 L1045.25 465.44 L1050.20 472.59 L1055.05 479.82 L1060.00 487.44" fill="none" stroke="#2ca25f" stroke-width="2"/><text class="small" x="420" y="666">raw sell size / hard-wall reserve</text><text class="small" transform="translate(18 430) rotate(-90)">effective payout % / output scale</text><rect x="690" y="58" width="362" height="114" rx="10" fill="#ffffff" stroke="#d8e0e8"/><line x1="708" y1="86" x2="743" y2="86" stroke="#d23f31" stroke-width="3"/><text class="legend" x="753" y="91">effective payout %</text><line x1="708" y1="108" x2="743" y2="108" stroke="#2b8cbe" stroke-width="2" stroke-dasharray="7 5"/><text class="legend" x="753" y="113">dampened / fee-adjusted raw</text><line x1="708" y1="130" x2="743" y2="130" stroke="#8795a1" stroke-width="2"/><text class="legend" x="753" y="135">raw output</text><line x1="708" y1="152" x2="743" y2="152" stroke="#2ca25f" stroke-width="2"/><text class="legend" x="753" y="157">actual payout</text></svg>