<svg xmlns="http://www.w3.org/2000/svg" width="1100" height="680" viewBox="0 0 1100 680"><style>.bg{fill:#fbfdff}.grid{stroke:#d8e0e8;stroke-width:1}.axis{stroke:#4a5568;stroke-width:1.5}.small{font:14px sans-serif;fill:#334155}.legend{font:15px sans-serif;fill:#1f2937}</style><rect class="bg" width="1100" height="680"/><text x="80" y="30" class="legend">Prop AMM Hard-Wall Curve</text><text x="80" y="50" class="small">X: raw sell size as % of hard-wall reserve. Fullness 100.00%. linear_weight_bps=2000, base_exponent=3.</text><line class="grid" x1="80" y1="605" x2="1060" y2="605"/><text class="small" x="28" y="609">0%</text><line class="grid" x1="80" y1="465" x2="1060" y2="465"/><text class="small" x="28" y="469">25%</text><line class="grid" x1="80" y1="325" x2="1060" y2="325"/><text class="small" x="28" y="329">50%</text><line class="grid" x1="80" y1="185" x2="1060" y2="185"/><text class="small" x="28" y="189">75%</text><line class="grid" x1="80" y1="45" x2="1060" y2="45"/><text class="small" x="28" y="49">100%</text><line class="grid" x1="80" y1="45" x2="80" y2="605"/><text class="small" x="68" y="632">0%</text><line class="grid" x1="327.47474747474746" y1="45" x2="327.47474747474746" y2="605"/><text class="small" x="315.47474747474746" y="632">25%</text><line class="grid" x1="574.9494949494949" y1="45" x2="574.9494949494949" y2="605"/><text class="small" x="562.9494949494949" y="632">50%</text><line class="grid" x1="822.4242424242424" y1="45" x2="822.4242424242424" y2="605"/><text class="small" x="810.4242424242424" y="632">75%</text><line class="grid" x1="1060" y1="45" x2="1060" y2="605"/><text class="small" x="1048" y="632">99%</text><line class="axis" x1="80" y1="605" x2="1060" y2="605"/><line class="axis" x1="80" y1="45" x2="80" y2="605"/><path d="M80.00 605.00 L84.85 73.50 L89.80 74.00 L94.65 74.50 L99.60 75.01 L104.45 75.50 L109.40 76.01 L114.25 76.51 L119.20 77.03 L124.05 77.53 L129.00 78.05 L133.85 78.56 L138.80 79.08 L143.65 79.60 L148.60 80.13 L153.45 80.65 L158.40 81.19 L163.25 81.72 L168.20 82.26 L173.05 82.80 L178.00 83.36 L182.85 83.91 L187.80 84.48 L192.65 85.04 L197.60 85.62 L202.45 86.19 L207.40 86.79 L212.25 87.37 L217.20 87.98 L222.05 88.58 L227.00 89.21 L231.85 89.82 L236.80 90.46 L241.65 91.10 L246.60 91.75 L251.45 92.40 L256.40 93.08 L261.25 93.75 L266.20 94.44 L271.05 95.13 L276.00 95.85 L280.85 96.56 L285.80 97.29 L290.65 98.03 L295.60 98.79 L300.45 99.54 L305.40 100.32 L310.25 101.10 L315.20 101.91 L320.05 102.72 L325.00 103.55 L329.85 104.38 L334.80 105.24 L339.65 106.10 L344.60 106.99 L349.45 107.87 L354.40 108.79 L359.25 109.71 L364.20 110.66 L369.05 111.60 L374.00 112.58 L378.85 113.56 L383.80 114.57 L388.65 115.58 L393.60 116.62 L398.45 117.67 L403.40 118.75 L408.25 119.82 L413.20 120.94 L418.05 122.05 L423.00 123.20 L427.85 124.35 L432.80 125.54 L437.65 126.73 L442.60 127.96 L447.45 129.18 L452.40 130.45 L457.25 131.72 L462.20 133.03 L467.05 134.33 L472.00 135.69 L476.85 137.03 L481.80 138.43 L486.65 139.82 L491.60 141.26 L496.45 142.69 L501.40 144.18 L506.25 145.66 L511.20 147.19 L516.05 148.72 L521.00 150.29 L525.85 151.87 L530.80 153.49 L535.65 155.11 L540.60 156.79 L545.45 158.46 L550.40 160.19 L555.25 161.91 L560.20 163.69 L565.05 165.46 L570.00 167.29 L574.85 169.11 L579.80 171.00 L584.65 172.88 L589.60 174.82 L594.45 176.75 L599.40 178.75 L604.25 180.73 L609.20 182.79 L614.05 184.83 L619.00 186.95 L623.85 189.04 L628.80 191.22 L633.65 193.38 L638.60 195.61 L643.45 197.83 L648.40 200.12 L653.25 202.40 L658.20 204.76 L663.05 207.10 L668.00 209.52 L672.85 211.92 L677.80 214.41 L682.65 216.87 L687.60 219.43 L692.45 221.96 L697.40 224.58 L702.25 227.17 L707.20 229.86 L712.05 232.52 L717.00 235.28 L721.85 238.01 L726.80 240.84 L731.65 243.64 L736.60 246.53 L741.45 249.41 L746.40 252.38 L751.25 255.32 L756.20 258.36 L761.05 261.38 L766.00 264.49 L770.85 267.58 L775.80 270.77 L780.65 273.94 L785.60 277.20 L790.45 280.44 L795.40 283.79 L800.25 287.10 L805.20 290.53 L810.05 293.92 L815.00 297.42 L819.85 300.89 L824.80 304.48 L829.65 308.03 L834.60 311.69 L839.45 315.33 L844.40 319.07 L849.25 322.79 L854.20 326.62 L859.05 330.42 L864.00 334.33 L868.85 338.22 L873.80 342.22 L878.65 346.18 L883.60 350.27 L888.45 354.33 L893.40 358.50 L898.25 362.64 L903.20 366.91 L908.05 371.14 L913.00 375.50 L917.85 379.81 L922.80 384.26 L927.65 388.67 L932.60 393.21 L937.45 397.71 L942.40 402.34 L947.25 406.93 L952.20 411.66 L957.05 416.35 L962.00 421.17 L966.85 425.95 L971.80 430.87 L976.65 435.75 L981.60 440.77 L986.45 445.74 L991.40 450.86 L996.25 455.92 L1001.20 461.14 L1006.05 466.31 L1011.00 471.63 L1015.85 476.89 L1020.80 482.32 L1025.65 487.68 L1030.60 493.21 L1035.45 498.68 L1040.40 504.31 L1045.25 509.88 L1050.20 515.61 L1055.05 521.29 L1060.00 527.13" fill="none" stroke="#d23f31" stroke-width="3"/><path d="M80.00 605.00 L84.85 45.56 L89.80 46.06 L94.65 46.62 L99.60 47.13 L104.45 47.69 L109.40 48.19 L114.25 48.75 L119.20 49.26 L124.05 49.82 L129.00 50.32 L133.85 50.88 L138.80 51.44 L143.65 52.00 L148.60 52.50 L153.45 53.06 L158.40 53.62 L163.25 54.18 L168.20 54.80 L173.05 55.36 L178.00 55.92 L182.85 56.54 L187.80 57.10 L192.65 57.71 L197.60 58.33 L202.45 58.94 L207.40 59.56 L212.25 60.18 L217.20 60.79 L222.05 61.41 L227.00 62.08 L231.85 62.75 L236.80 63.42 L241.65 64.10 L246.60 64.77 L251.45 65.44 L256.40 66.17 L261.25 66.84 L266.20 67.62 L271.05 68.35 L276.00 69.08 L280.85 69.81 L285.80 70.59 L290.65 71.38 L295.60 72.16 L300.45 72.94 L305.40 73.78 L310.25 74.62 L315.20 75.46 L320.05 76.30 L325.00 77.20 L329.85 78.04 L334.80 78.99 L339.65 79.89 L344.60 80.78 L349.45 81.74 L354.40 82.69 L359.25 83.64 L364.20 84.65 L369.05 85.66 L374.00 86.66 L378.85 87.73 L383.80 88.79 L388.65 89.86 L393.60 90.98 L398.45 92.04 L403.40 93.16 L408.25 94.34 L413.20 95.51 L418.05 96.69 L423.00 97.86 L427.85 99.10 L432.80 100.33 L437.65 101.56 L442.60 102.90 L447.45 104.19 L452.40 105.48 L457.25 106.82 L462.20 108.22 L467.05 109.57 L472.00 111.02 L476.85 112.42 L481.80 113.88 L486.65 115.39 L491.60 116.90 L496.45 118.42 L501.40 119.93 L506.25 121.50 L511.20 123.12 L516.05 124.74 L521.00 126.37 L525.85 128.05 L530.80 129.78 L535.65 131.46 L540.60 133.26 L545.45 134.99 L550.40 136.78 L555.25 138.63 L560.20 140.48 L565.05 142.33 L570.00 144.29 L574.85 146.19 L579.80 148.21 L584.65 150.17 L589.60 152.18 L594.45 154.26 L599.40 156.33 L604.25 158.46 L609.20 160.58 L614.05 162.77 L619.00 164.95 L623.85 167.19 L628.80 169.49 L633.65 171.73 L638.60 174.08 L643.45 176.43 L648.40 178.84 L653.25 181.25 L658.20 183.71 L663.05 186.18 L668.00 188.75 L672.85 191.27 L677.80 193.90 L682.65 196.48 L687.60 199.17 L692.45 201.80 L697.40 204.60 L702.25 207.34 L707.20 210.14 L712.05 212.94 L717.00 215.86 L721.85 218.71 L726.80 221.68 L731.65 224.65 L736.60 227.67 L741.45 230.70 L746.40 233.83 L751.25 236.97 L756.20 240.16 L761.05 243.30 L766.00 246.60 L770.85 249.85 L775.80 253.21 L780.65 256.51 L785.60 259.98 L790.45 263.40 L795.40 266.93 L800.25 270.40 L805.20 273.98 L810.05 277.57 L815.00 281.26 L819.85 284.90 L824.80 288.71 L829.65 292.41 L834.60 296.27 L839.45 300.14 L844.40 304.06 L849.25 307.98 L854.20 312.01 L859.05 315.98 L864.00 320.13 L868.85 324.22 L873.80 328.42 L878.65 332.62 L883.60 336.87 L888.45 341.18 L893.40 345.55 L898.25 349.92 L903.20 354.40 L908.05 358.88 L913.00 363.47 L917.85 368.01 L922.80 372.66 L927.65 377.30 L932.60 382.06 L937.45 386.82 L942.40 391.70 L947.25 396.51 L952.20 401.50 L957.05 406.42 L962.00 411.52 L966.85 416.56 L971.80 421.71 L976.65 426.86 L981.60 432.13 L986.45 437.39 L991.40 442.77 L996.25 448.09 L1001.20 453.58 L1006.05 459.01 L1011.00 464.66 L1015.85 470.15 L1020.80 475.86 L1025.65 481.52 L1030.60 487.34 L1035.45 493.11 L1040.40 499.05 L1045.25 504.87 L1050.20 510.92 L1055.05 516.91 L1060.00 523.07" fill="none" stroke="#2b8cbe" stroke-width="2" stroke-dasharray="7 5"/><path d="M80.00 605.00 L84.85 602.26 L89.80 599.46 L94.65 596.71 L99.60 593.91 L104.45 591.17 L109.40 588.37 L114.25 585.62 L119.20 582.82 L124.05 580.08 L129.00 577.28 L133.85 574.54 L138.80 571.74 L143.65 568.99 L148.60 566.19 L153.45 563.45 L158.40 560.65 L163.25 557.90 L168.20 555.10 L173.05 552.36 L178.00 549.56 L182.85 546.82 L187.80 544.02 L192.65 541.27 L197.60 538.47 L202.45 535.73 L207.40 532.93 L212.25 530.18 L217.20 527.38 L222.05 524.64 L227.00 521.84 L231.85 519.10 L236.80 516.30 L241.65 513.55 L246.60 510.75 L251.45 508.01 L256.40 505.21 L261.25 502.46 L266.20 499.66 L271.05 496.92 L276.00 494.12 L280.85 491.38 L285.80 488.58 L290.65 485.83 L295.60 483.03 L300.45 480.29 L305.40 477.49 L310.25 474.74 L315.20 471.94 L320.05 469.20 L325.00 466.40 L329.85 463.66 L334.80 460.86 L339.65 458.11 L344.60 455.31 L349.45 452.57 L354.40 449.77 L359.25 447.02 L364.20 444.22 L369.05 441.48 L374.00 438.68 L378.85 435.94 L383.80 433.14 L388.65 430.39 L393.60 427.59 L398.45 424.85 L403.40 422.05 L408.25 419.30 L413.20 416.50 L418.05 413.76 L423.00 410.96 L427.85 408.22 L432.80 405.42 L437.65 402.67 L442.60 399.87 L447.45 397.13 L452.40 394.33 L457.25 391.58 L462.20 388.78 L467.05 386.04 L472.00 383.24 L476.85 380.50 L481.80 377.70 L486.65 374.95 L491.60 372.15 L496.45 369.41 L501.40 366.61 L506.25 363.86 L511.20 361.06 L516.05 358.32 L521.00 355.52 L525.85 352.78 L530.80 349.98 L535.65 347.23 L540.60 344.43 L545.45 341.69 L550.40 338.89 L555.25 336.14 L560.20 333.34 L565.05 330.60 L570.00 327.80 L574.85 325.06 L579.80 322.26 L584.65 319.51 L589.60 316.71 L594.45 313.97 L599.40 311.17 L604.25 308.42 L609.20 305.62 L614.05 302.88 L619.00 300.08 L623.85 297.34 L628.80 294.54 L633.65 291.79 L638.60 288.99 L643.45 286.25 L648.40 283.45 L653.25 280.70 L658.20 277.90 L663.05 275.16 L668.00 272.36 L672.85 269.62 L677.80 266.82 L682.65 264.07 L687.60 261.27 L692.45 258.53 L697.40 255.73 L702.25 252.98 L707.20 250.18 L712.05 247.44 L717.00 244.64 L721.85 241.90 L726.80 239.10 L731.65 236.35 L736.60 233.55 L741.45 230.81 L746.40 228.01 L751.25 225.26 L756.20 222.46 L761.05 219.72 L766.00 216.92 L770.85 214.18 L775.80 211.38 L780.65 208.63 L785.60 205.83 L790.45 203.09 L795.40 200.29 L800.25 197.54 L805.20 194.74 L810.05 192.00 L815.00 189.20 L819.85 186.46 L824.80 183.66 L829.65 180.91 L834.60 178.11 L839.45 175.37 L844.40 172.57 L849.25 169.82 L854.20 167.02 L859.05 164.28 L864.00 161.48 L868.85 158.74 L873.80 155.94 L878.65 153.19 L883.60 150.39 L888.45 147.65 L893.40 144.85 L898.25 142.10 L903.20 139.30 L908.05 136.56 L913.00 133.76 L917.85 131.02 L922.80 128.22 L927.65 125.47 L932.60 122.67 L937.45 119.93 L942.40 117.13 L947.25 114.38 L952.20 111.58 L957.05 108.84 L962.00 106.04 L966.85 103.30 L971.80 100.50 L976.65 97.75 L981.60 94.95 L986.45 92.21 L991.40 89.41 L996.25 86.66 L1001.20 83.86 L1006.05 81.12 L1011.00 78.32 L1015.85 75.58 L1020.80 72.78 L1025.65 70.03 L1030.60 67.23 L1035.45 64.49 L1040.40 61.69 L1045.25 58.94 L1050.20 56.14 L1055.05 53.40 L1060.00 50.60" fill="none" stroke="#8795a1" stroke-width="2"/><path d="M80.00 605.00 L84.85 602.40 L89.80 599.74 L94.65 597.15 L99.60 594.51 L104.45 591.92 L109.40 589.29 L114.25 586.71 L119.20 584.09 L124.05 581.53 L129.00 578.92 L133.85 576.36 L138.80 573.76 L143.65 571.22 L148.60 568.63 L153.45 566.09 L158.40 563.51 L163.25 560.99 L168.20 558.42 L173.05 555.91 L178.00 553.36 L182.85 550.86 L187.80 548.32 L192.65 545.83 L197.60 543.30 L202.45 540.82 L207.40 538.31 L212.25 535.85 L217.20 533.34 L222.05 530.89 L227.00 528.40 L231.85 525.97 L236.80 523.50 L241.65 521.08 L246.60 518.62 L251.45 516.22 L256.40 513.78 L261.25 511.39 L266.20 508.96 L271.05 506.60 L276.00 504.19 L280.85 501.84 L285.80 499.45 L290.65 497.12 L295.60 494.75 L300.45 492.43 L305.40 490.09 L310.25 487.79 L315.20 485.47 L320.05 483.20 L325.00 480.89 L329.85 478.64 L334.80 476.36 L339.65 474.14 L344.60 471.88 L349.45 469.68 L354.40 467.45 L359.25 465.28 L364.20 463.07 L369.05 460.93 L374.00 458.75 L378.85 456.63 L383.80 454.49 L388.65 452.40 L393.60 450.28 L398.45 448.22 L403.40 446.14 L408.25 444.12 L413.20 442.07 L418.05 440.07 L423.00 438.06 L427.85 436.10 L432.80 434.12 L437.65 432.20 L442.60 430.26 L447.45 428.38 L452.40 426.48 L457.25 424.63 L462.20 422.77 L467.05 420.97 L472.00 419.15 L476.85 417.39 L481.80 415.62 L486.65 413.90 L491.60 412.18 L496.45 410.51 L501.40 408.83 L506.25 407.21 L511.20 405.58 L516.05 404.01 L521.00 402.43 L525.85 400.91 L530.80 399.38 L535.65 397.92 L540.60 396.45 L545.45 395.04 L550.40 393.63 L555.25 392.27 L560.20 390.92 L565.05 389.63 L570.00 388.33 L574.85 387.10 L579.80 385.87 L584.65 384.70 L589.60 383.54 L594.45 382.44 L599.40 381.35 L604.25 380.31 L609.20 379.29 L614.05 378.32 L619.00 377.37 L623.85 376.47 L628.80 375.60 L633.65 374.78 L638.60 373.98 L643.45 373.24 L648.40 372.52 L653.25 371.85 L658.20 371.22 L663.05 370.64 L668.00 370.08 L672.85 369.59 L677.80 369.12 L682.65 368.71 L687.60 368.33 L692.45 368.01 L697.40 367.73 L702.25 367.50 L707.20 367.31 L712.05 367.17 L717.00 367.08 L721.85 367.05 L726.80 367.06 L731.65 367.12 L736.60 367.23 L741.45 367.39 L746.40 367.61 L751.25 367.88 L756.20 368.21 L761.05 368.59 L766.00 369.03 L770.85 369.52 L775.80 370.07 L780.65 370.67 L785.60 371.35 L790.45 372.06 L795.40 372.86 L800.25 373.70 L805.20 374.62 L810.05 375.58 L815.00 376.62 L819.85 377.71 L824.80 378.89 L829.65 380.10 L834.60 381.41 L839.45 382.76 L844.40 384.21 L849.25 385.69 L854.20 387.28 L859.05 388.90 L864.00 390.63 L868.85 392.40 L873.80 394.28 L878.65 396.19 L883.60 398.21 L888.45 400.27 L893.40 402.45 L898.25 404.67 L903.20 407.01 L908.05 409.37 L913.00 411.87 L917.85 414.40 L922.80 417.06 L927.65 419.76 L932.60 422.59 L937.45 425.44 L942.40 428.45 L947.25 431.47 L952.20 434.65 L957.05 437.85 L962.00 441.21 L966.85 444.59 L971.80 448.13 L976.65 451.69 L981.60 455.42 L986.45 459.16 L991.40 463.08 L996.25 467.01 L1001.20 471.13 L1006.05 475.25 L1011.00 479.56 L1015.85 483.89 L1020.80 488.40 L1025.65 492.93 L1030.60 497.65 L1035.45 502.38 L1040.40 507.31 L1045.25 512.25 L1050.20 517.39 L1055.05 522.54 L1060.00 527.91" fill="none" stroke="#2ca25f" stroke-width="2"/><text class="small" x="420" y="666">raw sell size / hard-wall reserve</text><text class="small" transform="translate(18 430) rotate(-90)">effective payout % / output scale</text><rect x="690" y="58" width="362" height="114" rx="10" fill="#ffffff" stroke="#d8e0e8"/><line x1="708" y1="86" x2="743" y2="86" stroke="#d23f31" stroke-width="3"/><text class="legend" x="753" y="91">effective payout %</text><line x1="708" y1="108" x2="743" y2="108" stroke="#2b8cbe" stroke-width="2" stroke-dasharray="7 5"/><text class="legend" x="753" y="113">dampened / fee-adjusted raw</text><line x1="708" y1="130" x2="743" y2="130" stroke="#8795a1" stroke-width="2"/><text class="legend" x="753" y="135">raw output</text><line x1="708" y1="152" x2="743" y2="152" stroke="#2ca25f" stroke-width="2"/><text class="legend" x="753" y="157">actual payout</text></svg>