<svg xmlns="http://www.w3.org/2000/svg" width="1100" height="680" viewBox="0 0 1100 680"><style>.bg{fill:#fbfdff}.grid{stroke:#d8e0e8;stroke-width:1}.axis{stroke:#4a5568;stroke-width:1.5}.small{font:14px sans-serif;fill:#334155}.legend{font:15px sans-serif;fill:#1f2937}</style><rect class="bg" width="1100" height="680"/><text x="80" y="30" class="legend">Prop AMM Hard-Wall Curve</text><text x="80" y="50" class="small">X: raw sell size as % of hard-wall reserve. Fullness 100.00%. linear_weight_bps=4000, base_exponent=3.</text><line class="grid" x1="80" y1="605" x2="1060" y2="605"/><text class="small" x="28" y="609">0%</text><line class="grid" x1="80" y1="465" x2="1060" y2="465"/><text class="small" x="28" y="469">25%</text><line class="grid" x1="80" y1="325" x2="1060" y2="325"/><text class="small" x="28" y="329">50%</text><line class="grid" x1="80" y1="185" x2="1060" y2="185"/><text class="small" x="28" y="189">75%</text><line class="grid" x1="80" y1="45" x2="1060" y2="45"/><text class="small" x="28" y="49">100%</text><line class="grid" x1="80" y1="45" x2="80" y2="605"/><text class="small" x="68" y="632">0%</text><line class="grid" x1="327.47474747474746" y1="45" x2="327.47474747474746" y2="605"/><text class="small" x="315.47474747474746" y="632">25%</text><line class="grid" x1="574.9494949494949" y1="45" x2="574.9494949494949" y2="605"/><text class="small" x="562.9494949494949" y="632">50%</text><line class="grid" x1="822.4242424242424" y1="45" x2="822.4242424242424" y2="605"/><text class="small" x="810.4242424242424" y="632">75%</text><line class="grid" x1="1060" y1="45" x2="1060" y2="605"/><text class="small" x="1048" y="632">99%</text><line class="axis" x1="80" y1="605" x2="1060" y2="605"/><line class="axis" x1="80" y1="45" x2="80" y2="605"/><path d="M80.00 605.00 L84.85 73.99 L89.80 75.00 L94.65 75.99 L99.60 77.01 L104.45 78.00 L109.40 79.01 L114.25 80.01 L119.20 81.02 L124.05 82.02 L129.00 83.04 L133.85 84.04 L138.80 85.07 L143.65 86.07 L148.60 87.10 L153.45 88.11 L158.40 89.15 L163.25 90.16 L168.20 91.21 L173.05 92.23 L178.00 93.28 L182.85 94.31 L187.80 95.37 L192.65 96.41 L197.60 97.48 L202.45 98.53 L207.40 99.60 L212.25 100.66 L217.20 101.75 L222.05 102.82 L227.00 103.92 L231.85 105.00 L236.80 106.11 L241.65 107.20 L246.60 108.33 L251.45 109.44 L256.40 110.57 L261.25 111.70 L266.20 112.85 L271.05 113.98 L276.00 115.15 L280.85 116.30 L285.80 117.49 L290.65 118.66 L295.60 119.86 L300.45 121.04 L305.40 122.26 L310.25 123.47 L315.20 124.70 L320.05 125.93 L325.00 127.18 L329.85 128.43 L334.80 129.70 L339.65 130.97 L344.60 132.26 L349.45 133.55 L354.40 134.87 L359.25 136.17 L364.20 137.52 L369.05 138.84 L374.00 140.21 L378.85 141.56 L383.80 142.95 L388.65 144.33 L393.60 145.75 L398.45 147.15 L403.40 148.59 L408.25 150.02 L413.20 151.48 L418.05 152.94 L423.00 154.43 L427.85 155.91 L432.80 157.44 L437.65 158.95 L442.60 160.50 L447.45 162.04 L452.40 163.62 L457.25 165.19 L462.20 166.81 L467.05 168.40 L472.00 170.05 L476.85 171.68 L481.80 173.36 L486.65 175.02 L491.60 176.73 L496.45 178.43 L501.40 180.17 L506.25 181.90 L511.20 183.68 L516.05 185.44 L521.00 187.26 L525.85 189.06 L530.80 190.91 L535.65 192.74 L540.60 194.63 L545.45 196.51 L550.40 198.43 L555.25 200.34 L560.20 202.31 L565.05 204.26 L570.00 206.26 L574.85 208.25 L579.80 210.30 L584.65 212.32 L589.60 214.41 L594.45 216.48 L599.40 218.61 L604.25 220.72 L609.20 222.89 L614.05 225.04 L619.00 227.26 L623.85 229.45 L628.80 231.71 L633.65 233.95 L638.60 236.26 L643.45 238.54 L648.40 240.89 L653.25 243.22 L658.20 245.62 L663.05 247.99 L668.00 250.44 L672.85 252.86 L677.80 255.36 L682.65 257.83 L687.60 260.37 L692.45 262.89 L697.40 265.49 L702.25 268.05 L707.20 270.70 L712.05 273.32 L717.00 276.02 L721.85 278.68 L726.80 281.43 L731.65 284.16 L736.60 286.96 L741.45 289.73 L746.40 292.59 L751.25 295.42 L756.20 298.33 L761.05 301.21 L766.00 304.18 L770.85 307.12 L775.80 310.14 L780.65 313.13 L785.60 316.21 L790.45 319.26 L795.40 322.40 L800.25 325.51 L805.20 328.71 L810.05 331.87 L815.00 335.13 L819.85 338.35 L824.80 341.67 L829.65 344.96 L834.60 348.34 L839.45 351.68 L844.40 355.12 L849.25 358.53 L854.20 362.03 L859.05 365.50 L864.00 369.07 L868.85 372.60 L873.80 376.23 L878.65 379.83 L883.60 383.53 L888.45 387.18 L893.40 390.95 L898.25 394.67 L903.20 398.51 L908.05 402.30 L913.00 406.20 L917.85 410.05 L922.80 414.02 L927.65 417.94 L932.60 421.98 L937.45 425.98 L942.40 430.08 L947.25 434.15 L952.20 438.32 L957.05 442.46 L962.00 446.71 L966.85 450.91 L971.80 455.23 L976.65 459.51 L981.60 463.90 L986.45 468.25 L991.40 472.72 L996.25 477.14 L1001.20 481.69 L1006.05 486.18 L1011.00 490.80 L1015.85 495.37 L1020.80 500.07 L1025.65 504.71 L1030.60 509.49 L1035.45 514.21 L1040.40 519.07 L1045.25 523.86 L1050.20 528.80 L1055.05 533.67 L1060.00 538.68" fill="none" stroke="#d23f31" stroke-width="3"/><path d="M80.00 605.00 L84.85 46.06 L89.80 47.13 L94.65 48.19 L99.60 49.26 L104.45 50.26 L109.40 51.38 L114.25 52.39 L119.20 53.46 L124.05 54.52 L129.00 55.58 L133.85 56.65 L138.80 57.71 L143.65 58.78 L148.60 59.90 L153.45 60.96 L158.40 62.02 L163.25 63.09 L168.20 64.21 L173.05 65.27 L178.00 66.39 L182.85 67.46 L187.80 68.58 L192.65 69.70 L197.60 70.82 L202.45 71.88 L207.40 73.06 L212.25 74.12 L217.20 75.30 L222.05 76.42 L227.00 77.59 L231.85 78.71 L236.80 79.89 L241.65 81.01 L246.60 82.24 L251.45 83.36 L256.40 84.59 L261.25 85.77 L266.20 87.00 L271.05 88.18 L276.00 89.41 L280.85 90.58 L285.80 91.87 L290.65 93.10 L295.60 94.34 L300.45 95.62 L305.40 96.86 L310.25 98.14 L315.20 99.43 L320.05 100.72 L325.00 102.06 L329.85 103.35 L334.80 104.70 L339.65 106.04 L344.60 107.38 L349.45 108.78 L354.40 110.13 L359.25 111.53 L364.20 112.93 L369.05 114.33 L374.00 115.78 L378.85 117.18 L383.80 118.64 L388.65 120.10 L393.60 121.61 L398.45 123.06 L403.40 124.58 L408.25 126.09 L413.20 127.66 L418.05 129.17 L423.00 130.74 L427.85 132.30 L432.80 133.93 L437.65 135.50 L442.60 137.12 L447.45 138.74 L452.40 140.42 L457.25 142.05 L462.20 143.78 L467.05 145.46 L472.00 147.20 L476.85 148.88 L481.80 150.67 L486.65 152.41 L491.60 154.20 L496.45 155.99 L501.40 157.84 L506.25 159.63 L511.20 161.54 L516.05 163.38 L521.00 165.29 L525.85 167.19 L530.80 169.15 L535.65 171.06 L540.60 173.07 L545.45 175.03 L550.40 177.05 L555.25 179.06 L560.20 181.14 L565.05 183.21 L570.00 185.28 L574.85 187.41 L579.80 189.54 L584.65 191.66 L589.60 193.90 L594.45 196.03 L599.40 198.27 L604.25 200.51 L609.20 202.81 L614.05 205.05 L619.00 207.40 L623.85 209.70 L628.80 212.10 L633.65 214.46 L638.60 216.86 L643.45 219.27 L648.40 221.74 L653.25 224.20 L658.20 226.72 L663.05 229.24 L668.00 231.82 L672.85 234.34 L677.80 236.97 L682.65 239.60 L687.60 242.29 L692.45 244.92 L697.40 247.66 L702.25 250.35 L707.20 253.15 L712.05 255.90 L717.00 258.75 L721.85 261.55 L726.80 264.41 L731.65 267.32 L736.60 270.23 L741.45 273.14 L746.40 276.17 L751.25 279.14 L756.20 282.22 L761.05 285.24 L766.00 288.38 L770.85 291.46 L775.80 294.65 L780.65 297.78 L785.60 301.03 L790.45 304.22 L795.40 307.58 L800.25 310.83 L805.20 314.19 L810.05 317.55 L815.00 320.97 L819.85 324.33 L824.80 327.86 L829.65 331.27 L834.60 334.86 L839.45 338.38 L844.40 342.02 L849.25 345.61 L854.20 349.25 L859.05 352.94 L864.00 356.70 L868.85 360.39 L873.80 364.20 L878.65 368.01 L883.60 371.87 L888.45 375.74 L893.40 379.71 L898.25 383.63 L903.20 387.66 L908.05 391.64 L913.00 395.78 L917.85 399.82 L922.80 404.02 L927.65 408.10 L932.60 412.36 L937.45 416.56 L942.40 420.93 L947.25 425.18 L952.20 429.61 L957.05 433.92 L962.00 438.40 L966.85 442.82 L971.80 447.36 L976.65 451.90 L981.60 456.49 L986.45 461.08 L991.40 465.78 L996.25 470.43 L1001.20 475.25 L1006.05 479.95 L1011.00 484.82 L1015.85 489.64 L1020.80 494.57 L1025.65 499.44 L1030.60 504.48 L1035.45 509.46 L1040.40 514.56 L1045.25 519.60 L1050.20 524.81 L1055.05 529.96 L1060.00 535.22" fill="none" stroke="#2b8cbe" stroke-width="2" stroke-dasharray="7 5"/><path d="M80.00 605.00 L84.85 602.26 L89.80 599.46 L94.65 596.71 L99.60 593.91 L104.45 591.17 L109.40 588.37 L114.25 585.62 L119.20 582.82 L124.05 580.08 L129.00 577.28 L133.85 574.54 L138.80 571.74 L143.65 568.99 L148.60 566.19 L153.45 563.45 L158.40 560.65 L163.25 557.90 L168.20 555.10 L173.05 552.36 L178.00 549.56 L182.85 546.82 L187.80 544.02 L192.65 541.27 L197.60 538.47 L202.45 535.73 L207.40 532.93 L212.25 530.18 L217.20 527.38 L222.05 524.64 L227.00 521.84 L231.85 519.10 L236.80 516.30 L241.65 513.55 L246.60 510.75 L251.45 508.01 L256.40 505.21 L261.25 502.46 L266.20 499.66 L271.05 496.92 L276.00 494.12 L280.85 491.38 L285.80 488.58 L290.65 485.83 L295.60 483.03 L300.45 480.29 L305.40 477.49 L310.25 474.74 L315.20 471.94 L320.05 469.20 L325.00 466.40 L329.85 463.66 L334.80 460.86 L339.65 458.11 L344.60 455.31 L349.45 452.57 L354.40 449.77 L359.25 447.02 L364.20 444.22 L369.05 441.48 L374.00 438.68 L378.85 435.94 L383.80 433.14 L388.65 430.39 L393.60 427.59 L398.45 424.85 L403.40 422.05 L408.25 419.30 L413.20 416.50 L418.05 413.76 L423.00 410.96 L427.85 408.22 L432.80 405.42 L437.65 402.67 L442.60 399.87 L447.45 397.13 L452.40 394.33 L457.25 391.58 L462.20 388.78 L467.05 386.04 L472.00 383.24 L476.85 380.50 L481.80 377.70 L486.65 374.95 L491.60 372.15 L496.45 369.41 L501.40 366.61 L506.25 363.86 L511.20 361.06 L516.05 358.32 L521.00 355.52 L525.85 352.78 L530.80 349.98 L535.65 347.23 L540.60 344.43 L545.45 341.69 L550.40 338.89 L555.25 336.14 L560.20 333.34 L565.05 330.60 L570.00 327.80 L574.85 325.06 L579.80 322.26 L584.65 319.51 L589.60 316.71 L594.45 313.97 L599.40 311.17 L604.25 308.42 L609.20 305.62 L614.05 302.88 L619.00 300.08 L623.85 297.34 L628.80 294.54 L633.65 291.79 L638.60 288.99 L643.45 286.25 L648.40 283.45 L653.25 280.70 L658.20 277.90 L663.05 275.16 L668.00 272.36 L672.85 269.62 L677.80 266.82 L682.65 264.07 L687.60 261.27 L692.45 258.53 L697.40 255.73 L702.25 252.98 L707.20 250.18 L712.05 247.44 L717.00 244.64 L721.85 241.90 L726.80 239.10 L731.65 236.35 L736.60 233.55 L741.45 230.81 L746.40 228.01 L751.25 225.26 L756.20 222.46 L761.05 219.72 L766.00 216.92 L770.85 214.18 L775.80 211.38 L780.65 208.63 L785.60 205.83 L790.45 203.09 L795.40 200.29 L800.25 197.54 L805.20 194.74 L810.05 192.00 L815.00 189.20 L819.85 186.46 L824.80 183.66 L829.65 180.91 L834.60 178.11 L839.45 175.37 L844.40 172.57 L849.25 169.82 L854.20 167.02 L859.05 164.28 L864.00 161.48 L868.85 158.74 L873.80 155.94 L878.65 153.19 L883.60 150.39 L888.45 147.65 L893.40 144.85 L898.25 142.10 L903.20 139.30 L908.05 136.56 L913.00 133.76 L917.85 131.02 L922.80 128.22 L927.65 125.47 L932.60 122.67 L937.45 119.93 L942.40 117.13 L947.25 114.38 L952.20 111.58 L957.05 108.84 L962.00 106.04 L966.85 103.30 L971.80 100.50 L976.65 97.75 L981.60 94.95 L986.45 92.21 L991.40 89.41 L996.25 86.66 L1001.20 83.86 L1006.05 81.12 L1011.00 78.32 L1015.85 75.58 L1020.80 72.78 L1025.65 70.03 L1030.60 67.23 L1035.45 64.49 L1040.40 61.69 L1045.25 58.94 L1050.20 56.14 L1055.05 53.40 L1060.00 50.60" fill="none" stroke="#8795a1" stroke-width="2"/><path d="M80.00 605.00 L84.85 602.40 L89.80 599.75 L94.65 597.17 L99.60 594.55 L104.45 591.98 L109.40 589.38 L114.25 586.84 L119.20 584.25 L124.05 581.73 L129.00 579.16 L133.85 576.66 L138.80 574.12 L143.65 571.63 L148.60 569.11 L153.45 566.65 L158.40 564.14 L163.25 561.70 L168.20 559.22 L173.05 556.80 L178.00 554.34 L182.85 551.94 L187.80 549.50 L192.65 547.12 L197.60 544.71 L202.45 542.35 L207.40 539.96 L212.25 537.62 L217.20 535.25 L222.05 532.94 L227.00 530.59 L231.85 528.30 L236.80 525.98 L241.65 523.71 L246.60 521.41 L251.45 519.17 L256.40 516.89 L261.25 514.68 L266.20 512.43 L271.05 510.23 L276.00 508.01 L280.85 505.84 L285.80 503.65 L290.65 501.51 L295.60 499.34 L300.45 497.22 L305.40 495.08 L310.25 493.00 L315.20 490.88 L320.05 488.82 L325.00 486.74 L329.85 484.71 L334.80 482.66 L339.65 480.66 L344.60 478.64 L349.45 476.67 L354.40 474.68 L359.25 472.74 L364.20 470.79 L369.05 468.88 L374.00 466.96 L378.85 465.09 L383.80 463.20 L388.65 461.36 L393.60 459.51 L398.45 457.71 L403.40 455.89 L408.25 454.13 L413.20 452.35 L418.05 450.62 L423.00 448.88 L427.85 447.19 L432.80 445.49 L437.65 443.84 L442.60 442.18 L447.45 440.57 L452.40 438.95 L457.25 437.39 L462.20 435.81 L467.05 434.29 L472.00 432.76 L476.85 431.28 L481.80 429.80 L486.65 428.36 L491.60 426.93 L496.45 425.54 L501.40 424.15 L506.25 422.81 L511.20 421.47 L516.05 420.19 L521.00 418.90 L525.85 417.66 L530.80 416.42 L535.65 415.24 L540.60 414.06 L545.45 412.93 L550.40 411.80 L555.25 410.72 L560.20 409.65 L565.05 408.64 L570.00 407.62 L574.85 406.66 L579.80 405.71 L584.65 404.81 L589.60 403.92 L594.45 403.08 L599.40 402.26 L604.25 401.48 L609.20 400.72 L614.05 400.01 L619.00 399.32 L623.85 398.67 L628.80 398.05 L633.65 397.47 L638.60 396.92 L643.45 396.41 L648.40 395.93 L653.25 395.49 L658.20 395.09 L663.05 394.72 L668.00 394.39 L672.85 394.11 L677.80 393.85 L682.65 393.64 L687.60 393.47 L692.45 393.34 L697.40 393.25 L702.25 393.20 L707.20 393.19 L712.05 393.22 L717.00 393.30 L721.85 393.42 L726.80 393.58 L731.65 393.79 L736.60 394.04 L741.45 394.34 L746.40 394.69 L751.25 395.07 L756.20 395.51 L761.05 395.99 L766.00 396.53 L770.85 397.11 L775.80 397.74 L780.65 398.42 L785.60 399.15 L790.45 399.93 L795.40 400.77 L800.25 401.64 L805.20 402.59 L810.05 403.57 L815.00 404.62 L819.85 405.71 L824.80 406.87 L829.65 408.07 L834.60 409.35 L839.45 410.65 L844.40 412.05 L849.25 413.47 L854.20 414.98 L859.05 416.51 L864.00 418.14 L868.85 419.80 L873.80 421.55 L878.65 423.33 L883.60 425.21 L888.45 427.11 L893.40 429.12 L898.25 431.14 L903.20 433.28 L908.05 435.44 L913.00 437.71 L917.85 440.00 L922.80 442.40 L927.65 444.82 L932.60 447.37 L937.45 449.93 L942.40 452.61 L947.25 455.31 L952.20 458.14 L957.05 460.99 L962.00 463.96 L966.85 466.95 L971.80 470.08 L976.65 473.21 L981.60 476.49 L986.45 479.78 L991.40 483.21 L996.25 486.65 L1001.20 490.25 L1006.05 493.84 L1011.00 497.60 L1015.85 501.36 L1020.80 505.28 L1025.65 509.20 L1030.60 513.28 L1035.45 517.37 L1040.40 521.63 L1045.25 525.88 L1050.20 530.31 L1055.05 534.74 L1060.00 539.35" fill="none" stroke="#2ca25f" stroke-width="2"/><text class="small" x="420" y="666">raw sell size / hard-wall reserve</text><text class="small" transform="translate(18 430) rotate(-90)">effective payout % / output scale</text><rect x="690" y="58" width="362" height="114" rx="10" fill="#ffffff" stroke="#d8e0e8"/><line x1="708" y1="86" x2="743" y2="86" stroke="#d23f31" stroke-width="3"/><text class="legend" x="753" y="91">effective payout %</text><line x1="708" y1="108" x2="743" y2="108" stroke="#2b8cbe" stroke-width="2" stroke-dasharray="7 5"/><text class="legend" x="753" y="113">dampened / fee-adjusted raw</text><line x1="708" y1="130" x2="743" y2="130" stroke="#8795a1" stroke-width="2"/><text class="legend" x="753" y="135">raw output</text><line x1="708" y1="152" x2="743" y2="152" stroke="#2ca25f" stroke-width="2"/><text class="legend" x="753" y="157">actual payout</text></svg>