<svg xmlns="http://www.w3.org/2000/svg" width="1100" height="680" viewBox="0 0 1100 680"><style>.bg{fill:#fbfdff}.grid{stroke:#d8e0e8;stroke-width:1}.axis{stroke:#4a5568;stroke-width:1.5}.small{font:14px sans-serif;fill:#334155}.legend{font:15px sans-serif;fill:#1f2937}</style><rect class="bg" width="1100" height="680"/><text x="80" y="30" class="legend">Prop AMM Hard-Wall Curve</text><text x="80" y="50" class="small">X: raw sell size as % of hard-wall reserve. Fullness 100.00%. linear_weight_bps=4000, base_exponent=2.</text><line class="grid" x1="80" y1="605" x2="1060" y2="605"/><text class="small" x="28" y="609">0%</text><line class="grid" x1="80" y1="465" x2="1060" y2="465"/><text class="small" x="28" y="469">25%</text><line class="grid" x1="80" y1="325" x2="1060" y2="325"/><text class="small" x="28" y="329">50%</text><line class="grid" x1="80" y1="185" x2="1060" y2="185"/><text class="small" x="28" y="189">75%</text><line class="grid" x1="80" y1="45" x2="1060" y2="45"/><text class="small" x="28" y="49">100%</text><line class="grid" x1="80" y1="45" x2="80" y2="605"/><text class="small" x="68" y="632">0%</text><line class="grid" x1="327.47474747474746" y1="45" x2="327.47474747474746" y2="605"/><text class="small" x="315.47474747474746" y="632">25%</text><line class="grid" x1="574.9494949494949" y1="45" x2="574.9494949494949" y2="605"/><text class="small" x="562.9494949494949" y="632">50%</text><line class="grid" x1="822.4242424242424" y1="45" x2="822.4242424242424" y2="605"/><text class="small" x="810.4242424242424" y="632">75%</text><line class="grid" x1="1060" y1="45" x2="1060" y2="605"/><text class="small" x="1048" y="632">99%</text><line class="axis" x1="80" y1="605" x2="1060" y2="605"/><line class="axis" x1="80" y1="45" x2="80" y2="605"/><path d="M80.00 605.00 L84.85 74.01 L89.80 75.03 L94.65 76.06 L99.60 77.12 L104.45 78.17 L109.40 79.26 L114.25 80.34 L119.20 81.46 L124.05 82.57 L129.00 83.71 L133.85 84.85 L138.80 86.03 L143.65 87.19 L148.60 88.39 L153.45 89.59 L158.40 90.82 L163.25 92.04 L168.20 93.30 L173.05 94.55 L178.00 95.84 L182.85 97.11 L187.80 98.43 L192.65 99.74 L197.60 101.08 L202.45 102.42 L207.40 103.79 L212.25 105.15 L217.20 106.55 L222.05 107.94 L227.00 109.37 L231.85 110.79 L236.80 112.25 L241.65 113.70 L246.60 115.18 L251.45 116.66 L256.40 118.17 L261.25 119.67 L266.20 121.22 L271.05 122.75 L276.00 124.32 L280.85 125.88 L285.80 127.48 L290.65 129.06 L295.60 130.70 L300.45 132.31 L305.40 133.97 L310.25 135.61 L315.20 137.30 L320.05 138.96 L325.00 140.68 L329.85 142.38 L334.80 144.12 L339.65 145.85 L344.60 147.62 L349.45 149.37 L354.40 151.17 L359.25 152.95 L364.20 154.79 L369.05 156.59 L374.00 158.45 L378.85 160.29 L383.80 162.18 L388.65 164.04 L393.60 165.96 L398.45 167.85 L403.40 169.79 L408.25 171.71 L413.20 173.69 L418.05 175.63 L423.00 177.64 L427.85 179.61 L432.80 181.64 L437.65 183.65 L442.60 185.70 L447.45 187.74 L452.40 189.82 L457.25 191.88 L462.20 194.00 L467.05 196.09 L472.00 198.23 L476.85 200.35 L481.80 202.52 L486.65 204.66 L491.60 206.86 L496.45 209.04 L501.40 211.27 L506.25 213.46 L511.20 215.72 L516.05 217.95 L521.00 220.24 L525.85 222.49 L530.80 224.81 L535.65 227.09 L540.60 229.44 L545.45 231.75 L550.40 234.12 L555.25 236.46 L560.20 238.86 L565.05 241.23 L570.00 243.66 L574.85 246.05 L579.80 248.51 L584.65 250.93 L589.60 253.42 L594.45 255.87 L599.40 258.38 L604.25 260.86 L609.20 263.41 L614.05 265.91 L619.00 268.49 L623.85 271.02 L628.80 273.62 L633.65 276.18 L638.60 278.81 L643.45 281.40 L648.40 284.06 L653.25 286.68 L658.20 289.37 L663.05 292.01 L668.00 294.73 L672.85 297.40 L677.80 300.15 L682.65 302.85 L687.60 305.62 L692.45 308.35 L697.40 311.15 L702.25 313.91 L707.20 316.74 L712.05 319.52 L717.00 322.38 L721.85 325.20 L726.80 328.08 L731.65 330.92 L736.60 333.84 L741.45 336.71 L746.40 339.65 L751.25 342.55 L756.20 345.52 L761.05 348.45 L766.00 351.45 L770.85 354.40 L775.80 357.43 L780.65 360.41 L785.60 363.47 L790.45 366.48 L795.40 369.56 L800.25 372.60 L805.20 375.71 L810.05 378.78 L815.00 381.92 L819.85 385.02 L824.80 388.19 L829.65 391.31 L834.60 394.51 L839.45 397.66 L844.40 400.89 L849.25 404.06 L854.20 407.32 L859.05 410.53 L864.00 413.81 L868.85 417.05 L873.80 420.36 L878.65 423.62 L883.60 426.96 L888.45 430.25 L893.40 433.62 L898.25 436.94 L903.20 440.34 L908.05 443.68 L913.00 447.11 L917.85 450.49 L922.80 453.94 L927.65 457.34 L932.60 460.83 L937.45 464.26 L942.40 467.77 L947.25 471.23 L952.20 474.77 L957.05 478.25 L962.00 481.82 L966.85 485.34 L971.80 488.94 L976.65 492.48 L981.60 496.10 L986.45 499.67 L991.40 503.33 L996.25 506.93 L1001.20 510.61 L1006.05 514.24 L1011.00 517.95 L1015.85 521.60 L1020.80 525.34 L1025.65 529.02 L1030.60 532.79 L1035.45 536.50 L1040.40 540.30 L1045.25 544.04 L1050.20 547.86 L1055.05 551.63 L1060.00 555.48" fill="none" stroke="#d23f31" stroke-width="3"/><path d="M80.00 605.00 L84.85 46.06 L89.80 47.18 L94.65 48.25 L99.60 49.37 L104.45 50.49 L109.40 51.61 L114.25 52.73 L119.20 53.90 L124.05 55.08 L129.00 56.31 L133.85 57.49 L138.80 58.72 L143.65 59.95 L148.60 61.24 L153.45 62.47 L158.40 63.76 L163.25 65.05 L168.20 66.39 L173.05 67.74 L178.00 69.08 L182.85 70.42 L187.80 71.82 L192.65 73.17 L197.60 74.57 L202.45 75.97 L207.40 77.42 L212.25 78.88 L217.20 80.34 L222.05 81.79 L227.00 83.30 L231.85 84.82 L236.80 86.33 L241.65 87.84 L246.60 89.41 L251.45 90.98 L256.40 92.60 L261.25 94.17 L266.20 95.79 L271.05 97.42 L276.00 99.04 L280.85 100.66 L285.80 102.40 L290.65 104.02 L295.60 105.76 L300.45 107.44 L305.40 109.23 L310.25 110.91 L315.20 112.70 L320.05 114.44 L325.00 116.29 L329.85 118.08 L334.80 119.87 L339.65 121.72 L344.60 123.57 L349.45 125.42 L354.40 127.32 L359.25 129.17 L364.20 131.13 L369.05 133.03 L374.00 134.99 L378.85 136.90 L383.80 138.91 L388.65 140.87 L393.60 142.89 L398.45 144.85 L403.40 146.92 L408.25 148.94 L413.20 151.01 L418.05 153.08 L423.00 155.15 L427.85 157.22 L432.80 159.41 L437.65 161.48 L442.60 163.66 L447.45 165.79 L452.40 167.98 L457.25 170.16 L462.20 172.40 L467.05 174.58 L472.00 176.82 L476.85 179.06 L481.80 181.36 L486.65 183.60 L491.60 185.95 L496.45 188.25 L501.40 190.54 L506.25 192.90 L511.20 195.25 L516.05 197.60 L521.00 200.01 L525.85 202.42 L530.80 204.82 L535.65 207.23 L540.60 209.70 L545.45 212.10 L550.40 214.62 L555.25 217.09 L560.20 219.61 L565.05 222.13 L570.00 224.65 L574.85 227.17 L579.80 229.80 L584.65 232.32 L589.60 234.95 L594.45 237.53 L599.40 240.16 L604.25 242.79 L609.20 245.48 L614.05 248.11 L619.00 250.80 L623.85 253.49 L628.80 256.23 L633.65 258.92 L638.60 261.66 L643.45 264.41 L648.40 267.21 L653.25 269.95 L658.20 272.81 L663.05 275.55 L668.00 278.41 L672.85 281.26 L677.80 284.12 L682.65 286.98 L687.60 289.89 L692.45 292.74 L697.40 295.71 L702.25 298.62 L707.20 301.59 L712.05 304.50 L717.00 307.53 L721.85 310.50 L726.80 313.52 L731.65 316.54 L736.60 319.57 L741.45 322.59 L746.40 325.73 L751.25 328.75 L756.20 331.89 L761.05 334.97 L766.00 338.10 L770.85 341.24 L775.80 344.43 L780.65 347.57 L785.60 350.76 L790.45 353.95 L795.40 357.20 L800.25 360.39 L805.20 363.70 L810.05 366.89 L815.00 370.19 L819.85 373.44 L824.80 376.80 L829.65 380.10 L834.60 383.46 L839.45 386.77 L844.40 390.18 L849.25 393.54 L854.20 396.96 L859.05 400.32 L864.00 403.79 L868.85 407.21 L873.80 410.68 L878.65 414.10 L883.60 417.62 L888.45 421.10 L893.40 424.62 L898.25 428.10 L903.20 431.68 L908.05 435.21 L913.00 438.85 L917.85 442.38 L922.80 446.02 L927.65 449.60 L932.60 453.24 L937.45 456.88 L942.40 460.58 L947.25 464.22 L952.20 467.97 L957.05 471.61 L962.00 475.36 L966.85 479.06 L971.80 482.86 L976.65 486.56 L981.60 490.42 L986.45 494.18 L991.40 497.98 L996.25 501.79 L1001.20 505.66 L1006.05 509.46 L1011.00 513.38 L1015.85 517.25 L1020.80 521.17 L1025.65 525.03 L1030.60 529.01 L1035.45 532.93 L1040.40 536.90 L1045.25 540.88 L1050.20 544.91 L1055.05 548.83 L1060.00 552.92" fill="none" stroke="#2b8cbe" stroke-width="2" stroke-dasharray="7 5"/><path d="M80.00 605.00 L84.85 602.26 L89.80 599.46 L94.65 596.71 L99.60 593.91 L104.45 591.17 L109.40 588.37 L114.25 585.62 L119.20 582.82 L124.05 580.08 L129.00 577.28 L133.85 574.54 L138.80 571.74 L143.65 568.99 L148.60 566.19 L153.45 563.45 L158.40 560.65 L163.25 557.90 L168.20 555.10 L173.05 552.36 L178.00 549.56 L182.85 546.82 L187.80 544.02 L192.65 541.27 L197.60 538.47 L202.45 535.73 L207.40 532.93 L212.25 530.18 L217.20 527.38 L222.05 524.64 L227.00 521.84 L231.85 519.10 L236.80 516.30 L241.65 513.55 L246.60 510.75 L251.45 508.01 L256.40 505.21 L261.25 502.46 L266.20 499.66 L271.05 496.92 L276.00 494.12 L280.85 491.38 L285.80 488.58 L290.65 485.83 L295.60 483.03 L300.45 480.29 L305.40 477.49 L310.25 474.74 L315.20 471.94 L320.05 469.20 L325.00 466.40 L329.85 463.66 L334.80 460.86 L339.65 458.11 L344.60 455.31 L349.45 452.57 L354.40 449.77 L359.25 447.02 L364.20 444.22 L369.05 441.48 L374.00 438.68 L378.85 435.94 L383.80 433.14 L388.65 430.39 L393.60 427.59 L398.45 424.85 L403.40 422.05 L408.25 419.30 L413.20 416.50 L418.05 413.76 L423.00 410.96 L427.85 408.22 L432.80 405.42 L437.65 402.67 L442.60 399.87 L447.45 397.13 L452.40 394.33 L457.25 391.58 L462.20 388.78 L467.05 386.04 L472.00 383.24 L476.85 380.50 L481.80 377.70 L486.65 374.95 L491.60 372.15 L496.45 369.41 L501.40 366.61 L506.25 363.86 L511.20 361.06 L516.05 358.32 L521.00 355.52 L525.85 352.78 L530.80 349.98 L535.65 347.23 L540.60 344.43 L545.45 341.69 L550.40 338.89 L555.25 336.14 L560.20 333.34 L565.05 330.60 L570.00 327.80 L574.85 325.06 L579.80 322.26 L584.65 319.51 L589.60 316.71 L594.45 313.97 L599.40 311.17 L604.25 308.42 L609.20 305.62 L614.05 302.88 L619.00 300.08 L623.85 297.34 L628.80 294.54 L633.65 291.79 L638.60 288.99 L643.45 286.25 L648.40 283.45 L653.25 280.70 L658.20 277.90 L663.05 275.16 L668.00 272.36 L672.85 269.62 L677.80 266.82 L682.65 264.07 L687.60 261.27 L692.45 258.53 L697.40 255.73 L702.25 252.98 L707.20 250.18 L712.05 247.44 L717.00 244.64 L721.85 241.90 L726.80 239.10 L731.65 236.35 L736.60 233.55 L741.45 230.81 L746.40 228.01 L751.25 225.26 L756.20 222.46 L761.05 219.72 L766.00 216.92 L770.85 214.18 L775.80 211.38 L780.65 208.63 L785.60 205.83 L790.45 203.09 L795.40 200.29 L800.25 197.54 L805.20 194.74 L810.05 192.00 L815.00 189.20 L819.85 186.46 L824.80 183.66 L829.65 180.91 L834.60 178.11 L839.45 175.37 L844.40 172.57 L849.25 169.82 L854.20 167.02 L859.05 164.28 L864.00 161.48 L868.85 158.74 L873.80 155.94 L878.65 153.19 L883.60 150.39 L888.45 147.65 L893.40 144.85 L898.25 142.10 L903.20 139.30 L908.05 136.56 L913.00 133.76 L917.85 131.02 L922.80 128.22 L927.65 125.47 L932.60 122.67 L937.45 119.93 L942.40 117.13 L947.25 114.38 L952.20 111.58 L957.05 108.84 L962.00 106.04 L966.85 103.30 L971.80 100.50 L976.65 97.75 L981.60 94.95 L986.45 92.21 L991.40 89.41 L996.25 86.66 L1001.20 83.86 L1006.05 81.12 L1011.00 78.32 L1015.85 75.58 L1020.80 72.78 L1025.65 70.03 L1030.60 67.23 L1035.45 64.49 L1040.40 61.69 L1045.25 58.94 L1050.20 56.14 L1055.05 53.40 L1060.00 50.60" fill="none" stroke="#8795a1" stroke-width="2"/><path d="M80.00 605.00 L84.85 602.40 L89.80 599.75 L94.65 597.17 L99.60 594.55 L104.45 591.99 L109.40 589.39 L114.25 586.85 L119.20 584.27 L124.05 581.75 L129.00 579.20 L133.85 576.70 L138.80 574.17 L143.65 571.70 L148.60 569.20 L153.45 566.76 L158.40 564.28 L163.25 561.86 L168.20 559.41 L173.05 557.02 L178.00 554.59 L182.85 552.23 L187.80 549.83 L192.65 547.50 L197.60 545.13 L202.45 542.83 L207.40 540.49 L212.25 538.22 L217.20 535.92 L222.05 533.67 L227.00 531.40 L231.85 529.19 L236.80 526.95 L241.65 524.77 L246.60 522.56 L251.45 520.42 L256.40 518.25 L261.25 516.14 L266.20 514.00 L271.05 511.93 L276.00 509.83 L280.85 507.79 L285.80 505.72 L290.65 503.72 L295.60 501.70 L300.45 499.73 L305.40 497.75 L310.25 495.82 L315.20 493.87 L320.05 491.99 L325.00 490.08 L329.85 488.23 L334.80 486.37 L339.65 484.56 L344.60 482.74 L349.45 480.98 L354.40 479.20 L359.25 477.48 L364.20 475.74 L369.05 474.07 L374.00 472.38 L378.85 470.74 L383.80 469.10 L388.65 467.51 L393.60 465.91 L398.45 464.37 L403.40 462.82 L408.25 461.32 L413.20 459.82 L418.05 458.37 L423.00 456.92 L427.85 455.52 L432.80 454.12 L437.65 452.76 L442.60 451.41 L447.45 450.11 L452.40 448.81 L457.25 447.56 L462.20 446.31 L467.05 445.11 L472.00 443.92 L476.85 442.77 L481.80 441.63 L486.65 440.54 L491.60 439.45 L496.45 438.42 L501.40 437.39 L506.25 436.40 L511.20 435.43 L516.05 434.50 L521.00 433.59 L525.85 432.72 L530.80 431.86 L535.65 431.05 L540.60 430.25 L545.45 429.50 L550.40 428.76 L555.25 428.06 L560.20 427.38 L565.05 426.75 L570.00 426.13 L574.85 425.56 L579.80 425.01 L584.65 424.50 L589.60 424.01 L594.45 423.56 L599.40 423.13 L604.25 422.75 L609.20 422.38 L614.05 422.06 L619.00 421.77 L623.85 421.51 L628.80 421.28 L633.65 421.09 L638.60 420.93 L643.45 420.81 L648.40 420.72 L653.25 420.66 L658.20 420.64 L663.05 420.65 L668.00 420.70 L672.85 420.78 L677.80 420.90 L682.65 421.05 L687.60 421.24 L692.45 421.46 L697.40 421.73 L702.25 422.02 L707.20 422.36 L712.05 422.72 L717.00 423.13 L721.85 423.57 L726.80 424.06 L731.65 424.58 L736.60 425.14 L741.45 425.73 L746.40 426.37 L751.25 427.03 L756.20 427.75 L761.05 428.49 L766.00 429.29 L770.85 430.11 L775.80 430.98 L780.65 431.88 L785.60 432.84 L790.45 433.81 L795.40 434.85 L800.25 435.91 L805.20 437.03 L810.05 438.16 L815.00 439.37 L819.85 440.58 L824.80 441.87 L829.65 443.17 L834.60 444.54 L839.45 445.93 L844.40 447.38 L849.25 448.85 L854.20 450.40 L859.05 451.95 L864.00 453.58 L868.85 455.22 L873.80 456.94 L878.65 458.66 L883.60 460.47 L888.45 462.28 L893.40 464.18 L898.25 466.08 L903.20 468.07 L908.05 470.06 L913.00 472.14 L917.85 474.22 L922.80 476.39 L927.65 478.56 L932.60 480.82 L937.45 483.09 L942.40 485.45 L947.25 487.80 L952.20 490.25 L957.05 492.70 L962.00 495.25 L966.85 497.79 L971.80 500.44 L976.65 503.08 L981.60 505.82 L986.45 508.55 L991.40 511.39 L996.25 514.22 L1001.20 517.16 L1006.05 520.09 L1011.00 523.13 L1015.85 526.15 L1020.80 529.29 L1025.65 532.42 L1030.60 535.66 L1035.45 538.89 L1040.40 542.23 L1045.25 545.55 L1050.20 549.00 L1055.05 552.43 L1060.00 555.98" fill="none" stroke="#2ca25f" stroke-width="2"/><text class="small" x="420" y="666">raw sell size / hard-wall reserve</text><text class="small" transform="translate(18 430) rotate(-90)">effective payout % / output scale</text><rect x="690" y="58" width="362" height="114" rx="10" fill="#ffffff" stroke="#d8e0e8"/><line x1="708" y1="86" x2="743" y2="86" stroke="#d23f31" stroke-width="3"/><text class="legend" x="753" y="91">effective payout %</text><line x1="708" y1="108" x2="743" y2="108" stroke="#2b8cbe" stroke-width="2" stroke-dasharray="7 5"/><text class="legend" x="753" y="113">dampened / fee-adjusted raw</text><line x1="708" y1="130" x2="743" y2="130" stroke="#8795a1" stroke-width="2"/><text class="legend" x="753" y="135">raw output</text><line x1="708" y1="152" x2="743" y2="152" stroke="#2ca25f" stroke-width="2"/><text class="legend" x="753" y="157">actual payout</text></svg>