<svg xmlns="http://www.w3.org/2000/svg" width="1100" height="680" viewBox="0 0 1100 680"><style>.bg{fill:#fbfdff}.grid{stroke:#d8e0e8;stroke-width:1}.axis{stroke:#4a5568;stroke-width:1.5}.small{font:14px sans-serif;fill:#334155}.legend{font:15px sans-serif;fill:#1f2937}</style><rect class="bg" width="1100" height="680"/><text x="80" y="30" class="legend">Prop AMM Hard-Wall Curve</text><text x="80" y="50" class="small">X: raw sell size as % of hard-wall reserve. Fullness 100.00%. linear_weight_bps=4000, base_exponent=5.</text><line class="grid" x1="80" y1="605" x2="1060" y2="605"/><text class="small" x="28" y="609">0%</text><line class="grid" x1="80" y1="465" x2="1060" y2="465"/><text class="small" x="28" y="469">25%</text><line class="grid" x1="80" y1="325" x2="1060" y2="325"/><text class="small" x="28" y="329">50%</text><line class="grid" x1="80" y1="185" x2="1060" y2="185"/><text class="small" x="28" y="189">75%</text><line class="grid" x1="80" y1="45" x2="1060" y2="45"/><text class="small" x="28" y="49">100%</text><line class="grid" x1="80" y1="45" x2="80" y2="605"/><text class="small" x="68" y="632">0%</text><line class="grid" x1="327.47474747474746" y1="45" x2="327.47474747474746" y2="605"/><text class="small" x="315.47474747474746" y="632">25%</text><line class="grid" x1="574.9494949494949" y1="45" x2="574.9494949494949" y2="605"/><text class="small" x="562.9494949494949" y="632">50%</text><line class="grid" x1="822.4242424242424" y1="45" x2="822.4242424242424" y2="605"/><text class="small" x="810.4242424242424" y="632">75%</text><line class="grid" x1="1060" y1="45" x2="1060" y2="605"/><text class="small" x="1048" y="632">99%</text><line class="axis" x1="80" y1="605" x2="1060" y2="605"/><line class="axis" x1="80" y1="45" x2="80" y2="605"/><path d="M80.00 605.00 L84.85 73.99 L89.80 75.00 L94.65 75.99 L99.60 77.00 L104.45 77.99 L109.40 79.01 L114.25 80.00 L119.20 81.01 L124.05 82.00 L129.00 83.01 L133.85 84.00 L138.80 85.01 L143.65 86.00 L148.60 87.01 L153.45 88.00 L158.40 89.01 L163.25 90.00 L168.20 91.01 L173.05 92.01 L178.00 93.02 L182.85 94.01 L187.80 95.02 L192.65 96.01 L197.60 97.02 L202.45 98.01 L207.40 99.03 L212.25 100.02 L217.20 101.03 L222.05 102.03 L227.00 103.04 L231.85 104.03 L236.80 105.05 L241.65 106.04 L246.60 107.06 L251.45 108.05 L256.40 109.07 L261.25 110.07 L266.20 111.08 L271.05 112.08 L276.00 113.10 L280.85 114.10 L285.80 115.13 L290.65 116.13 L295.60 117.15 L300.45 118.16 L305.40 119.18 L310.25 120.19 L315.20 121.22 L320.05 122.23 L325.00 123.26 L329.85 124.28 L334.80 125.32 L339.65 126.33 L344.60 127.37 L349.45 128.40 L354.40 129.44 L359.25 130.47 L364.20 131.52 L369.05 132.56 L374.00 133.61 L378.85 134.65 L383.80 135.72 L388.65 136.76 L393.60 137.83 L398.45 138.89 L403.40 139.96 L408.25 141.03 L413.20 142.11 L418.05 143.18 L423.00 144.28 L427.85 145.36 L432.80 146.47 L437.65 147.56 L442.60 148.68 L447.45 149.78 L452.40 150.91 L457.25 152.03 L462.20 153.17 L467.05 154.30 L472.00 155.46 L476.85 156.60 L481.80 157.78 L486.65 158.94 L491.60 160.13 L496.45 161.30 L501.40 162.51 L506.25 163.71 L511.20 164.93 L516.05 166.15 L521.00 167.40 L525.85 168.63 L530.80 169.90 L535.65 171.16 L540.60 172.45 L545.45 173.73 L550.40 175.05 L555.25 176.36 L560.20 177.70 L565.05 179.04 L570.00 180.41 L574.85 181.77 L579.80 183.17 L584.65 184.57 L589.60 186.00 L594.45 187.43 L599.40 188.90 L604.25 190.35 L609.20 191.86 L614.05 193.35 L619.00 194.90 L623.85 196.43 L628.80 198.01 L633.65 199.59 L638.60 201.21 L643.45 202.83 L648.40 204.50 L653.25 206.16 L658.20 207.87 L663.05 209.58 L668.00 211.35 L672.85 213.10 L677.80 214.92 L682.65 216.73 L687.60 218.60 L692.45 220.47 L697.40 222.40 L702.25 224.32 L707.20 226.31 L712.05 228.29 L717.00 230.34 L721.85 232.39 L726.80 234.51 L731.65 236.62 L736.60 238.81 L741.45 240.98 L746.40 243.24 L751.25 245.50 L756.20 247.83 L761.05 250.16 L766.00 252.57 L770.85 254.98 L775.80 257.48 L780.65 259.97 L785.60 262.55 L790.45 265.12 L795.40 267.79 L800.25 270.46 L805.20 273.22 L810.05 275.98 L815.00 278.84 L819.85 281.70 L824.80 284.66 L829.65 287.62 L834.60 290.69 L839.45 293.75 L844.40 296.92 L849.25 300.09 L854.20 303.39 L859.05 306.67 L864.00 310.08 L868.85 313.48 L873.80 317.01 L878.65 320.54 L883.60 324.20 L888.45 327.85 L893.40 331.64 L898.25 335.42 L903.20 339.35 L908.05 343.27 L913.00 347.34 L917.85 351.40 L922.80 355.62 L927.65 359.82 L932.60 364.19 L937.45 368.55 L942.40 373.08 L947.25 377.59 L952.20 382.28 L957.05 386.96 L962.00 391.82 L966.85 396.67 L971.80 401.70 L976.65 406.72 L981.60 411.94 L986.45 417.14 L991.40 422.54 L996.25 427.92 L1001.20 433.51 L1006.05 439.09 L1011.00 444.88 L1015.85 450.66 L1020.80 456.65 L1025.65 462.63 L1030.60 468.84 L1035.45 475.03 L1040.40 481.45 L1045.25 487.86 L1050.20 494.51 L1055.05 501.14 L1060.00 508.02" fill="none" stroke="#d23f31" stroke-width="3"/><path d="M80.00 605.00 L84.85 46.06 L89.80 47.13 L94.65 48.19 L99.60 49.26 L104.45 50.26 L109.40 51.33 L114.25 52.39 L119.20 53.46 L124.05 54.52 L129.00 55.58 L133.85 56.59 L138.80 57.66 L143.65 58.72 L148.60 59.78 L153.45 60.79 L158.40 61.86 L163.25 62.92 L168.20 63.98 L173.05 65.05 L178.00 66.11 L182.85 67.12 L187.80 68.18 L192.65 69.25 L197.60 70.31 L202.45 71.38 L207.40 72.44 L212.25 73.45 L217.20 74.51 L222.05 75.58 L227.00 76.64 L231.85 77.70 L236.80 78.77 L241.65 79.83 L246.60 80.90 L251.45 81.90 L256.40 82.97 L261.25 84.03 L266.20 85.10 L271.05 86.16 L276.00 87.22 L280.85 88.29 L285.80 89.35 L290.65 90.42 L295.60 91.48 L300.45 92.54 L305.40 93.66 L310.25 94.73 L315.20 95.79 L320.05 96.86 L325.00 97.92 L329.85 98.98 L334.80 100.10 L339.65 101.17 L344.60 102.29 L349.45 103.35 L354.40 104.42 L359.25 105.54 L364.20 106.66 L369.05 107.72 L374.00 108.84 L378.85 109.90 L383.80 111.02 L388.65 112.14 L393.60 113.26 L398.45 114.38 L403.40 115.50 L408.25 116.62 L413.20 117.80 L418.05 118.92 L423.00 120.04 L427.85 121.22 L432.80 122.39 L437.65 123.51 L442.60 124.69 L447.45 125.86 L452.40 127.04 L457.25 128.22 L462.20 129.45 L467.05 130.62 L472.00 131.86 L476.85 133.03 L481.80 134.26 L486.65 135.50 L491.60 136.73 L496.45 137.96 L501.40 139.25 L506.25 140.54 L511.20 141.82 L516.05 143.06 L521.00 144.40 L525.85 145.69 L530.80 147.03 L535.65 148.38 L540.60 149.72 L545.45 151.06 L550.40 152.46 L555.25 153.81 L560.20 155.26 L565.05 156.66 L570.00 158.06 L574.85 159.52 L579.80 160.98 L584.65 162.49 L589.60 164.00 L594.45 165.46 L599.40 167.02 L604.25 168.54 L609.20 170.16 L614.05 171.73 L619.00 173.35 L623.85 174.98 L628.80 176.60 L633.65 178.28 L638.60 179.96 L643.45 181.70 L648.40 183.43 L653.25 185.17 L658.20 187.02 L663.05 188.81 L668.00 190.66 L672.85 192.50 L677.80 194.41 L682.65 196.31 L687.60 198.27 L692.45 200.23 L697.40 202.30 L702.25 204.32 L707.20 206.39 L712.05 208.46 L717.00 210.65 L721.85 212.83 L726.80 215.02 L731.65 217.26 L736.60 219.55 L741.45 221.85 L746.40 224.26 L751.25 226.61 L756.20 229.07 L761.05 231.54 L766.00 234.06 L770.85 236.58 L775.80 239.21 L780.65 241.84 L785.60 244.53 L790.45 247.27 L795.40 250.07 L800.25 252.87 L805.20 255.78 L810.05 258.70 L815.00 261.72 L819.85 264.69 L824.80 267.82 L829.65 270.96 L834.60 274.15 L839.45 277.40 L844.40 280.76 L849.25 284.06 L854.20 287.54 L859.05 291.01 L864.00 294.59 L868.85 298.18 L873.80 301.87 L878.65 305.57 L883.60 309.43 L888.45 313.30 L893.40 317.27 L898.25 321.25 L903.20 325.39 L908.05 329.54 L913.00 333.79 L917.85 338.10 L922.80 342.53 L927.65 346.95 L932.60 351.54 L937.45 356.14 L942.40 360.90 L947.25 365.66 L952.20 370.58 L957.05 375.51 L962.00 380.61 L966.85 385.76 L971.80 391.02 L976.65 396.29 L981.60 401.78 L986.45 407.26 L991.40 412.98 L996.25 418.63 L1001.20 424.51 L1006.05 430.39 L1011.00 436.50 L1015.85 442.54 L1020.80 448.87 L1025.65 455.14 L1030.60 461.70 L1035.45 468.19 L1040.40 474.97 L1045.25 481.74 L1050.20 488.74 L1055.05 495.69 L1060.00 502.97" fill="none" stroke="#2b8cbe" stroke-width="2" stroke-dasharray="7 5"/><path d="M80.00 605.00 L84.85 602.26 L89.80 599.46 L94.65 596.71 L99.60 593.91 L104.45 591.17 L109.40 588.37 L114.25 585.62 L119.20 582.82 L124.05 580.08 L129.00 577.28 L133.85 574.54 L138.80 571.74 L143.65 568.99 L148.60 566.19 L153.45 563.45 L158.40 560.65 L163.25 557.90 L168.20 555.10 L173.05 552.36 L178.00 549.56 L182.85 546.82 L187.80 544.02 L192.65 541.27 L197.60 538.47 L202.45 535.73 L207.40 532.93 L212.25 530.18 L217.20 527.38 L222.05 524.64 L227.00 521.84 L231.85 519.10 L236.80 516.30 L241.65 513.55 L246.60 510.75 L251.45 508.01 L256.40 505.21 L261.25 502.46 L266.20 499.66 L271.05 496.92 L276.00 494.12 L280.85 491.38 L285.80 488.58 L290.65 485.83 L295.60 483.03 L300.45 480.29 L305.40 477.49 L310.25 474.74 L315.20 471.94 L320.05 469.20 L325.00 466.40 L329.85 463.66 L334.80 460.86 L339.65 458.11 L344.60 455.31 L349.45 452.57 L354.40 449.77 L359.25 447.02 L364.20 444.22 L369.05 441.48 L374.00 438.68 L378.85 435.94 L383.80 433.14 L388.65 430.39 L393.60 427.59 L398.45 424.85 L403.40 422.05 L408.25 419.30 L413.20 416.50 L418.05 413.76 L423.00 410.96 L427.85 408.22 L432.80 405.42 L437.65 402.67 L442.60 399.87 L447.45 397.13 L452.40 394.33 L457.25 391.58 L462.20 388.78 L467.05 386.04 L472.00 383.24 L476.85 380.50 L481.80 377.70 L486.65 374.95 L491.60 372.15 L496.45 369.41 L501.40 366.61 L506.25 363.86 L511.20 361.06 L516.05 358.32 L521.00 355.52 L525.85 352.78 L530.80 349.98 L535.65 347.23 L540.60 344.43 L545.45 341.69 L550.40 338.89 L555.25 336.14 L560.20 333.34 L565.05 330.60 L570.00 327.80 L574.85 325.06 L579.80 322.26 L584.65 319.51 L589.60 316.71 L594.45 313.97 L599.40 311.17 L604.25 308.42 L609.20 305.62 L614.05 302.88 L619.00 300.08 L623.85 297.34 L628.80 294.54 L633.65 291.79 L638.60 288.99 L643.45 286.25 L648.40 283.45 L653.25 280.70 L658.20 277.90 L663.05 275.16 L668.00 272.36 L672.85 269.62 L677.80 266.82 L682.65 264.07 L687.60 261.27 L692.45 258.53 L697.40 255.73 L702.25 252.98 L707.20 250.18 L712.05 247.44 L717.00 244.64 L721.85 241.90 L726.80 239.10 L731.65 236.35 L736.60 233.55 L741.45 230.81 L746.40 228.01 L751.25 225.26 L756.20 222.46 L761.05 219.72 L766.00 216.92 L770.85 214.18 L775.80 211.38 L780.65 208.63 L785.60 205.83 L790.45 203.09 L795.40 200.29 L800.25 197.54 L805.20 194.74 L810.05 192.00 L815.00 189.20 L819.85 186.46 L824.80 183.66 L829.65 180.91 L834.60 178.11 L839.45 175.37 L844.40 172.57 L849.25 169.82 L854.20 167.02 L859.05 164.28 L864.00 161.48 L868.85 158.74 L873.80 155.94 L878.65 153.19 L883.60 150.39 L888.45 147.65 L893.40 144.85 L898.25 142.10 L903.20 139.30 L908.05 136.56 L913.00 133.76 L917.85 131.02 L922.80 128.22 L927.65 125.47 L932.60 122.67 L937.45 119.93 L942.40 117.13 L947.25 114.38 L952.20 111.58 L957.05 108.84 L962.00 106.04 L966.85 103.30 L971.80 100.50 L976.65 97.75 L981.60 94.95 L986.45 92.21 L991.40 89.41 L996.25 86.66 L1001.20 83.86 L1006.05 81.12 L1011.00 78.32 L1015.85 75.58 L1020.80 72.78 L1025.65 70.03 L1030.60 67.23 L1035.45 64.49 L1040.40 61.69 L1045.25 58.94 L1050.20 56.14 L1055.05 53.40 L1060.00 50.60" fill="none" stroke="#8795a1" stroke-width="2"/><path d="M80.00 605.00 L84.85 602.40 L89.80 599.75 L94.65 597.17 L99.60 594.55 L104.45 591.98 L109.40 589.38 L114.25 586.83 L119.20 584.25 L124.05 581.73 L129.00 579.16 L133.85 576.66 L138.80 574.11 L143.65 571.63 L148.60 569.10 L153.45 566.64 L158.40 564.13 L163.25 561.69 L168.20 559.20 L173.05 556.78 L178.00 554.31 L182.85 551.91 L187.80 549.46 L192.65 547.08 L197.60 544.65 L202.45 542.29 L207.40 539.88 L212.25 537.53 L217.20 535.15 L222.05 532.82 L227.00 530.46 L231.85 528.15 L236.80 525.81 L241.65 523.52 L246.60 521.20 L251.45 518.93 L256.40 516.63 L261.25 514.38 L266.20 512.09 L271.05 509.87 L276.00 507.60 L280.85 505.40 L285.80 503.16 L290.65 500.97 L295.60 498.75 L300.45 496.58 L305.40 494.38 L310.25 492.23 L315.20 490.05 L320.05 487.93 L325.00 485.77 L329.85 483.67 L334.80 481.53 L339.65 479.45 L344.60 477.33 L349.45 475.27 L354.40 473.18 L359.25 471.14 L364.20 469.06 L369.05 467.05 L374.00 465.00 L378.85 463.00 L383.80 460.98 L388.65 459.00 L393.60 457.00 L398.45 455.05 L403.40 453.07 L408.25 451.15 L413.20 449.19 L418.05 447.29 L423.00 445.36 L427.85 443.48 L432.80 441.58 L437.65 439.73 L442.60 437.85 L447.45 436.02 L452.40 434.17 L457.25 432.37 L462.20 430.55 L467.05 428.78 L472.00 426.98 L476.85 425.24 L481.80 423.47 L486.65 421.76 L491.60 420.02 L496.45 418.34 L501.40 416.63 L506.25 414.98 L511.20 413.31 L516.05 411.69 L521.00 410.05 L525.85 408.46 L530.80 406.86 L535.65 405.30 L540.60 403.74 L545.45 402.22 L550.40 400.69 L555.25 399.21 L560.20 397.72 L565.05 396.28 L570.00 394.83 L574.85 393.43 L579.80 392.02 L584.65 390.66 L589.60 389.30 L594.45 387.99 L599.40 386.67 L604.25 385.40 L609.20 384.14 L614.05 382.92 L619.00 381.70 L623.85 380.53 L628.80 379.37 L633.65 378.25 L638.60 377.14 L643.45 376.08 L648.40 375.03 L653.25 374.03 L658.20 373.04 L663.05 372.10 L668.00 371.17 L672.85 370.29 L677.80 369.43 L682.65 368.62 L687.60 367.83 L692.45 367.09 L697.40 366.37 L702.25 365.70 L707.20 365.06 L712.05 364.47 L717.00 363.91 L721.85 363.40 L726.80 362.92 L731.65 362.49 L736.60 362.10 L741.45 361.76 L746.40 361.47 L751.25 361.22 L756.20 361.02 L761.05 360.87 L766.00 360.77 L770.85 360.72 L775.80 360.73 L780.65 360.78 L785.60 360.90 L790.45 361.07 L795.40 361.30 L800.25 361.59 L805.20 361.94 L810.05 362.35 L815.00 362.83 L819.85 363.36 L824.80 363.98 L829.65 364.65 L834.60 365.40 L839.45 366.21 L844.40 367.10 L849.25 368.06 L854.20 369.11 L859.05 370.21 L864.00 371.42 L868.85 372.69 L873.80 374.06 L878.65 375.49 L883.60 377.04 L888.45 378.65 L893.40 380.38 L898.25 382.16 L903.20 384.08 L908.05 386.06 L913.00 388.18 L917.85 390.35 L922.80 392.67 L927.65 395.05 L932.60 397.59 L937.45 400.19 L942.40 402.95 L947.25 405.77 L952.20 408.77 L957.05 411.82 L962.00 415.06 L966.85 418.36 L971.80 421.85 L976.65 425.40 L981.60 429.16 L986.45 432.97 L991.40 437.01 L996.25 441.10 L1001.20 445.41 L1006.05 449.79 L1011.00 454.41 L1015.85 459.08 L1020.80 464.01 L1025.65 469.00 L1030.60 474.24 L1035.45 479.55 L1040.40 485.14 L1045.25 490.78 L1050.20 496.71 L1055.05 502.70 L1060.00 508.99" fill="none" stroke="#2ca25f" stroke-width="2"/><text class="small" x="420" y="666">raw sell size / hard-wall reserve</text><text class="small" transform="translate(18 430) rotate(-90)">effective payout % / output scale</text><rect x="690" y="58" width="362" height="114" rx="10" fill="#ffffff" stroke="#d8e0e8"/><line x1="708" y1="86" x2="743" y2="86" stroke="#d23f31" stroke-width="3"/><text class="legend" x="753" y="91">effective payout %</text><line x1="708" y1="108" x2="743" y2="108" stroke="#2b8cbe" stroke-width="2" stroke-dasharray="7 5"/><text class="legend" x="753" y="113">dampened / fee-adjusted raw</text><line x1="708" y1="130" x2="743" y2="130" stroke="#8795a1" stroke-width="2"/><text class="legend" x="753" y="135">raw output</text><line x1="708" y1="152" x2="743" y2="152" stroke="#2ca25f" stroke-width="2"/><text class="legend" x="753" y="157">actual payout</text></svg>