<svg xmlns="http://www.w3.org/2000/svg" width="1100" height="620" viewBox="0 0 1100 620"><style>.bg{fill:#fbfdff}.grid{stroke:#d8e0e8;stroke-width:1}.axis{stroke:#475569;stroke-width:1.5}.label{font:14px sans-serif;fill:#334155}.title{font:18px sans-serif;fill:#0f172a}.legend{font:15px sans-serif;fill:#1f2937}</style><rect class="bg" width="1100" height="620"/><text x="78" y="32" class="title">Split Sweep: dump_500k_split_sweep</text><text x="78" y="52" class="label">total=$500000.00, wait=0s, vault=$100000000.00</text><line class="grid" x1="78" y1="548.00" x2="1062.00" y2="548.00"/><text class="label" x="18" y="552.00">49.9626</text><line class="grid" x1="78" y1="425.50" x2="1062.00" y2="425.50"/><text class="label" x="18" y="429.50">50.0452</text><line class="grid" x1="78" y1="303.00" x2="1062.00" y2="303.00"/><text class="label" x="18" y="307.00">50.1278</text><line class="grid" x1="78" y1="180.50" x2="1062.00" y2="180.50"/><text class="label" x="18" y="184.50">50.2105</text><line class="grid" x1="78" y1="58.00" x2="1062.00" y2="58.00"/><text class="label" x="18" y="62.00">50.2931</text><line class="grid" x1="78.00" y1="58" x2="78.00" y2="548.00"/><text class="label" x="70.00" y="576.00">1</text><line class="grid" x1="258.73" y1="58" x2="258.73" y2="548.00"/><text class="label" x="250.73" y="576.00">10</text><line class="grid" x1="459.55" y1="58" x2="459.55" y2="548.00"/><text class="label" x="451.55" y="576.00">20</text><line class="grid" x1="660.37" y1="58" x2="660.37" y2="548.00"/><text class="label" x="652.37" y="576.00">30</text><line class="grid" x1="861.18" y1="58" x2="861.18" y2="548.00"/><text class="label" x="853.18" y="576.00">40</text><line class="grid" x1="1062.00" y1="58" x2="1062.00" y2="548.00"/><text class="label" x="1054.00" y="576.00">50</text><line class="axis" x1="78" y1="548.00" x2="1062.00" y2="548.00"/><line class="axis" x1="78" y1="58" x2="78" y2="548.00"/><path d="M78.00 114.54 L98.08 114.54 L118.16 114.54 L138.24 114.54 L158.33 114.54 L178.41 114.54 L198.49 114.54 L218.57 114.54 L238.65 114.54 L258.73 114.54 L278.82 114.54 L298.90 114.54 L318.98 114.54 L339.06 114.54 L359.14 114.54 L379.22 114.54 L399.31 114.54 L419.39 114.54 L439.47 114.54 L459.55 114.54 L479.63 114.54 L499.71 114.54 L519.80 114.54 L539.88 114.54 L559.96 114.54 L580.04 114.54 L600.12 114.54 L620.20 114.54 L640.29 114.54 L660.37 114.54 L680.45 114.54 L700.53 114.54 L720.61 114.54 L740.69 114.54 L760.78 114.54 L780.86 114.54 L800.94 114.54 L821.02 114.54 L841.10 114.54 L861.18 114.54 L881.27 114.54 L901.35 114.54 L921.43 114.54 L941.51 114.54 L961.59 114.54 L981.67 114.54 L1001.76 114.54 L1021.84 114.54 L1041.92 114.54 L1062.00 114.54" fill="none" stroke="#d23f31" stroke-width="3"/><path d="M78.00 114.54 L98.08 359.61 L118.16 420.31 L138.24 445.66 L158.33 459.01 L178.41 467.04 L198.49 472.30 L218.57 475.98 L238.65 478.66 L258.73 480.68 L278.82 482.26 L298.90 483.52 L318.98 484.54 L339.06 485.38 L359.14 486.08 L379.22 486.67 L399.31 487.18 L419.39 487.62 L439.47 488.00 L459.55 488.34 L479.63 488.63 L499.71 488.90 L519.80 489.13 L539.88 489.34 L559.96 489.53 L580.04 489.70 L600.12 489.85 L620.20 490.00 L640.29 490.12 L660.37 490.24 L680.45 490.35 L700.53 490.45 L720.61 490.55 L740.69 490.63 L760.78 490.71 L780.86 490.79 L800.94 490.86 L821.02 490.92 L841.10 490.98 L861.18 491.04 L881.27 491.09 L901.35 491.15 L921.43 491.19 L941.51 491.24 L961.59 491.28 L981.67 491.32 L1001.76 491.36 L1021.84 491.39 L1041.92 491.43 L1062.00 491.46" fill="none" stroke="#2563eb" stroke-width="3"/><line x1="770" y1="86" x2="812" y2="86" stroke="#d23f31" stroke-width="3"/><text class="legend" x="824" y="91">one big sell haircut</text><line x1="770" y1="112" x2="812" y2="112" stroke="#2563eb" stroke-width="3"/><text class="legend" x="824" y="117">n split sells haircut</text><text class="label" x="500" y="602.00">number of split sells (n)</text><text class="label" transform="translate(18 390) rotate(-90)">haircut bps</text></svg>